<svg width="173" height="52" viewBox="0 0 173 52" fill="none" xmlns="http://www.w3.org/2000/svg">
<rect width="173" height="52" fill="#2D2D2D"/>
<path d="M47.1621 24.9401C47.1318 21.6285 49.9269 20.0174 50.0547 19.9423C48.4717 17.6788 46.0181 17.3695 45.1559 17.3448C43.0952 17.1321 41.0963 18.5542 40.0465 18.5542C38.9758 18.5542 37.3593 17.3654 35.6171 17.4003C33.3751 17.4342 31.2777 18.7073 30.1274 20.6842C27.7534 24.7151 29.5239 30.6386 31.7984 33.8968C32.9361 35.4926 34.2656 37.2742 36.0057 37.2116C37.7082 37.1427 38.3441 36.1471 40.3985 36.1471C42.4341 36.1471 43.0313 37.2116 44.806 37.1715C46.6331 37.1427 47.7834 35.5686 48.8813 33.9585C50.1961 32.1295 50.7241 30.3283 50.7451 30.2359C50.7022 30.2215 47.1967 28.9094 47.1621 24.9401Z" fill="white"/>
<path d="M43.8097 15.2015C44.7253 14.0784 45.3518 12.5505 45.1779 11C43.8526 11.0575 42.1952 11.8991 41.2408 12.9975C40.3964 13.9654 39.6421 15.5518 39.837 17.0438C41.3257 17.1527 42.8542 16.307 43.8097 15.2015Z" fill="white"/>
<path d="M66.9855 14.8965C66.9855 16.1058 66.6157 17.0162 65.8771 17.6276C65.193 18.1917 64.2208 18.4742 62.9615 18.4742C62.3371 18.4742 61.8028 18.4475 61.3555 18.3941V11.7862C61.939 11.6937 62.5676 11.6465 63.2465 11.6465C64.446 11.6465 65.3502 11.9023 65.9599 12.414C66.643 12.9925 66.9855 13.8197 66.9855 14.8965ZM65.8279 14.9263C65.8279 14.1423 65.6163 13.5412 65.193 13.122C64.7698 12.7038 64.1516 12.4942 63.3376 12.4942C62.9919 12.4942 62.6975 12.5168 62.4534 12.564V17.5875C62.5886 17.6081 62.8358 17.6173 63.1951 17.6173C64.0354 17.6173 64.6839 17.3882 65.1406 16.9299C65.5974 16.4716 65.8279 15.8038 65.8279 14.9263Z" fill="white"/>
<path d="M73.1241 15.953C73.1241 16.698 72.9072 17.3083 72.4735 17.7871C72.0188 18.2793 71.4164 18.5249 70.6642 18.5249C69.9393 18.5249 69.362 18.2896 68.9314 17.8169C68.5019 17.3453 68.2871 16.7504 68.2871 16.0332C68.2871 15.2831 68.5082 14.6676 68.9524 14.1899C69.3966 13.7121 69.9937 13.4727 70.7459 13.4727C71.4709 13.4727 72.0534 13.708 72.4945 14.1796C72.9135 14.6378 73.1241 15.2297 73.1241 15.953ZM71.9853 15.988C71.9853 15.541 71.8868 15.1578 71.6909 14.8382C71.4604 14.4519 71.1325 14.2587 70.7061 14.2587C70.2651 14.2587 69.9298 14.4519 69.6993 14.8382C69.5024 15.1578 69.405 15.5472 69.405 16.0075C69.405 16.4545 69.5034 16.8377 69.6993 17.1573C69.9372 17.5436 70.2682 17.7368 70.6957 17.7368C71.1147 17.7368 71.4437 17.5405 71.6804 17.147C71.8837 16.8213 71.9853 16.4349 71.9853 15.988Z" fill="white"/>
<path d="M81.3547 13.5703L79.8094 18.414H78.8036L78.1635 16.3107C78.0011 15.7856 77.8691 15.2636 77.7665 14.7458H77.7466C77.6512 15.278 77.5192 15.799 77.3495 16.3107L76.6696 18.414H75.6523L74.1992 13.5703H75.3275L75.8859 15.8729C76.0211 16.4175 76.1321 16.9364 76.2212 17.4276H76.2411C76.3228 17.0227 76.4579 16.5069 76.6486 15.8832L77.3495 13.5713H78.2442L78.9157 15.8339C79.0781 16.3857 79.2101 16.9169 79.3117 17.4286H79.3421C79.4165 16.9302 79.5286 16.399 79.6774 15.8339L80.2766 13.5713H81.3547V13.5703Z" fill="white"/>
<path d="M87.0457 18.4141H85.9477V15.6399C85.9477 14.785 85.6167 14.3575 84.9525 14.3575C84.6267 14.3575 84.3637 14.4747 84.1594 14.71C83.9572 14.9453 83.8545 15.2227 83.8545 15.5402V18.4131H82.7566V14.9545C82.7566 14.5291 82.743 14.0678 82.7168 13.5684H83.6817L83.733 14.3257H83.7634C83.8912 14.0904 84.0819 13.8962 84.3323 13.741C84.6298 13.5602 84.9629 13.4688 85.3275 13.4688C85.7885 13.4688 86.1719 13.6147 86.4768 13.9075C86.856 14.2661 87.0457 14.8014 87.0457 15.5125V18.4141Z" fill="white"/>
<path d="M90.0734 18.4138H88.9766V11.3477H90.0734V18.4138Z" fill="white"/>
<path d="M96.5382 15.953C96.5382 16.698 96.3213 17.3083 95.8876 17.7871C95.4329 18.2793 94.8295 18.5249 94.0783 18.5249C93.3523 18.5249 92.775 18.2896 92.3455 17.8169C91.9159 17.3453 91.7012 16.7504 91.7012 16.0332C91.7012 15.2831 91.9222 14.6676 92.3664 14.1899C92.8106 13.7121 93.4078 13.4727 94.159 13.4727C94.885 13.4727 95.4664 13.708 95.9085 14.1796C96.3276 14.6378 96.5382 15.2297 96.5382 15.953ZM95.3983 15.988C95.3983 15.541 95.2998 15.1578 95.1039 14.8382C94.8745 14.4519 94.5455 14.2587 94.1202 14.2587C93.6781 14.2587 93.3428 14.4519 93.1134 14.8382C92.9164 15.1578 92.819 15.5472 92.819 16.0075C92.819 16.4545 92.9175 16.8377 93.1134 17.1573C93.3512 17.5436 93.6823 17.7368 94.1097 17.7368C94.5288 17.7368 94.8567 17.5405 95.0935 17.147C95.2977 16.8213 95.3983 16.4349 95.3983 15.988Z" fill="white"/>
<path d="M101.851 18.4149H100.865L100.784 17.857H100.753C100.416 18.3019 99.9351 18.5249 99.3107 18.5249C98.8445 18.5249 98.4674 18.3779 98.1835 18.0861C97.9257 17.821 97.7969 17.4912 97.7969 17.0997C97.7969 16.5079 98.0483 16.0568 98.5543 15.7445C99.0593 15.4321 99.7696 15.279 100.684 15.2862V15.1958C100.684 14.5577 100.343 14.2392 99.6585 14.2392C99.1714 14.2392 98.7419 14.3594 98.371 14.5978L98.1478 13.8908C98.6067 13.6124 99.1735 13.4727 99.8419 13.4727C101.133 13.4727 101.78 14.1405 101.78 15.4763V17.26C101.78 17.744 101.804 18.1293 101.851 18.4149ZM100.711 16.7504V16.0034C99.5003 15.9828 98.8948 16.3086 98.8948 16.9795C98.8948 17.2323 98.964 17.4213 99.1054 17.5477C99.2468 17.6741 99.427 17.7368 99.6418 17.7368C99.8827 17.7368 100.108 17.6618 100.313 17.5128C100.52 17.3628 100.646 17.1727 100.694 16.9394C100.705 16.887 100.711 16.8233 100.711 16.7504Z" fill="white"/>
<path d="M108.089 18.4138H107.115L107.064 17.636H107.033C106.722 18.2278 106.192 18.5237 105.447 18.5237C104.852 18.5237 104.357 18.2946 103.964 17.8363C103.571 17.3781 103.375 16.7831 103.375 16.0526C103.375 15.2686 103.588 14.6336 104.015 14.1486C104.429 13.6965 104.936 13.4705 105.539 13.4705C106.203 13.4705 106.667 13.6893 106.931 14.1281H106.952V11.3477H108.051V17.1089C108.051 17.5805 108.063 18.0151 108.089 18.4138ZM106.952 16.3711V15.5635C106.952 15.4238 106.941 15.3107 106.921 15.2244C106.859 14.9655 106.726 14.7477 106.524 14.572C106.32 14.3963 106.074 14.3079 105.79 14.3079C105.38 14.3079 105.06 14.4672 104.824 14.7867C104.59 15.1063 104.472 15.5142 104.472 16.0125C104.472 16.4913 104.584 16.8797 104.809 17.1787C105.047 17.4973 105.368 17.6565 105.769 17.6565C106.129 17.6565 106.417 17.524 106.636 17.2578C106.848 17.0123 106.952 16.7164 106.952 16.3711Z" fill="white"/>
<path d="M117.48 15.953C117.48 16.698 117.263 17.3083 116.829 17.7871C116.374 18.2793 115.773 18.5249 115.02 18.5249C114.296 18.5249 113.719 18.2896 113.287 17.8169C112.857 17.3453 112.643 16.7504 112.643 16.0332C112.643 15.2831 112.864 14.6676 113.308 14.1899C113.752 13.7121 114.349 13.4727 115.102 13.4727C115.826 13.4727 116.41 13.708 116.85 14.1796C117.269 14.6378 117.48 15.2297 117.48 15.953ZM116.342 15.988C116.342 15.541 116.243 15.1578 116.047 14.8382C115.816 14.4519 115.489 14.2587 115.062 14.2587C114.622 14.2587 114.286 14.4519 114.055 14.8382C113.858 15.1578 113.76 15.5472 113.76 16.0075C113.76 16.4545 113.859 16.8377 114.055 17.1573C114.293 17.5436 114.624 17.7368 115.051 17.7368C115.47 17.7368 115.8 17.5405 116.037 17.147C116.239 16.8213 116.342 16.4349 116.342 15.988Z" fill="white"/>
<path d="M123.384 18.4141H122.288V15.6399C122.288 14.785 121.957 14.3575 121.291 14.3575C120.965 14.3575 120.702 14.4747 120.499 14.71C120.296 14.9453 120.194 15.2227 120.194 15.5402V18.4131H119.095V14.9545C119.095 14.5291 119.083 14.0678 119.057 13.5684H120.02L120.072 14.3257H120.102C120.231 14.0904 120.422 13.8962 120.671 13.741C120.97 13.5602 121.302 13.4688 121.667 13.4688C122.127 13.4688 122.511 13.6147 122.816 13.9075C123.196 14.2661 123.384 14.8014 123.384 15.5125V18.4141Z" fill="white"/>
<path d="M130.773 14.3762H129.564V16.7291C129.564 17.3271 129.779 17.6261 130.205 17.6261C130.402 17.6261 130.565 17.6097 130.694 17.5758L130.722 18.3927C130.505 18.4728 130.22 18.5129 129.869 18.5129C129.436 18.5129 129.098 18.3834 128.854 18.1245C128.609 17.8656 128.487 17.4299 128.487 16.8185V14.3762H127.766V13.5696H128.487V12.6818L129.563 12.3633V13.5685H130.772V14.3762H130.773Z" fill="white"/>
<path d="M136.586 18.4138H135.487V15.6601C135.487 14.7918 135.156 14.3572 134.493 14.3572C133.984 14.3572 133.636 14.6089 133.445 15.1124C133.413 15.2183 133.394 15.3477 133.394 15.4998V18.4128H132.297V11.3477H133.394V14.2668H133.415C133.76 13.7356 134.256 13.4705 134.898 13.4705C135.353 13.4705 135.729 13.6164 136.028 13.9092C136.399 14.274 136.586 14.8165 136.586 15.5337V18.4138Z" fill="white"/>
<path d="M142.58 15.7635C142.58 15.9566 142.565 16.119 142.539 16.2515H139.247C139.261 16.7303 139.418 17.0951 139.723 17.3479C140.002 17.5739 140.361 17.687 140.801 17.687C141.288 17.687 141.733 17.6109 142.133 17.4578L142.305 18.2058C141.836 18.4052 141.285 18.5048 140.647 18.5048C139.882 18.5048 139.28 18.2839 138.844 17.8421C138.406 17.4003 138.189 16.8074 138.189 16.0635C138.189 15.3329 138.392 14.7247 138.799 14.2397C139.225 13.7218 139.8 13.4629 140.526 13.4629C141.236 13.4629 141.776 13.7218 142.14 14.2397C142.435 14.6507 142.58 15.1593 142.58 15.7635ZM141.532 15.485C141.541 15.1655 141.469 14.8901 141.32 14.6579C141.129 14.3589 140.839 14.2089 140.446 14.2089C140.088 14.2089 139.795 14.3548 139.572 14.6476C139.39 14.8808 139.282 15.1593 139.247 15.485H141.532Z" fill="white"/>
<path d="M71.7996 36.9826H69.4204L68.1171 32.9661H63.5871L62.3456 36.9826H60.0293L64.5174 23.3086H67.2895L71.7996 36.9826ZM67.7243 31.281L66.5457 27.7104C66.421 27.3456 66.1874 26.4867 65.8427 25.1345H65.8008C65.6635 25.716 65.4425 26.575 65.1387 27.7104L63.981 31.281H67.7243Z" fill="white"/>
<path d="M83.3415 31.931C83.3415 33.6079 82.8795 34.9334 81.9554 35.9065C81.1278 36.7726 80.1001 37.2052 78.8733 37.2052C77.549 37.2052 76.5978 36.7387 76.0184 35.8058H75.9765V40.9998H73.7429V30.3682C73.7429 29.314 73.7146 28.232 73.6602 27.1223H75.6245L75.7492 28.6852H75.7911C76.536 27.5077 77.6664 26.9199 79.1834 26.9199C80.3693 26.9199 81.3593 27.3792 82.1513 28.2988C82.9455 29.2195 83.3415 30.4299 83.3415 31.931ZM81.066 32.0112C81.066 31.0515 80.846 30.2603 80.4039 29.6377C79.9209 28.9883 79.2724 28.6636 78.4594 28.6636C77.9084 28.6636 77.4076 28.8444 76.9602 29.201C76.5119 29.5606 76.2185 30.0302 76.0813 30.6117C76.0121 30.883 75.9776 31.1049 75.9776 31.2796V32.9236C75.9776 33.6408 76.2018 34.246 76.6501 34.7402C77.0985 35.2345 77.681 35.4811 78.3976 35.4811C79.2389 35.4811 79.8937 35.1625 80.362 34.5275C80.8313 33.8915 81.066 33.0531 81.066 32.0112Z" fill="white"/>
<path d="M94.9049 31.931C94.9049 33.6079 94.4429 34.9334 93.5178 35.9065C92.6912 36.7726 91.6635 37.2052 90.4367 37.2052C89.1124 37.2052 88.1612 36.7387 87.5829 35.8058H87.541V40.9998H85.3074V30.3682C85.3074 29.314 85.2791 28.232 85.2246 27.1223H87.189L87.3136 28.6852H87.3555C88.0994 27.5077 89.2298 26.9199 90.7478 26.9199C91.9327 26.9199 92.9227 27.3792 93.7169 28.2988C94.5078 29.2195 94.9049 30.4299 94.9049 31.931ZM92.6294 32.0112C92.6294 31.0515 92.4083 30.2603 91.9662 29.6377C91.4833 28.9883 90.8369 28.6636 90.0228 28.6636C89.4707 28.6636 88.971 28.8444 88.5226 29.201C88.0742 29.5606 87.7819 30.0302 87.6447 30.6117C87.5766 30.883 87.541 31.1049 87.541 31.2796V32.9236C87.541 33.6408 87.7652 34.246 88.2115 34.7402C88.6598 35.2334 89.2423 35.4811 89.961 35.4811C90.8023 35.4811 91.4571 35.1625 91.9254 34.5275C92.3947 33.8915 92.6294 33.0531 92.6294 32.0112Z" fill="white"/>
<path d="M107.833 33.1471C107.833 34.3103 107.421 35.2566 106.595 35.9872C105.686 36.7855 104.422 37.1842 102.797 37.1842C101.297 37.1842 100.094 36.9006 99.1836 36.3324L99.7011 34.5065C100.682 35.0881 101.758 35.3799 102.93 35.3799C103.771 35.3799 104.426 35.1929 104.896 34.8209C105.365 34.449 105.598 33.9496 105.598 33.327C105.598 32.7721 105.406 32.3046 105.019 31.9254C104.635 31.5463 103.992 31.1939 103.096 30.8681C100.654 29.9752 99.435 28.6672 99.435 26.9472C99.435 25.8231 99.8625 24.9014 100.718 24.1842C101.571 23.466 102.709 23.1074 104.132 23.1074C105.4 23.1074 106.454 23.3242 107.296 23.7568L106.737 25.5426C105.951 25.1234 105.063 24.9138 104.069 24.9138C103.283 24.9138 102.669 25.1039 102.229 25.482C101.857 25.82 101.671 26.2321 101.671 26.7201C101.671 27.2606 101.883 27.7075 102.311 28.059C102.683 28.3836 103.358 28.7351 104.339 29.1142C105.539 29.5879 106.42 30.1417 106.986 30.7767C107.551 31.4096 107.833 32.2018 107.833 33.1471Z" fill="white"/>
<path d="M115.216 28.7668H112.754V33.5539C112.754 34.7715 113.188 35.3798 114.058 35.3798C114.457 35.3798 114.788 35.3459 115.05 35.2781L115.111 36.9416C114.671 37.1029 114.092 37.1841 113.374 37.1841C112.492 37.1841 111.803 36.92 111.305 36.3929C110.81 35.8648 110.56 34.9791 110.56 33.7347V28.7647H109.094V27.1207H110.56V25.3154L112.754 24.666V27.1207H115.216V28.7668Z" fill="white"/>
<path d="M126.325 31.972C126.325 33.4876 125.883 34.7319 125.001 35.705C124.076 36.7068 122.848 37.2061 121.318 37.2061C119.843 37.2061 118.668 36.7263 117.792 35.7666C116.916 34.8069 116.479 33.5955 116.479 32.1354C116.479 30.6075 116.929 29.356 117.833 28.383C118.735 27.4089 119.953 26.9219 121.483 26.9219C122.958 26.9219 124.145 27.4017 125.041 28.3624C125.898 29.2944 126.325 30.4976 126.325 31.972ZM124.008 32.0429C124.008 31.1336 123.81 30.3537 123.409 29.7033C122.94 28.9163 122.271 28.5238 121.404 28.5238C120.506 28.5238 119.824 28.9173 119.355 29.7033C118.954 30.3548 118.756 31.147 118.756 32.084C118.756 32.9934 118.954 33.7733 119.355 34.4226C119.838 35.2097 120.513 35.6022 121.384 35.6022C122.236 35.6022 122.906 35.2015 123.389 34.4021C123.801 33.7394 124.008 32.9513 124.008 32.0429Z" fill="white"/>
<path d="M133.586 29.0489C133.365 29.0088 133.129 28.9883 132.882 28.9883C132.096 28.9883 131.488 29.2791 131.061 29.8617C130.689 30.3754 130.502 31.0248 130.502 31.8088V36.9822H128.27L128.291 30.2275C128.291 29.091 128.263 28.0563 128.207 27.1234H130.153L130.234 29.0099H130.296C130.532 28.3615 130.904 27.8395 131.413 27.4481C131.91 27.0956 132.448 26.9199 133.027 26.9199C133.234 26.9199 133.42 26.9343 133.586 26.96V29.0489Z" fill="white"/>
<path d="M143.575 31.5867C143.575 31.9792 143.549 32.3101 143.493 32.5803H136.792C136.819 33.5544 137.142 34.2993 137.765 34.8131C138.329 35.2724 139.06 35.5025 139.956 35.5025C140.949 35.5025 141.854 35.3474 142.668 35.036L143.018 36.5568C142.066 36.9636 140.943 37.1661 139.647 37.1661C138.088 37.1661 136.865 36.716 135.974 35.8169C135.086 34.9179 134.641 33.7106 134.641 32.196C134.641 30.7092 135.054 29.4711 135.883 28.4837C136.751 27.4295 137.923 26.9023 139.398 26.9023C140.847 26.9023 141.944 27.4295 142.689 28.4837C143.278 29.3211 143.575 30.3568 143.575 31.5867ZM141.445 31.0185C141.46 30.3691 141.314 29.8081 141.011 29.3344C140.625 28.7251 140.031 28.421 139.231 28.421C138.501 28.421 137.907 28.7179 137.454 29.3139C137.082 29.7876 136.861 30.3558 136.792 31.0175H141.445V31.0185Z" fill="white"/>
</svg>
