<svg width="26" height="26" viewBox="0 0 26 26" fill="none" xmlns="http://www.w3.org/2000/svg">
<path fill-rule="evenodd" clip-rule="evenodd" d="M3.32422 9.64844H22.6854V11.1484H3.32422V9.64844Z" fill="#B09684"/>
<path fill-rule="evenodd" clip-rule="evenodd" d="M16.7012 13.5625H18.2105V15.0625H16.7012V13.5625Z" fill="#B09684"/>
<path fill-rule="evenodd" clip-rule="evenodd" d="M12.2549 13.5625H13.7642V15.0625H12.2549V13.5625Z" fill="#B09684"/>
<path fill-rule="evenodd" clip-rule="evenodd" d="M7.79883 13.5625H9.30811V15.0625H7.79883V13.5625Z" fill="#B09684"/>
<path fill-rule="evenodd" clip-rule="evenodd" d="M16.7012 17.457H18.2105V18.957H16.7012V17.457Z" fill="#B09684"/>
<path fill-rule="evenodd" clip-rule="evenodd" d="M12.2549 17.457H13.7642V18.957H12.2549V17.457Z" fill="#B09684"/>
<path fill-rule="evenodd" clip-rule="evenodd" d="M7.79883 17.457H9.30811V18.957H7.79883V17.457Z" fill="#B09684"/>
<path fill-rule="evenodd" clip-rule="evenodd" d="M17.8027 2.22852V7.02617H16.3027V2.22852H17.8027Z" fill="#B09684"/>
<path fill-rule="evenodd" clip-rule="evenodd" d="M9.70801 2.22852V7.02617H8.20801V2.22852H9.70801Z" fill="#B09684"/>
<path fill-rule="evenodd" clip-rule="evenodd" d="M3.23242 3.8125H22.77V23.7718H3.23242V3.8125ZM4.73242 5.3125V22.2718H21.27V5.3125H4.73242Z" fill="#B09684"/>
</svg>
