<svg width="47" height="33" viewBox="0 0 47 33" fill="none" xmlns="http://www.w3.org/2000/svg">
<rect width="47" height="33" fill="white"/>
<path fill-rule="evenodd" clip-rule="evenodd" d="M42.0008 17.1459H40.0762C39.4954 17.1459 39.0735 17.2846 38.7747 17.5002V17.1459H35.928C35.4727 17.1459 34.9384 17.2584 34.6856 17.5002V17.1459H29.6021V17.5002C29.1975 17.2092 28.5149 17.1459 28.1998 17.1459H24.8467V17.5002C24.5266 17.1912 23.8148 17.1459 23.381 17.1459H19.6282L18.7695 18.0725L17.9652 17.1459H12.3594V23.1998H17.8597L18.7445 22.2586L19.5781 23.1998L22.9685 23.2028V21.7787H23.3018C23.7517 21.7857 24.2822 21.7676 24.7503 21.5659V23.1997H27.5468V21.6219H27.6817C27.8539 21.6219 27.8708 21.6289 27.8708 21.8004V23.1996H36.366C36.9053 23.1996 37.4691 23.0619 37.7813 22.8122V23.1996H40.4759C41.0367 23.1996 41.5843 23.1212 42.0009 22.9205C42.0009 -10.2024 42.0008 31.0143 42.0008 17.1459Z" fill="#006FCF"/>
<path fill-rule="evenodd" clip-rule="evenodd" d="M6.77696 15.7324L7.1776 14.7689H8.07454L8.47413 15.7324H11.9702V14.9958L12.2822 15.7355H14.0971L14.4092 14.9848V15.7324H23.0975L23.0935 14.1508H23.2616C23.3793 14.1549 23.4137 14.1658 23.4137 14.3595V15.7324H27.9073V15.3642C28.2698 15.5578 28.8335 15.7324 29.5754 15.7324H31.4658L31.8704 14.7689H32.7674L33.163 15.7324H36.806V14.8172L37.3577 15.7324H40.277V9.68262H37.3879V10.3971L36.9833 9.68262H34.0187V10.3971L33.6472 9.68262H29.6428C28.9725 9.68262 28.3833 9.7759 27.9073 10.0359V9.68262H25.1439V10.0359C24.841 9.76792 24.4283 9.68262 23.9694 9.68262H13.8736L13.1962 11.2452L12.5006 9.68262H9.32069V10.3971L8.97136 9.68262H6.2594L5 12.559V15.7324H6.77696Z" fill="#006FCF"/>
<path fill-rule="evenodd" clip-rule="evenodd" d="M23.3463 20.8854C24.2553 20.8854 25.1573 20.6365 25.1573 19.4313C25.1573 18.2297 24.23 18.002 23.4047 18.002H20.0818L18.759 19.4241L17.4795 18.002H13.2969V22.3407H17.4161L18.7469 20.9044L20.0274 22.3407H22.0487V20.8854H23.3463ZM22.0487 20.0043H23.3927C23.7922 20.0043 24.0408 19.8066 24.0408 19.4313C24.0408 19.0519 23.7802 18.8994 23.4047 18.8994H22.0487V20.0043ZM16.8896 21.4365H14.3328V20.5733H16.6159V19.688H14.3328V18.8992H16.94L18.0775 20.1636L16.8896 21.4365ZM21.013 21.9461L19.4163 20.1788L21.013 18.4676V21.9461Z" fill="white"/>
<path fill-rule="evenodd" clip-rule="evenodd" d="M29.6047 20.6886C29.516 20.5622 29.3268 20.4096 29.0953 20.3244C29.369 20.216 29.8323 19.8627 29.8324 19.1702C29.8324 18.6752 29.626 18.4044 29.2978 18.2067C28.9565 18.0251 28.573 18.002 28.0465 18.002H25.6456V22.3407H26.6905V20.756H27.8019C28.1813 20.756 28.4129 20.7932 28.5649 20.9486C28.7389 21.1302 28.7358 21.4615 28.7335 21.7162C28.7332 21.7445 28.733 21.7718 28.733 21.7978V22.3407H29.777V21.4806C29.7728 21.0981 29.7516 20.9004 29.6047 20.6886ZM28.4672 19.7845C28.3281 19.8668 28.1561 19.8738 27.9538 19.8738H26.6904V18.8994H27.9709C28.1561 18.8994 28.3414 18.9033 28.4672 18.9777C28.602 19.048 28.6826 19.1824 28.6826 19.368C28.6826 19.5537 28.602 19.7032 28.4672 19.7845Z" fill="white"/>
<path d="M37.8511 20.0524C38.0536 20.2613 38.1621 20.5251 38.1621 20.9716C38.1621 21.905 37.5772 22.3407 36.5285 22.3407H34.503V21.4103H36.5203C36.7176 21.4103 36.8575 21.3843 36.9451 21.3029C37.0166 21.2358 37.0679 21.1383 37.0679 21.0199C37.0679 20.8935 37.0124 20.7932 36.941 20.733C36.8615 20.6668 36.7518 20.6367 36.5707 20.6367C36.507 20.6345 36.4423 20.6328 36.3769 20.631C35.4439 20.6057 34.3803 20.5769 34.3803 19.2938C34.3803 18.6645 34.7768 18.0021 35.8671 18.0021H37.9519V18.9255H36.0442C35.8551 18.9255 35.7322 18.9326 35.6276 19.0039C35.5137 19.0741 35.4714 19.1784 35.4714 19.316C35.4714 19.4797 35.5681 19.5911 35.699 19.6392C35.8087 19.6773 35.9265 19.6884 36.1037 19.6884L36.6635 19.7034C37.228 19.7172 37.6156 19.8145 37.8511 20.0524Z" fill="white"/>
<path d="M41.9994 18.9252H40.104C39.9148 18.9252 39.7891 18.9323 39.6832 19.0036C39.5735 19.0739 39.5312 19.1781 39.5312 19.3158C39.5312 19.4794 39.6239 19.5908 39.7586 19.6389C39.8684 19.677 39.9862 19.6881 40.1594 19.6881L40.723 19.7032C41.2918 19.7172 41.6714 19.8146 41.9029 20.0524C41.9385 20.0803 41.9621 20.1111 41.986 20.1424L41.9925 20.1509L41.9966 20.1562L41.9994 20.1598V21.7857C41.7468 22.154 41.2545 22.3407 40.5881 22.3407H38.5798V21.4103H40.58C40.7784 21.4103 40.9173 21.3843 41.0009 21.3029C41.0733 21.2358 41.1238 21.1383 41.1238 21.0199C41.1238 20.8935 41.0733 20.7932 40.9968 20.733C40.9213 20.6668 40.8115 20.6367 40.6304 20.6367C40.5665 20.6345 40.5016 20.6328 40.4361 20.631C39.4998 20.6057 38.4357 20.577 38.4357 19.2938C38.4357 18.6645 38.8365 18.0021 39.9278 18.0021H41.9992L41.9994 18.9252Z" fill="white"/>
<path d="M30.409 18.002H33.8799V18.8992H31.4447V19.688H33.8204V20.5732H31.4447V21.4365L33.8799 21.4404V22.3407H30.409V18.002Z" fill="white"/>
<path fill-rule="evenodd" clip-rule="evenodd" d="M8.33468 13.0021L7.6229 11.2728L6.91519 13.0021H8.33468ZM24.0151 12.3135C23.8722 12.4 23.7032 12.4029 23.5007 12.4029H22.2374V11.4394H23.5179C23.6991 11.4394 23.8882 11.4476 24.0111 11.5177C24.146 11.5809 24.2294 11.7154 24.2294 11.9012C24.2294 12.0907 24.15 12.2433 24.0151 12.3135ZM33.0276 13.0021L32.308 11.2728L31.5923 13.0021H33.0276ZM16.2278 14.8738H15.1617L15.1578 11.4766L13.6498 14.8738H12.7367L11.2248 11.4736V14.8738H9.10971L8.71012 13.9063H6.54486L6.1412 14.8738H5.01172L6.87398 10.5361H8.41906L10.1878 14.643V10.5361H11.8851L13.246 13.4787L14.4962 10.5361H16.2277V14.8738H16.2278ZM20.4768 14.8738H17.0028V10.5361H20.4768V11.4394H18.0428V12.2213H20.4184V13.1104H18.0428V13.9767H20.4768V14.8738ZM25.375 11.7043C25.375 12.3959 24.9121 12.7532 24.6423 12.8605C24.8698 12.9469 25.0642 13.0994 25.1567 13.2258C25.3035 13.4416 25.3289 13.6343 25.3289 14.0217V14.8738H24.2799L24.276 14.3268C24.276 14.0658 24.3011 13.6904 24.1118 13.4817C23.9599 13.3292 23.7283 13.2961 23.3539 13.2961H22.2375V14.8738H21.1977V10.5361H23.5896C24.121 10.5361 24.5126 10.5501 24.8488 10.7439C25.1778 10.9377 25.375 11.2205 25.375 11.7043ZM27.0393 14.8738H25.9782V10.5361H27.0393V14.8738ZM39.3495 14.8738H37.8759L35.9047 11.6181V14.8738H33.7868L33.3821 13.9063H31.2218L30.8292 14.8738H29.6123C29.1068 14.8738 28.4668 14.7623 28.1043 14.394C27.7389 14.0257 27.5487 13.5269 27.5487 12.7381C27.5487 12.0948 27.6624 11.5067 28.1093 11.0419C28.4455 10.6957 28.972 10.5361 29.6887 10.5361H30.6954V11.4656H29.7098C29.3303 11.4656 29.116 11.5218 28.9096 11.7225C28.7323 11.9052 28.6106 12.2504 28.6106 12.7051C28.6106 13.1698 28.7033 13.5049 28.8966 13.7238C29.0567 13.8954 29.3476 13.9475 29.6213 13.9475H30.0884L31.5541 10.5363H33.1123L34.873 14.6391V10.5363H36.4564L38.2844 13.5572V10.5363H39.3495V14.8738Z" fill="white"/>
</svg>
