<svg width="28" height="28" viewBox="0 0 28 28" fill="none" xmlns="http://www.w3.org/2000/svg">
<path fill-rule="evenodd" clip-rule="evenodd" d="M13.4168 3.08398C7.70989 3.08398 3.0835 7.71038 3.0835 13.4173C3.0835 19.1243 7.70989 23.7507 13.4168 23.7507C19.1238 23.7507 23.7502 19.1243 23.7502 13.4173C23.7502 7.71038 19.1238 3.08398 13.4168 3.08398ZM1.5835 13.4173C1.5835 6.88195 6.88146 1.58398 13.4168 1.58398C19.9522 1.58398 25.2502 6.88195 25.2502 13.4173C25.2502 19.9527 19.9522 25.2507 13.4168 25.2507C6.88146 25.2507 1.5835 19.9527 1.5835 13.4173Z" fill="#585858"/>
<path fill-rule="evenodd" clip-rule="evenodd" d="M22.8032 22.8037C23.0961 22.5108 23.5709 22.5108 23.8638 22.8037L26.1972 25.137C26.4901 25.4299 26.4901 25.9048 26.1972 26.1976C25.9043 26.4905 25.4294 26.4905 25.1365 26.1976L22.8032 23.8643C22.5103 23.5714 22.5103 23.0965 22.8032 22.8037Z" fill="#585858"/>
</svg>
