<svg width="104" height="104" viewBox="0 0 104 104" fill="none" xmlns="http://www.w3.org/2000/svg">
<g clip-path="url(#clip0_814_2)">
<circle cx="52" cy="52" r="52" fill="#F8F6F4"/>
<mask id="mask0_814_2" style="mask-type:luminance" maskUnits="userSpaceOnUse" x="0" y="0" width="104" height="104">
<path d="M104 0H0V104H104V0Z" fill="white"/>
</mask>
<g mask="url(#mask0_814_2)">
<path fill-rule="evenodd" clip-rule="evenodd" d="M52 102.627C79.9603 102.627 102.627 79.9603 102.627 52C102.627 24.0397 79.9603 1.37335 52 1.37335C24.0397 1.37335 1.37335 24.0397 1.37335 52C1.37335 79.9603 24.0397 102.627 52 102.627ZM104 52C104 80.7188 80.7188 104 52 104C23.2812 104 0 80.7188 0 52C0 23.2812 23.2812 0 52 0C80.7188 0 104 23.2812 104 52Z" fill="#B09684"/>
<path fill-rule="evenodd" clip-rule="evenodd" d="M52.0001 88.705C72.2722 88.705 88.706 72.2712 88.706 51.9991C88.706 31.727 72.2722 15.2932 52.0001 15.2932C31.728 15.2932 15.2942 31.727 15.2942 51.9991C15.2942 72.2712 31.728 88.705 52.0001 88.705ZM52.0001 90.9523C73.5134 90.9523 90.9533 73.5123 90.9533 51.9991C90.9533 30.4858 73.5134 13.0459 52.0001 13.0459C30.4869 13.0459 13.0469 30.4858 13.0469 51.9991C13.0469 73.5123 30.4869 90.9523 52.0001 90.9523Z" fill="#B09684"/>
<path d="M75.0412 56.249C75.8953 49.8501 73.7323 44.6023 68.8628 40.5621C66.8661 38.9031 64.5811 37.6053 62.3959 36.1833C60.3327 34.8516 58.2917 33.5086 56.6944 31.5788C55.0084 29.5361 54.0988 27.1322 53.6884 24.5366C53.156 21.2863 53.4222 18.3746 53.4111 15.1018C53.4111 15.0454 53.4444 14.673 53.4555 14.5827C52.9896 14.5601 52.5126 14.5488 52.0356 14.5488C51.6918 14.5488 51.359 14.5488 51.0151 14.5601C51.0151 14.752 51.0484 14.9438 51.0484 15.147C51.0373 17.2799 51.0817 19.4355 50.993 21.5685C50.8598 24.909 50.1056 28.0915 48.1089 30.8452C46.7002 32.7863 44.8145 34.1745 42.8179 35.4384C40.7991 36.6911 38.7137 37.8761 36.7503 39.2191C33.8996 41.1602 31.6257 43.6431 30.2058 46.8594C29.3961 48.6764 28.9524 50.5837 28.8193 52.5699C28.5753 56.3732 29.4405 59.8943 31.5924 63.0204C32.4465 64.2731 33.5336 65.3678 34.5873 66.6205C33.4226 67.0493 32.2025 67.4895 30.9823 67.9409C34.432 74.6107 42.1745 80.1632 51.3257 80.4566C61.8302 80.7952 69.8611 74.4527 73.1666 68.2005C71.891 67.7265 70.6265 67.2412 69.2288 66.7221C69.5061 66.4512 69.6836 66.2481 69.8833 66.0562C72.7784 63.4154 74.5199 60.1426 75.0412 56.249ZM67.21 65.2211C67.0658 65.3339 66.6665 65.2662 66.4779 65.1421C63.8823 63.5395 61.6638 61.4968 59.7892 59.0817C56.3838 54.7142 54.3539 49.7147 53.2003 44.3202C52.7566 42.2549 52.5015 40.1558 52.202 38.384C51.8027 40.4831 51.4366 42.9433 50.8598 45.3585C49.5842 50.6401 47.3768 55.4816 43.8606 59.646C42.0303 61.8128 39.9006 63.6072 37.5046 65.0857C37.2051 65.2775 36.9722 65.3114 36.6505 65.0631C33.7776 62.7608 31.8697 59.8153 31.3151 56.1362C30.5497 50.9787 32.0583 46.5547 35.8408 42.9546C37.9372 40.9571 40.4774 39.6367 42.9177 38.1583C45.2582 36.7363 47.5765 35.2692 49.3069 33.0797C50.2165 31.9286 50.3163 31.7706 51.0817 30.5066L51.6585 29.3555C51.8471 29.0282 51.958 28.6445 52.1466 28.2157C52.4128 28.9267 52.7677 29.6264 52.9008 29.9085C54.3761 33.1249 56.8608 35.382 59.7337 37.2667C62.1297 38.8467 64.6255 40.3025 66.9327 42.0066C70.0718 44.3315 72.1128 47.4689 72.6896 51.4188C73.5216 57.0842 71.647 61.6887 67.21 65.2211Z" fill="#B09684"/>
</g>
</g>
<defs>
<clipPath id="clip0_814_2">
<rect width="104" height="104" fill="white"/>
</clipPath>
</defs>
</svg>
