<svg width="104" height="104" viewBox="0 0 104 104" fill="none" xmlns="http://www.w3.org/2000/svg">
<g clip-path="url(#clip0_11391_14335)">
<path fill-rule="evenodd" clip-rule="evenodd" d="M52 102.627C79.9603 102.627 102.627 79.9603 102.627 52C102.627 24.0397 79.9603 1.37335 52 1.37335C24.0397 1.37335 1.37335 24.0397 1.37335 52C1.37335 79.9603 24.0397 102.627 52 102.627ZM104 52C104 80.7188 80.7188 104 52 104C23.2812 104 0 80.7188 0 52C0 23.2812 23.2812 0 52 0C80.7188 0 104 23.2812 104 52Z" fill="#B09684"/>
<path fill-rule="evenodd" clip-rule="evenodd" d="M51.9993 88.705C72.2714 88.705 88.7052 72.2712 88.7052 51.9991C88.7052 31.727 72.2714 15.2932 51.9993 15.2932C31.7272 15.2932 15.2934 31.727 15.2934 51.9991C15.2934 72.2712 31.7272 88.705 51.9993 88.705ZM51.9993 90.9523C73.5126 90.9523 90.9525 73.5123 90.9525 51.9991C90.9525 30.4858 73.5126 13.0459 51.9993 13.0459C30.4861 13.0459 13.0461 30.4858 13.0461 51.9991C13.0461 73.5123 30.4861 90.9523 51.9993 90.9523Z" fill="#B09684"/>
<path d="M75.0405 56.249C75.8946 49.8501 73.7316 44.6023 68.8621 40.5621C66.8654 38.9031 64.5804 37.6053 62.3952 36.1833C60.332 34.8516 58.291 33.5086 56.6937 31.5788C55.0077 29.5361 54.0981 27.1322 53.6877 24.5366C53.1553 21.2863 53.4215 18.3746 53.4104 15.1018C53.4104 15.0454 53.4437 14.673 53.4548 14.5827C52.9889 14.5601 52.5119 14.5488 52.0349 14.5488C51.6911 14.5488 51.3583 14.5488 51.0144 14.5601C51.0144 14.752 51.0477 14.9438 51.0477 15.147C51.0366 17.2799 51.081 19.4355 50.9923 21.5685C50.8591 24.909 50.1049 28.0915 48.1082 30.8452C46.6995 32.7863 44.8138 34.1745 42.8172 35.4384C40.7984 36.6911 38.713 37.8761 36.7496 39.2191C33.8989 41.1602 31.625 43.6431 30.2051 46.8594C29.3954 48.6764 28.9517 50.5837 28.8186 52.5699C28.5746 56.3732 29.4398 59.8943 31.5917 63.0204C32.4458 64.2731 33.5329 65.3678 34.5866 66.6205C33.4219 67.0493 32.2018 67.4895 30.9816 67.9409C34.4313 74.6107 42.1738 80.1632 51.325 80.4566C61.8295 80.7952 69.8604 74.4527 73.1659 68.2005C71.8903 67.7265 70.6258 67.2412 69.2281 66.7221C69.5054 66.4512 69.6829 66.2481 69.8826 66.0562C72.7777 63.4154 74.5192 60.1426 75.0405 56.249ZM67.2093 65.2211C67.0651 65.3339 66.6658 65.2662 66.4772 65.1421C63.8816 63.5395 61.6631 61.4968 59.7885 59.0817C56.3831 54.7142 54.3532 49.7147 53.1996 44.3202C52.7559 42.2549 52.5008 40.1558 52.2013 38.384C51.802 40.4831 51.4359 42.9433 50.8591 45.3585C49.5835 50.6401 47.3761 55.4816 43.8599 59.646C42.0296 61.8128 39.8999 63.6072 37.5039 65.0857C37.2044 65.2775 36.9715 65.3114 36.6498 65.0631C33.7769 62.7608 31.869 59.8153 31.3144 56.1362C30.549 50.9787 32.0576 46.5547 35.8401 42.9546C37.9365 40.9571 40.4767 39.6367 42.917 38.1583C45.2575 36.7363 47.5758 35.2692 49.3062 33.0797C50.2158 31.9286 50.3156 31.7706 51.081 30.5066L51.6578 29.3555C51.8464 29.0282 51.9573 28.6445 52.1459 28.2157C52.4121 28.9267 52.767 29.6264 52.9001 29.9085C54.3754 33.1249 56.8601 35.382 59.733 37.2667C62.129 38.8467 64.6248 40.3025 66.932 42.0066C70.0711 44.3315 72.1121 47.4689 72.6889 51.4188C73.5209 57.0842 71.6463 61.6887 67.2093 65.2211Z" fill="#B09684"/>
</g>
<defs>
<clipPath id="clip0_11391_14335">
<rect width="104" height="104" fill="white"/>
</clipPath>
</defs>
</svg>
