<svg width="173" height="52" viewBox="0 0 173 52" fill="none" xmlns="http://www.w3.org/2000/svg">
<rect width="173" height="52" fill="#2D2D2D"/>
<path d="M22.6121 11.4586C22.2652 11.8131 22.0645 12.3651 22.0645 13.08V38.5781C22.0645 39.293 22.2652 39.845 22.6121 40.1995L22.6977 40.2773L37.3323 25.9948V25.6575L22.6977 11.375L22.6121 11.4586Z" fill="url(#paint0_linear_1948_3250)"/>
<path d="M42.2048 30.7578L37.332 25.9946V25.6573L42.2107 20.8941L42.3199 20.956L48.0976 24.1656C49.7464 25.0765 49.7464 26.5754 48.0976 27.492L42.3199 30.6958L42.2048 30.7578Z" fill="url(#paint1_linear_1948_3250)"/>
<path d="M42.3213 30.6958L37.3334 25.8259L22.6133 40.1993C23.1609 40.7614 24.054 40.8291 25.0696 40.267L42.3213 30.6958Z" fill="url(#paint2_linear_1948_3250)"/>
<path d="M42.3194 20.9563L25.0676 11.3851C24.052 10.8288 23.159 10.8965 22.6113 11.4586L37.3315 25.8262L42.3194 20.9563Z" fill="url(#paint3_linear_1948_3250)"/>
<path d="M64.3516 15.1918C64.3516 16.0959 64.0744 16.8201 63.5284 17.3601C62.9005 18.0003 62.0828 18.3225 61.0808 18.3225C60.1231 18.3225 59.3053 17.9949 58.6345 17.3493C57.9624 16.6942 57.627 15.8902 57.627 14.9278C57.627 13.9655 57.9624 13.1615 58.6345 12.5118C59.3053 11.8608 60.1231 11.5332 61.0808 11.5332C61.5575 11.5332 62.0121 11.6293 62.4459 11.808C62.8784 11.988 63.2304 12.2316 63.4854 12.5321L62.9061 13.1033C62.4612 12.5903 61.8555 12.3372 61.0808 12.3372C60.3822 12.3372 59.7766 12.5754 59.2624 13.0559C58.7537 13.5378 58.4987 14.1617 58.4987 14.9278C58.4987 15.6939 58.7537 16.3233 59.2624 16.8052C59.7766 17.2803 60.3822 17.5239 61.0808 17.5239C61.8223 17.5239 62.4459 17.2803 62.938 16.7998C63.2623 16.4817 63.4466 16.0431 63.4951 15.4828H61.0808V14.7004H64.3017C64.3405 14.8696 64.3516 15.0334 64.3516 15.1918Z" fill="white" stroke="white" stroke-width="0.197707" stroke-miterlimit="10"/>
<path d="M69.4622 12.4789H66.4366V14.5362H69.1642V15.3186H66.4366V17.3759H69.4622V18.1731H65.5801V11.6816H69.4622V12.4789Z" fill="white" stroke="white" stroke-width="0.197707" stroke-miterlimit="10"/>
<path d="M73.0678 18.1731H72.2113V12.4789H70.3555V11.6816H74.925V12.4789H73.0678V18.1731Z" fill="white" stroke="white" stroke-width="0.197707" stroke-miterlimit="10"/>
<path d="M78.2324 18.1731V11.6816H79.0876V18.1731H78.2324Z" fill="white" stroke="white" stroke-width="0.197707" stroke-miterlimit="10"/>
<path d="M82.8783 18.1731H82.0287V12.4789H80.166V11.6816H84.7411V12.4789H82.8783V18.1731Z" fill="white" stroke="white" stroke-width="0.197707" stroke-miterlimit="10"/>
<path d="M93.3917 17.3385C92.7361 17.9949 91.9239 18.3225 90.9551 18.3225C89.9808 18.3225 89.1686 17.9949 88.5131 17.3385C87.8589 16.6834 87.5332 15.8794 87.5332 14.9278C87.5332 13.9763 87.8589 13.1723 88.5131 12.5172C89.1686 11.8608 89.9808 11.5332 90.9551 11.5332C91.9184 11.5332 92.7306 11.8608 93.3861 12.5226C94.0458 13.1831 94.3715 13.9817 94.3715 14.9278C94.3715 15.8794 94.0458 16.6834 93.3917 17.3385ZM89.1465 16.7943C89.6399 17.2803 90.24 17.5239 90.9551 17.5239C91.6648 17.5239 92.2704 17.2803 92.7583 16.7943C93.2503 16.3084 93.4998 15.6845 93.4998 14.9278C93.4998 14.1712 93.2503 13.5472 92.7583 13.0613C92.2704 12.5754 91.6648 12.3318 90.9551 12.3318C90.24 12.3318 89.6399 12.5754 89.1465 13.0613C88.6544 13.5472 88.405 14.1712 88.405 14.9278C88.405 15.6845 88.6544 16.3084 89.1465 16.7943Z" fill="white" stroke="white" stroke-width="0.197707" stroke-miterlimit="10"/>
<path d="M95.5742 18.1731V11.6816H96.6137L99.8458 16.7303H99.8832L99.8458 15.4823V11.6816H100.701V18.1731H99.8083L96.4238 12.8754H96.3864L96.4238 14.1288V18.1731H95.5742Z" fill="white" stroke="white" stroke-width="0.197707" stroke-miterlimit="10"/>
<path d="M87.3214 27.6543C84.7171 27.6543 82.5897 29.5898 82.5897 32.2603C82.5897 34.9091 84.7171 36.865 87.3214 36.865C89.9311 36.865 92.0586 34.9091 92.0586 32.2603C92.0586 29.5898 89.9311 27.6543 87.3214 27.6543ZM87.3214 35.0513C85.8924 35.0513 84.6631 33.8994 84.6631 32.2603C84.6631 30.5995 85.8924 29.468 87.3214 29.468C88.7503 29.468 89.9852 30.5995 89.9852 32.2603C89.9852 33.8994 88.7503 35.0513 87.3214 35.0513ZM76.9973 27.6543C74.3876 27.6543 72.2657 29.5898 72.2657 32.2603C72.2657 34.9091 74.3876 36.865 76.9973 36.865C79.6057 36.865 81.729 34.9091 81.729 32.2603C81.729 29.5898 79.6057 27.6543 76.9973 27.6543ZM76.9973 35.0513C75.567 35.0513 74.3335 33.8994 74.3335 32.2603C74.3335 30.5995 75.567 29.468 76.9973 29.468C78.4263 29.468 79.6556 30.5995 79.6556 32.2603C79.6556 33.8994 78.4263 35.0513 76.9973 35.0513ZM64.7122 29.066V31.0232H69.4979C69.3579 32.1168 68.9837 32.9208 68.4099 33.4812C67.7114 34.1579 66.6234 34.9091 64.7122 34.9091C61.767 34.9091 59.4608 32.5879 59.4608 29.7116C59.4608 26.8354 61.767 24.5141 64.7122 24.5141C66.3047 24.5141 67.4633 25.1218 68.3185 25.9096L69.7308 24.5303C68.5347 23.415 66.9436 22.5582 64.7122 22.5582C60.6735 22.5582 57.2793 25.7675 57.2793 29.7116C57.2793 33.6558 60.6735 36.865 64.7122 36.865C66.8951 36.865 68.5347 36.1666 69.8236 34.8564C71.1444 33.5665 71.5561 31.7527 71.5561 30.2882C71.5561 29.8334 71.5173 29.4152 71.448 29.066H64.7122ZM114.948 30.5833C114.558 29.5533 113.357 27.6543 110.909 27.6543C108.484 27.6543 106.464 29.5208 106.464 32.2603C106.464 34.8401 108.463 36.865 111.142 36.865C113.308 36.865 114.558 35.5751 115.072 34.8239L113.465 33.7776C112.928 34.5437 112.198 35.0513 111.142 35.0513C110.093 35.0513 109.34 34.5816 108.858 33.6558L115.165 31.1071L114.948 30.5833ZM108.517 32.1168C108.463 30.341 109.929 29.4314 110.98 29.4314C111.803 29.4314 112.501 29.8334 112.734 30.4087L108.517 32.1168ZM103.39 36.5848H105.464V23.0496H103.39V36.5848ZM99.9946 28.6802H99.9253C99.4596 28.1415 98.5712 27.6543 97.4458 27.6543C95.0841 27.6543 92.9248 29.6791 92.9248 32.2752C92.9248 34.8564 95.0841 36.865 97.4458 36.865C98.5712 36.865 99.4596 36.3737 99.9253 35.8187H99.9946V36.4792C99.9946 38.2402 99.0313 39.1863 97.4777 39.1863C96.2109 39.1863 95.4251 38.293 95.1008 37.5417L93.2976 38.2767C93.8174 39.4976 95.1936 41 97.4777 41C99.9087 41 101.96 39.6032 101.96 36.2045V27.9344H99.9946V28.6802ZM97.6232 35.0513C96.1943 35.0513 94.9982 33.8832 94.9982 32.2752C94.9982 30.6523 96.1943 29.468 97.6232 29.468C99.0313 29.468 100.142 30.6523 100.142 32.2752C100.142 33.8832 99.0313 35.0513 97.6232 35.0513ZM124.655 23.0496H119.696V36.5848H121.764V31.4563H124.655C126.952 31.4563 129.204 29.8334 129.204 27.2523C129.204 24.6724 126.946 23.0496 124.655 23.0496ZM124.709 29.5736H121.764V24.9323H124.709C126.253 24.9323 127.134 26.1843 127.134 27.2523C127.134 28.2999 126.253 29.5736 124.709 29.5736ZM137.492 27.6285C135.998 27.6285 134.444 28.2728 133.805 29.7008L135.64 30.452C136.035 29.7008 136.761 29.4572 137.529 29.4572C138.602 29.4572 139.69 30.0865 139.706 31.1978V31.3399C139.332 31.1288 138.531 30.8161 137.546 30.8161C135.569 30.8161 133.556 31.8786 133.556 33.8615C133.556 35.6752 135.174 36.8433 136.994 36.8433C138.386 36.8433 139.153 36.2302 139.636 35.5169H139.706V36.5631H141.704V31.371C141.704 28.9712 139.869 27.6285 137.492 27.6285ZM137.242 35.0459C136.566 35.0459 135.623 34.7183 135.623 33.8994C135.623 32.8518 136.799 32.4498 137.816 32.4498C138.727 32.4498 139.154 32.6461 139.706 32.9046C139.544 34.1579 138.44 35.0459 137.242 35.0459ZM148.98 27.925L146.603 33.7925H146.532L144.075 27.925H141.845L145.537 36.1246L143.431 40.6873H145.591L151.281 27.925H148.98ZM130.34 36.5848H132.414V23.0496H130.34V36.5848Z" fill="white"/>
<defs>
<linearGradient id="paint0_linear_1948_3250" x1="36.0329" y1="38.8437" x2="16.6886" y2="19.0307" gradientUnits="userSpaceOnUse">
<stop stop-color="#00A0FF"/>
<stop offset="0.0066" stop-color="#00A1FF"/>
<stop offset="0.2601" stop-color="#00BEFF"/>
<stop offset="0.5122" stop-color="#00D2FF"/>
<stop offset="0.7604" stop-color="#00DFFF"/>
<stop offset="1" stop-color="#00E3FF"/>
</linearGradient>
<linearGradient id="paint1_linear_1948_3250" x1="50.2447" y1="25.8243" x2="21.6701" y2="25.8243" gradientUnits="userSpaceOnUse">
<stop stop-color="#FFE000"/>
<stop offset="0.4087" stop-color="#FFBD00"/>
<stop offset="0.7754" stop-color="#FFA500"/>
<stop offset="1" stop-color="#FF9C00"/>
</linearGradient>
<linearGradient id="paint2_linear_1948_3250" x1="39.6091" y1="23.1786" x2="13.3767" y2="-3.68943" gradientUnits="userSpaceOnUse">
<stop stop-color="#FF3A44"/>
<stop offset="1" stop-color="#C31162"/>
</linearGradient>
<linearGradient id="paint3_linear_1948_3250" x1="18.906" y1="48.6826" x2="30.6199" y2="36.685" gradientUnits="userSpaceOnUse">
<stop stop-color="#32A071"/>
<stop offset="0.0685" stop-color="#2DA771"/>
<stop offset="0.4762" stop-color="#15CF74"/>
<stop offset="0.8009" stop-color="#06E775"/>
<stop offset="1" stop-color="#00F076"/>
</linearGradient>
</defs>
</svg>
