<svg width="10" height="30" viewBox="0 0 10 30" fill="none" xmlns="http://www.w3.org/2000/svg">
<path d="M2.28141 22.1977C2.30881 21.4803 2.40151 20.9382 2.44591 20.3987C2.49041 19.8586 2.38651 18.4338 2.38651 18.4338C2.40941 17.3044 2.52171 16.5148 2.62491 16.0158C2.67261 15.4454 3.04281 14.0233 3.04281 14.0233C3.21591 13.1143 3.11731 12.5783 3.04281 12.0267C3.01871 11.846 2.86521 11.3416 2.74771 10.8871V10.8858C2.65431 10.5244 2.58441 10.194 2.62291 10.0854C2.40941 8.6768 1.88071 5.7144 2.02441 5.1521C2.19491 4.48519 3.82781 2.4369 4.17661 1.9359C4.21381 1.74777 4.42281 1.21643 4.48091 1.04516C4.54361 0.86107 4.58541 0.57652 4.59971 0.34996C4.62261 0.00741985 4.64281 0.00606985 4.69641 0.00269985L4.71141 0.0101099L4.72771 0C4.78131 0.00337 4.82571 -1.78814e-07 4.84791 0.34187C4.86231 0.5691 4.93411 0.86107 4.99751 1.04516C5.05561 1.21643 5.26461 1.74777 5.30181 1.9359C5.64991 2.43757 7.38341 4.50496 7.55381 5.1718C7.74651 5.9277 6.73001 10.8871 6.73001 10.8871C6.66671 11.2877 6.02541 12.7111 6.29441 13.879C6.62551 15.3119 6.70131 15.8634 6.71961 16.0428C7.34191 17.1985 9.19981 19.4269 9.46041 20.236C9.77451 21.2091 9.62821 21.7721 9.12471 22C8.78121 22.1551 4.80871 21.9287 4.58281 22.189C4.35751 22.4486 4.10541 23.0548 4.14781 23.4438C4.17661 23.7061 4.12691 23.8504 4.02901 23.8383C3.91931 24.696 3.56271 26.1754 3.50591 26.4445C3.44121 26.7459 3.50331 27.3001 3.50331 27.3001C3.49281 27.5004 3.65671 27.7317 3.70641 27.9879C3.75531 28.2448 3.47521 28.4565 3.39351 28.7984C3.31191 29.141 3.45431 29.3136 3.42161 29.4545C3.38901 29.5954 3.28121 29.7195 3.28121 29.7195C3.26881 29.8193 3.25121 29.9798 3.09701 29.9865C2.94291 29.9933 3.04741 29.7296 3.04741 29.7296C2.95861 29.9137 2.80971 30 2.80971 30C2.13511 29.9703 2.31471 29.7242 2.31471 29.7242C2.31471 29.7242 2.82861 28.2071 2.85081 27.7283C2.87301 27.2489 2.87301 26.5328 2.66861 25.5854C2.46421 24.64 2.25591 22.9165 2.28331 22.1984L2.28141 22.1977ZM4.75261 1.80239C4.75781 1.71136 4.75061 1.63651 4.74151 1.56571C4.73691 1.63381 4.73561 1.70664 4.75261 1.80239ZM6.44821 5.5198C6.41031 5.2615 5.98361 4.78883 5.72891 4.20624C5.46501 3.60275 5.13591 2.68773 5.04581 2.43285C5.04581 2.43285 4.90801 2.31418 4.80871 2.19483C4.77151 2.15032 4.75191 2.11526 4.74471 2.05929C4.72641 2.11256 4.69901 2.15639 4.66701 2.19483C4.56711 2.31485 4.42991 2.43285 4.42991 2.43285C4.33921 2.68706 4.01001 3.60208 3.74681 4.20624C3.49281 4.78883 3.16601 5.2417 3.12681 5.5C3.08891 5.7576 3.28711 6.6694 3.28711 6.6694C3.41381 7.308 3.53791 7.9378 3.62411 8.3734C3.79191 8.3889 4.13871 8.5898 4.13871 8.5898H4.16871C4.17791 8.4105 4.17201 8.1879 4.09621 8.1381C4.09621 8.1381 3.89771 7.8798 3.87751 7.573C3.86241 7.5339 3.84811 7.4718 3.83441 7.3984C3.79261 7.3849 3.75141 7.2972 3.72531 7.2358C3.69001 7.1529 3.63911 6.9365 3.62471 6.84C3.61101 6.7423 3.72531 6.7254 3.72921 6.7247C3.72921 6.7247 3.65081 6.2595 3.70831 6.0484C3.76581 5.838 4.01721 5.1725 4.68861 5.1718C5.65771 5.1718 5.87251 5.627 5.87191 6.397V6.5831L5.88231 6.5858C5.93001 6.6155 5.97051 6.7059 5.95681 6.8023C5.94311 6.8994 5.89211 7.1151 5.85691 7.1981C5.83471 7.2493 5.80271 7.3181 5.76871 7.3471C5.71521 7.6323 5.60221 8.0915 5.51471 8.0848C5.51471 8.0848 5.46241 8.2176 5.49701 8.5851C5.54861 8.5743 5.64531 8.5527 5.81701 8.5433C5.90131 8.1131 6.04301 7.3963 6.18731 6.6688C6.18731 6.6688 6.48541 5.7767 6.44691 5.5191L6.44821 5.5198ZM4.97461 21.3603C5.28871 21.2787 6.99711 20.7344 7.94071 20.7674C7.94071 20.7674 5.69231 19.0845 5.01381 18.0218L4.64221 17.9726C4.45021 19.067 4.05381 20.713 3.94801 21.0272C3.93491 21.0643 3.92641 21.1094 3.91991 21.1607C4.18641 21.1728 4.71471 21.427 4.97461 21.3603Z" fill="#B09684"/>
</svg>
