<svg width="55" height="30" viewBox="0 0 55 30" fill="none" xmlns="http://www.w3.org/2000/svg">
<path fill-rule="evenodd" clip-rule="evenodd" d="M26.4104 12.1771C29.0095 12.1771 31.1166 10.0701 31.1166 7.47093C31.1166 4.87181 29.0095 2.7648 26.4104 2.7648C23.8113 2.7648 21.7043 4.87181 21.7043 7.47093C21.7043 10.0701 23.8113 12.1771 26.4104 12.1771ZM26.4104 13.9419C29.9843 13.9419 32.8813 11.0447 32.8813 7.47093C32.8813 3.89713 29.9843 1 26.4104 1C22.8366 1 19.9395 3.89713 19.9395 7.47093C19.9395 11.0447 22.8366 13.9419 26.4104 13.9419Z" fill="#B09684"/>
<path fill-rule="evenodd" clip-rule="evenodd" d="M41.9982 12.1769C43.7852 12.1769 45.2337 10.7283 45.2337 8.94142C45.2337 7.15452 43.7852 5.70596 41.9982 5.70596C40.2114 5.70596 38.7628 7.15452 38.7628 8.94142C38.7628 10.7283 40.2114 12.1769 41.9982 12.1769ZM41.9982 13.9417C44.7598 13.9417 46.9985 11.703 46.9985 8.94142C46.9985 6.17985 44.7598 3.94116 41.9982 3.94116C39.2367 3.94116 36.998 6.17985 36.998 8.94142C36.998 11.703 39.2367 13.9417 41.9982 13.9417Z" fill="#B09684"/>
<path fill-rule="evenodd" clip-rule="evenodd" d="M12.0003 12.1769C13.7871 12.1769 15.2358 10.7283 15.2358 8.94142C15.2358 7.15452 13.7871 5.70596 12.0003 5.70596C10.2134 5.70596 8.7648 7.15452 8.7648 8.94142C8.7648 10.7283 10.2134 12.1769 12.0003 12.1769ZM12.0003 13.9417C14.7618 13.9417 17.0005 11.703 17.0005 8.94142C17.0005 6.17985 14.7618 3.94116 12.0003 3.94116C9.23869 3.94116 7 6.17985 7 8.94142C7 11.703 9.23869 13.9417 12.0003 13.9417Z" fill="#B09684"/>
<path fill-rule="evenodd" clip-rule="evenodd" d="M29.945 17.4705H24.0623C20.1635 17.4705 17.0031 20.631 17.0031 24.5297V26.8827H37.0041V24.5297C37.0041 20.631 33.8436 17.4705 29.945 17.4705ZM24.0623 15.7057C19.1889 15.7057 15.2383 19.6564 15.2383 24.5297V28.6476H38.769V24.5297C38.769 19.6564 34.8183 15.7057 29.945 15.7057H24.0623Z" fill="#B09684"/>
<path fill-rule="evenodd" clip-rule="evenodd" d="M18.7585 15.5751C17.8207 15.0939 16.7388 14.8219 15.5925 14.8219H8.40854C4.97154 14.8219 2 17.3154 2 20.6065V25.4107H14.2801V23.6459H3.7648V20.6065C3.7648 18.4829 5.74153 16.5867 8.40854 16.5867H15.5925C16.4593 16.5867 17.2649 16.7922 17.9527 17.1453L18.7585 15.5751Z" fill="#B09684"/>
<path fill-rule="evenodd" clip-rule="evenodd" d="M35.2422 15.5751C36.18 15.0939 37.2618 14.8219 38.4082 14.8219H45.5921C49.0291 14.8219 52.0007 17.3154 52.0007 20.6065V25.4107H39.7206V23.6459H50.2359V20.6065C50.2359 18.4829 48.2591 16.5867 45.5921 16.5867H38.4082C37.5413 16.5867 36.7358 16.7922 36.0479 17.1453L35.2422 15.5751Z" fill="#B09684"/>
</svg>
