<svg width="16" height="30" viewBox="0 0 16 30" fill="none" xmlns="http://www.w3.org/2000/svg">
<g clip-path="url(#clip0_707_8)">
<path d="M16.6292 4.99298C16.6292 4.99298 16.6229 4.98041 16.6187 4.97413C16.6166 4.96994 16.6125 4.96575 16.6104 4.95947C16.6041 4.95109 16.5978 4.94062 16.5915 4.93015C16.5873 4.92387 16.5852 4.91968 16.5789 4.91131C16.5685 4.89455 16.5538 4.87571 16.5392 4.85477C16.5329 4.84639 16.5245 4.83592 16.5161 4.82754C16.5057 4.81498 16.4952 4.80032 16.4826 4.78566C16.4721 4.7731 16.4617 4.76053 16.4512 4.74797C16.4386 4.73331 16.4261 4.72074 16.4114 4.70608C16.3989 4.69352 16.3863 4.67886 16.3716 4.6642C16.3528 4.64536 16.3318 4.62651 16.313 4.60766C16.29 4.58672 16.2648 4.56369 16.2376 4.54275C16.2188 4.52599 16.1999 4.51133 16.179 4.49458C16.158 4.47783 16.1371 4.46108 16.1141 4.44642C16.0952 4.43176 16.0743 4.4171 16.0533 4.40244C16.0282 4.38569 16.0031 4.36894 15.9758 4.35009C15.9528 4.33543 15.9298 4.32287 15.9067 4.30821C15.8565 4.2768 15.802 4.24748 15.7455 4.21816C15.7204 4.2035 15.6931 4.19094 15.6659 4.17628C15.6303 4.15953 15.5926 4.14277 15.557 4.12602C15.5298 4.11346 15.5005 4.10089 15.4712 4.08833C15.4314 4.07157 15.3895 4.05482 15.3476 4.04016C15.3371 4.03597 15.3288 4.03179 15.3204 4.02969C15.0126 3.91661 14.6419 3.82447 14.1875 3.77421C13.9236 3.90614 13.8797 3.99409 13.8797 3.99409L13.9236 3.90614C13.9236 3.90614 13.331 3.96478 12.8808 4.16581C12.8808 4.16581 12.8829 4.16581 12.885 4.16371C12.8703 4.17 12.8577 4.17628 12.8431 4.18466C12.8389 4.18675 12.8326 4.18884 12.8284 4.19094C12.7907 4.20978 12.753 4.22863 12.7174 4.25167C12.7174 4.25167 12.7153 4.25167 12.7132 4.25376C12.6797 4.27261 12.6504 4.29355 12.6211 4.31449C12.6148 4.31868 12.6085 4.32496 12.6023 4.32915C12.5729 4.35218 12.5436 4.37731 12.5206 4.40244C12.4976 4.42757 12.4766 4.45479 12.4578 4.48202C12.4536 4.4883 12.4494 4.49458 12.4452 4.50086C12.4285 4.53018 12.4138 4.5595 12.4033 4.59091L12.3363 4.45898L11.8023 4.82126L11.8505 4.63698L11.6076 4.61395L11.8505 4.52599L12.2253 3.31351L11.9824 3.20253L12.33 3.2486C12.33 3.2486 12.3531 3.20253 12.3949 3.12714C12.5185 2.90098 12.8033 2.41515 13.13 2.10103L12.9687 1.93979L13.1781 2.05915C13.1781 2.05915 13.7017 1.32203 13.9739 1.16707L13.8629 0.932529L14.0388 1.09377C14.0388 1.09377 14.5058 0.099079 14.9623 0.00274904C14.9623 0.00274904 14.311 -0.0412308 13.0001 0.222629L13.0106 0.398529L12.8996 0.321049C12.8996 0.321049 11.9698 0.758719 11.6767 1.12518C11.6557 1.17544 11.639 1.22151 11.6222 1.26339C11.6222 1.26758 11.6222 1.26968 11.618 1.27386C11.6055 1.30946 11.5929 1.34297 11.5845 1.37019C11.5845 1.37019 11.5845 1.37229 11.5845 1.37438C11.5741 1.4037 11.5678 1.42673 11.5615 1.44767C11.5552 1.47071 11.551 1.48537 11.5489 1.49584C11.5489 1.49584 11.5489 1.49723 11.5489 1.50003L11.5447 1.51259L11.4421 1.27805C11.4421 1.27805 11.0024 1.64661 10.6924 2.35023C10.7804 2.58477 10.7657 2.65806 10.7657 2.65806L10.5898 2.45284C10.5898 2.45284 10.504 2.55336 10.4202 2.79418C10.416 2.80884 10.4097 2.82559 10.4056 2.84025C10.4014 2.85281 10.3972 2.86328 10.3951 2.87585C10.3888 2.89469 10.3846 2.91145 10.3783 2.93239C10.3741 2.94914 10.37 2.96589 10.3637 2.98474C10.3595 3.00359 10.3553 3.02034 10.349 3.04128C10.3406 3.07688 10.3323 3.11248 10.326 3.15227C10.3218 3.16902 10.3197 3.18577 10.3176 3.20462C10.3134 3.23394 10.3071 3.26325 10.3029 3.29467C10.3009 3.31351 10.2967 3.33236 10.2946 3.3533C10.2904 3.39099 10.2862 3.42869 10.282 3.46847C10.282 3.48313 10.2799 3.4957 10.2778 3.51036C10.2736 3.5648 10.2694 3.62134 10.2673 3.67788C10.2673 3.69464 10.2673 3.71348 10.2673 3.73233C10.2673 3.75746 10.2653 3.78259 10.2653 3.80981C9.9721 3.26535 9.5616 2.67691 9.5616 2.67691L9.1952 2.70622L9.2978 2.5743C9.1219 2.26646 8.9146 2.11778 8.9146 2.11778L8.6947 2.17642L8.8413 1.94188C8.1502 1.42673 7.6644 1.35344 7.6644 1.35344L7.4152 1.58798C7.4152 1.58798 7.4298 1.51468 7.5031 1.2948C6.0771 1.11681 5.1159 1.61101 4.6363 2.12825C4.6279 2.13035 4.6217 2.13244 4.6217 2.13244C4.6217 2.13244 4.6279 2.13244 4.6342 2.12825C4.5588 2.20783 4.496 2.2895 4.4437 2.36698C5.1347 2.20574 5.8991 2.54289 5.8991 2.54289L6.2509 2.41096L6.1189 2.58686L6.9419 3.07269L7.4424 2.86747C7.4424 2.86747 7.3838 2.94076 7.1932 3.11667C7.3838 3.23394 8.0455 3.88101 8.0455 3.88101L8.6046 3.63181C8.6046 3.63181 8.6193 3.71977 8.3261 3.98572C8.3596 3.9899 8.3889 3.99828 8.4141 4.00456C8.4245 4.00875 8.435 4.01085 8.4455 4.01503C8.4601 4.02132 8.4748 4.0255 8.4895 4.02969C8.4999 4.03388 8.5104 4.03807 8.5188 4.04226C8.5292 4.04854 8.5397 4.05273 8.5481 4.05692C8.5565 4.0632 8.5648 4.06739 8.5732 4.07157C8.5816 4.07576 8.5879 4.08204 8.5942 4.08623C8.6004 4.09042 8.6088 4.0967 8.613 4.10089C8.6193 4.10508 8.6235 4.10927 8.6277 4.11555C8.6319 4.11974 8.6381 4.12393 8.6423 4.13021C8.6465 4.1344 8.6507 4.13859 8.6528 4.14277C8.6549 4.14696 8.6591 4.15115 8.6612 4.15324C8.6633 4.15743 8.6654 4.15953 8.6675 4.16371C8.6675 4.16371 8.6696 4.1679 8.6716 4.17C8.6716 4.17418 8.6737 4.17628 8.6737 4.17628L8.9543 4.07367L8.7198 4.29355C8.9355 4.43176 9.2056 4.83801 9.3585 5.0935C9.369 5.1102 9.3774 5.1249 9.3857 5.1396C9.3941 5.1521 9.4004 5.1647 9.4067 5.1752C9.4192 5.1961 9.4297 5.2149 9.4402 5.2317C9.4465 5.2422 9.4506 5.2505 9.4548 5.2589C9.459 5.2673 9.4653 5.2757 9.4674 5.282C9.4695 5.2861 9.4737 5.2924 9.4758 5.2945C9.4779 5.2987 9.4821 5.305 9.4821 5.305L9.7166 5.2757L9.614 5.4223C9.8611 5.5626 10.2045 6.0505 10.4391 6.417C10.4202 6.4002 10.3993 6.3814 10.3783 6.3646C10.3783 6.3646 10.3762 6.3625 10.3741 6.3604C10.3365 6.329 10.2946 6.2976 10.2527 6.2662C10.2464 6.262 10.2422 6.2578 10.2359 6.2536C10.148 6.1908 10.0496 6.1301 9.9365 6.0714C9.9281 6.0672 9.9197 6.0631 9.9114 6.0589C9.8548 6.0296 9.7962 6.0023 9.7334 5.9751C9.7271 5.973 9.7208 5.9709 9.7145 5.9667C9.6559 5.9416 9.593 5.9186 9.5302 5.8955C9.5198 5.8913 9.5093 5.8872 9.4988 5.8851C9.4297 5.862 9.3585 5.839 9.2831 5.8201C9.2768 5.8201 9.2706 5.816 9.2643 5.8139C9.2643 5.8139 9.2664 5.8139 9.2685 5.8139C8.9062 5.7154 8.4643 5.6484 7.9261 5.638V5.8725L7.7502 5.6966C7.7502 5.6966 7.2204 5.7259 6.1922 6.3143L6.3681 6.6075L6.0163 6.373C6.0163 6.373 5.0761 6.9028 4.7515 7.108L4.8101 7.4012L4.6049 7.2839C4.6049 7.2839 4.4123 7.4075 4.1693 7.6546C4.1693 7.6546 4.1693 7.6567 4.1672 7.6588C4.1107 7.7153 4.0521 7.7802 3.9913 7.8514C3.9913 7.8514 3.9872 7.8556 3.9872 7.8577C3.9264 7.9289 3.8657 8.0064 3.805 8.0901C3.805 8.0901 3.8029 8.0943 3.8008 8.0964C3.7401 8.1823 3.6814 8.2723 3.6249 8.3708C3.6249 8.3708 3.6249 8.3749 3.6228 8.377C3.5662 8.4775 3.5118 8.5823 3.4615 8.6974C3.5139 8.8042 3.5202 8.8712 3.5076 8.9152C3.5013 8.9341 3.4929 8.9466 3.4825 8.9571C3.4825 8.9571 3.4804 8.9592 3.4783 8.9613C3.4699 8.9697 3.4594 8.9759 3.449 8.9801C3.4469 8.9801 3.4427 8.9822 3.4406 8.9843C3.4322 8.9885 3.4238 8.9906 3.4176 8.9906C3.4176 8.9906 3.4134 8.9906 3.4113 8.9906C3.405 8.9906 3.4008 8.9906 3.4008 8.9906C3.4008 8.9906 2.6071 10.3434 3.4888 11.9014C3.8406 10.9905 4.4164 10.5319 4.4164 10.5319L4.274 10.2261L4.4583 10.3497L5.0091 9.5937L4.8855 9.3487L5.0907 9.4094L6.0519 8.532L5.9284 8.1027L6.1734 8.3896C6.1734 8.3896 6.3975 8.1634 6.5817 8.0839V7.8786L6.7241 8.0022C6.7241 8.0022 7.501 7.4305 7.9094 7.3279L7.9513 7.041L8.0539 7.1834C8.0539 7.1834 8.4141 7.0201 8.8622 6.9991C8.879 6.9991 8.8957 6.9991 8.9146 6.9991C8.9732 6.9991 9.0339 6.9991 9.0967 7.0033L9.1994 6.7792L9.2601 6.9426C9.2601 6.9426 9.4046 6.9384 9.6077 6.9405C9.6077 6.9405 9.6056 6.9405 9.6035 6.9405C9.5784 6.9468 9.5554 6.953 9.5302 6.9614C9.5177 6.9656 9.5051 6.9698 9.4946 6.9719C9.4674 6.9803 9.4423 6.9907 9.415 7.0012C9.4067 7.0033 9.4004 7.0075 9.392 7.0096C9.0591 7.1499 8.7072 7.4284 8.4078 7.9582L8.569 7.9771L8.2989 8.1383L8.3533 8.264C8.3533 8.264 7.922 9.0932 7.8319 9.6146L8.0665 9.6691L7.8508 9.8136L7.9576 9.8324C7.9576 9.8324 7.9157 9.8555 7.8696 9.9267C7.8696 9.9267 7.8696 9.9267 7.8696 9.9288C7.8487 9.9602 7.8256 10.0041 7.8068 10.0586C7.8068 10.0628 7.8047 10.067 7.8026 10.0712C7.7942 10.0942 7.7879 10.1193 7.7796 10.1465C7.7796 10.1549 7.7754 10.1633 7.7733 10.1717C7.767 10.1989 7.7607 10.2282 7.7565 10.2596C7.7565 10.268 7.7544 10.2743 7.7523 10.2827C7.7461 10.3245 7.7419 10.3685 7.7398 10.4167C7.7398 10.423 7.7398 10.4292 7.7398 10.4334C7.7398 10.4753 7.7377 10.5214 7.7398 10.5695C7.7398 10.5842 7.7398 10.601 7.7398 10.6177C7.7398 10.6617 7.744 10.7057 7.7481 10.7538C7.7481 10.7727 7.7502 10.7894 7.7523 10.8083C7.7586 10.869 7.767 10.9297 7.7775 10.9967C7.7775 10.9967 7.7775 11.0093 7.7796 11.0177L7.9052 11.0365L7.744 11.3255L7.8885 11.38C7.8885 11.38 7.9659 12.4186 8.3366 13.3694C8.2842 13.5955 8.2528 13.7002 8.2528 13.7002L8.1649 13.4678C8.1649 13.4678 7.989 13.6248 7.7838 13.9725C7.7838 13.9599 7.7837 13.9473 7.7858 13.9369C7.7858 13.9243 7.7879 13.9117 7.7879 13.8971C7.7921 13.8259 7.7942 13.7568 7.7942 13.6877C7.7942 13.6667 7.7942 13.6458 7.7942 13.6248C7.7942 13.5767 7.7942 13.5306 7.7921 13.4845C7.7921 13.4615 7.7921 13.4406 7.79 13.4196C7.7879 13.3735 7.7858 13.3317 7.7817 13.2877C7.7817 13.2709 7.7796 13.2542 7.7775 13.2395C7.7733 13.183 7.767 13.1285 7.7607 13.0783C7.7607 13.072 7.7607 13.0678 7.7586 13.0615C7.7523 13.0175 7.7482 12.9757 7.7419 12.938C7.7398 12.9233 7.7377 12.9107 7.7356 12.8961C7.7335 12.8814 7.7314 12.8668 7.7293 12.8542C7.7042 12.7139 7.6832 12.626 7.6832 12.626H7.434L7.6393 12.5233L7.3754 11.8616L7.2288 11.8176L7.2581 11.6857L7.0822 11.2459L6.8917 11.2753L6.965 11.0554C6.3619 10.0712 5.1431 9.7466 5.1431 9.7466L5.2604 10.5402H5.4802L5.319 10.7161L5.5535 11.5684L5.8321 11.5831L5.6268 11.7737L5.7881 12.3328L6.008 12.3914C6.008 12.3914 6.008 12.3914 5.8551 12.5296C5.853 12.5317 5.8488 12.5359 5.8467 12.538C6.1106 12.9338 6.2027 13.6248 6.2299 13.9494C6.2299 13.9536 6.2299 13.9578 6.2299 13.962C6.2299 13.9662 6.2299 13.9683 6.2299 13.9725C5.9765 13.7777 5.7713 13.6709 5.7713 13.6709L5.8153 13.495L5.5221 13.583L5.5954 13.4217C5.5096 13.3631 5.4132 13.3107 5.3106 13.2626C5.2939 13.2542 5.275 13.2479 5.2583 13.2395C5.2248 13.2249 5.1913 13.2102 5.1557 13.1955C5.1347 13.1872 5.1138 13.1788 5.0928 13.1704C5.0614 13.1579 5.0279 13.1453 4.9965 13.1348C4.9714 13.1264 4.9483 13.1181 4.9232 13.1097C4.8939 13.0992 4.8625 13.0887 4.8332 13.0804C4.8059 13.072 4.7808 13.0636 4.7536 13.0573C4.7264 13.049 4.6991 13.0406 4.6719 13.0343C4.6426 13.0259 4.6112 13.0175 4.5819 13.0113C4.5588 13.005 4.5358 12.9987 4.5149 12.9945C4.4793 12.9861 4.4458 12.9778 4.4123 12.9715C4.4018 12.9694 4.3913 12.9673 4.3829 12.9652C3.9348 12.8668 3.5704 12.8333 3.5704 12.8333L3.16 13.0971C3.16 13.0971 3.204 13.0385 3.2626 12.8626C2.9087 12.8626 2.5569 12.9799 2.5569 12.9799L2.3663 13.3044L2.3956 13.0552L1.6166 13.2605L1.3968 13.6269L1.3674 13.3631C0.8083 13.7735 0.0586 14.7305 0 15.6268C0.1612 15.4069 0.6471 15.2436 0.6471 15.2436L0.7057 14.8624L0.7937 15.1849L1.0429 15.1556L1.1748 14.7452L1.2041 15.0677L1.9538 14.9064L2.0271 14.2887L2.1883 14.7159L2.5401 14.6279L2.6134 14.3054L2.6721 14.6719L3.4071 14.7305L3.5683 14.4227L3.539 14.7745L4.0395 14.8624L4.3327 14.452L4.2594 14.9671C4.4458 14.9881 4.9148 15.1493 5.1431 15.2289C5.1557 15.2331 5.1682 15.2373 5.1787 15.2415C5.1536 15.2478 5.1263 15.254 5.1012 15.2624L5.1117 15.2457C5.1117 15.2457 5.1075 15.2457 5.1012 15.2457C5.097 15.2457 5.0887 15.2457 5.0761 15.2415C5.0761 15.2415 5.0761 15.2415 5.074 15.2415C4.8185 15.208 3.1998 15.0488 1.7025 16.2906L1.7318 16.4665L1.4826 16.4958L1.5413 16.6278L0.9821 17.011L1.0261 17.1136C1.0261 17.1136 0.9026 17.212 0.7602 17.4654C0.7413 17.4968 0.7225 17.5324 0.7036 17.5701C0.6973 17.5827 0.6911 17.5952 0.6848 17.6078C0.6638 17.6497 0.645 17.6937 0.624 17.7418C0.6199 17.7523 0.6157 17.7649 0.6115 17.7753C0.5947 17.8193 0.5759 17.8654 0.5591 17.9156C0.5549 17.9282 0.5507 17.9429 0.5445 17.9554C0.5256 18.0141 0.5068 18.0748 0.4879 18.1418C0.4837 18.1585 0.4795 18.1753 0.4754 18.1921C0.4586 18.2591 0.4419 18.3282 0.4251 18.4036C0.4251 18.4077 0.423 18.4119 0.4209 18.4182C0.4042 18.4957 0.3916 18.5795 0.379 18.6674C0.3769 18.6884 0.3727 18.7072 0.3707 18.7281C0.3581 18.8161 0.3476 18.9082 0.3392 19.0046C0.3392 19.0213 0.3371 19.0381 0.3351 19.0548C0.3267 19.1449 0.3225 19.2391 0.3183 19.3396C0.3183 19.3585 0.3183 19.3752 0.3162 19.3941C0.3141 19.503 0.312 19.6181 0.3162 19.7354C0.3162 19.7605 0.3162 19.7878 0.3162 19.8129C0.3162 19.905 0.3225 19.9972 0.3267 20.0956C0.3267 20.1019 0.3267 20.1123 0.3267 20.1186C0.3267 20.171 0.3309 20.2003 0.3309 20.2003C0.3309 20.2003 0.3309 20.1877 0.3309 20.1689C0.3309 20.1793 0.3309 20.1898 0.3309 20.2003C0.3727 20.1186 0.4167 20.039 0.4565 19.9637C0.4691 19.9427 0.4795 19.9218 0.4921 19.9008C0.5235 19.8443 0.5549 19.7898 0.5863 19.7375C0.5968 19.7186 0.6073 19.7019 0.6178 19.6831C0.6994 19.549 0.779 19.4255 0.8565 19.3166C0.867 19.3019 0.8753 19.2894 0.8858 19.2768C0.9151 19.2349 0.9444 19.1951 0.9717 19.1574C0.9821 19.1449 0.9905 19.1323 1.001 19.1176C1.0366 19.0716 1.0722 19.0255 1.1057 18.9857C1.1392 18.9438 1.1727 18.9061 1.2041 18.8684C1.2146 18.858 1.223 18.8454 1.2334 18.8349C1.2544 18.8098 1.2774 18.7868 1.2983 18.7658C1.3088 18.7554 1.3193 18.7428 1.3298 18.7344C1.3507 18.7114 1.3716 18.6905 1.3926 18.6716C1.4051 18.6611 1.4156 18.6486 1.4282 18.6381C1.447 18.6213 1.4638 18.6046 1.4805 18.5878C1.4931 18.5774 1.5057 18.5669 1.5161 18.5564C1.5245 18.5481 1.535 18.5418 1.5433 18.5334C1.5559 18.5229 1.5685 18.5125 1.581 18.502C1.5831 18.502 1.5873 18.4978 1.5894 18.4957C1.602 18.4852 1.6166 18.4748 1.6271 18.4664C1.7004 18.4119 1.7402 18.3889 1.7402 18.3889L1.5789 18.1104L1.7695 18.2277C1.7695 18.2277 2.4752 17.6706 2.7537 17.5659L2.7098 17.2434L2.827 17.434L2.915 17.2874L2.9736 17.3314L3.6333 17.0571C3.5851 17.0885 3.5223 17.1324 3.4385 17.1953C3.294 17.679 3.2856 18.9396 3.2835 19.0967V19.1135L3.5034 19.015L3.294 19.4674C3.2856 19.8359 3.4532 20.4348 3.5076 20.6212C3.5181 20.6589 3.5265 20.6798 3.5265 20.6798L3.7149 20.6024L3.583 20.8013L3.6605 21.1531L3.8594 21.0652L3.717 21.285C3.7819 21.7478 4.1903 22.3991 4.1903 22.3991L4.3997 22.4096L4.2887 22.6085C4.5086 23.1488 5.5661 24.2356 5.5661 24.2356C5.5012 24.0053 5.4111 23.3498 5.4111 23.3498L5.2708 23.3121L5.4111 23.1446L5.3211 23.042L5.5263 23.0797L5.3965 21.8463L5.1536 21.7436L5.3462 21.6033L5.0761 21.4358L5.5263 21.4107L5.5766 20.215L5.4991 20.0726L5.6268 19.9574L5.409 19.7647H5.7441L6.0645 18.5564L5.9242 18.3261L6.1294 18.3889L6.4372 17.6057L6.2446 17.2602L6.6299 17.478L7.0362 16.9188C7.1576 17.2434 7.3901 17.8717 7.4864 18.2109C7.5199 18.1962 7.545 18.1837 7.5722 18.1711C7.5722 18.1753 7.5743 18.1774 7.5764 18.1816C7.5869 18.2109 7.5974 18.2423 7.6099 18.2758C7.6141 18.2863 7.6183 18.2968 7.6204 18.3072C7.7858 18.7952 8.0455 19.6495 8.0455 20.2108C8.1083 20.1919 8.1565 20.1773 8.2005 20.1626C8.2089 20.2212 8.2193 20.2882 8.2298 20.3657C8.3094 20.9248 8.4287 21.907 8.3973 22.6064C8.4413 22.6106 8.4769 22.6148 8.5125 22.619C8.5125 22.7048 8.5083 22.8116 8.5062 22.9331C8.4874 23.6074 8.4392 24.7319 8.3115 25.2659C8.3617 25.2764 8.4057 25.2848 8.4434 25.2931L8.2528 27.7202H8.3617L8.2172 28.3484C8.2109 28.3589 8.2068 28.3673 8.2068 28.3673C8.2068 28.3673 8.2068 28.0008 7.8403 27.4856C8.0602 27.9254 7.9869 28.3819 7.9869 28.3819C7.9869 28.3819 7.8989 27.8375 7.501 27.7642C7.7649 27.8961 7.9115 28.6604 7.9115 28.6604C7.7649 28.2039 7.1618 28.1013 7.1618 28.1013C7.1618 28.1013 7.8529 28.6604 7.8235 29.0562C7.6623 28.629 7.2351 28.5578 7.2351 28.5578C7.2351 28.5578 7.5576 28.8363 7.6476 29.3368C7.6414 29.3243 7.6351 29.3096 7.6288 29.2929C7.6225 29.2824 7.6162 29.2698 7.6099 29.2593C7.6078 29.2531 7.6037 29.2489 7.6016 29.2447C7.5932 29.2321 7.5848 29.2175 7.5764 29.2049C7.5743 29.2007 7.5702 29.1965 7.5681 29.1902C7.5597 29.1756 7.5492 29.1609 7.5387 29.1463C7.5346 29.14 7.5325 29.1358 7.5283 29.1316C7.5178 29.1169 7.5052 29.1023 7.4948 29.0876C7.4906 29.0813 7.4864 29.0772 7.4822 29.0709C7.4696 29.0562 7.4571 29.0416 7.4445 29.0269C7.4382 29.0206 7.434 29.0143 7.4278 29.0081C7.4152 28.9934 7.4005 28.9787 7.3859 28.9641C7.3796 28.9578 7.3733 28.9515 7.367 28.9452C7.3524 28.9306 7.3377 28.918 7.323 28.9033C7.3168 28.8971 7.3084 28.8908 7.3021 28.8845C7.2874 28.8719 7.2707 28.8594 7.2539 28.8447C7.2456 28.8384 7.2393 28.8342 7.2309 28.828C7.2142 28.8154 7.1974 28.8049 7.1807 28.7924C7.1723 28.7882 7.1639 28.784 7.1576 28.7777C7.1388 28.7672 7.122 28.7568 7.1032 28.7463C7.0948 28.7421 7.0885 28.74 7.0801 28.7358C7.0613 28.7274 7.0403 28.717 7.0194 28.7086C7.0131 28.7086 7.0089 28.7044 7.0027 28.7023C6.9273 28.6751 6.8477 28.6583 6.7639 28.6604C6.7618 28.6604 6.7576 28.6604 6.7555 28.6604C6.7346 28.6604 6.7137 28.6646 6.6948 28.6667C6.6844 28.6667 6.6739 28.6667 6.6634 28.6688C6.6236 28.6751 6.5838 28.6856 6.542 28.7002C7.1178 28.7002 7.3691 29.2489 7.4508 29.4876C7.1492 29.5023 6.7053 29.542 6.1399 29.653C5.0258 29.8687 7.0801 29.6761 8.7093 29.8101C10.3385 29.942 12.5855 30.0928 12.0369 29.9085C11.4882 29.7263 11.7667 29.7368 13.1132 29.8017C14.2964 29.8603 13.4315 29.519 12.3803 29.4248C12.5939 29.3222 12.8682 29.2154 13.0692 29.2363C12.7907 29.1484 12.5227 29.1735 12.3845 29.1944C12.3845 29.1756 12.3887 29.1567 12.3887 29.1358C12.5792 28.9955 13.0106 28.7086 13.354 28.6981C12.8096 28.6542 12.4871 28.7568 12.4871 28.7568C12.4871 28.7568 12.8829 28.3149 13.3834 28.2709C13.3834 28.2709 12.9478 28.1809 12.4452 28.3484C12.4494 28.2982 12.4515 28.2458 12.4536 28.1935C12.7258 27.9275 13.0357 27.6762 13.0357 27.6762C13.0357 27.6762 12.7447 27.6595 12.4682 27.871C12.4703 27.8102 12.4724 27.7495 12.4745 27.6888C12.6588 27.3432 12.8515 27.0731 12.8515 27.0731C12.8515 27.0731 12.6902 27.1338 12.4829 27.2867C12.4829 27.1799 12.4829 27.0815 12.4766 26.9914C12.4766 26.9893 12.4766 26.9852 12.4766 26.9831C12.4766 26.9537 12.4724 26.9244 12.4703 26.8993C12.5185 26.4428 12.6085 25.5298 12.6295 24.8848H12.6672C12.6672 24.8848 12.8494 23.6953 12.6065 22.7383C12.5918 22.6797 12.575 22.6232 12.5562 22.5666L12.82 22.619C12.82 22.619 12.8892 21.8148 12.7572 21.0296C12.7572 21.0296 12.7572 21.0275 12.7572 21.0254C12.7572 21.0212 12.7551 21.017 12.7551 21.0128C12.7488 20.973 12.7405 20.9332 12.7321 20.8913C12.7321 20.8913 12.73 20.8788 12.7279 20.8746L12.8389 20.862L13.042 20.839C13.042 20.839 13.0274 20.3929 12.9918 19.8883C12.9918 19.8757 12.9918 19.8631 12.9897 19.8527C12.9855 19.7982 12.9813 19.7417 12.9771 19.6872C12.9771 19.6663 12.9729 19.6433 12.9708 19.6223C12.9666 19.5763 12.9624 19.5302 12.9583 19.4841C12.9562 19.459 12.9541 19.4359 12.952 19.4108C12.9478 19.3689 12.9436 19.3271 12.9394 19.2852C12.9373 19.26 12.9331 19.2349 12.931 19.2119C12.9268 19.1721 12.9227 19.1344 12.9164 19.0967C12.9143 19.0716 12.9101 19.0485 12.9059 19.0255C12.9017 18.9878 12.8954 18.9522 12.8892 18.9187C12.8892 18.9082 12.885 18.8957 12.885 18.8852C12.885 18.8852 12.885 18.881 12.885 18.8789C12.885 18.8705 12.8829 18.8643 12.8808 18.8559C12.8745 18.8224 12.8682 18.7931 12.864 18.7637C12.8619 18.7491 12.8577 18.7323 12.8556 18.7177C12.8556 18.7156 12.8556 18.7114 12.8556 18.7093C12.8515 18.6946 12.8494 18.6842 12.8452 18.6716L12.8766 18.659L13.0692 18.5816C13.0692 18.5816 13.0692 18.5229 13.0651 18.4266C13.1425 18.4789 13.2242 18.5376 13.3122 18.6067C13.3226 18.6151 13.3331 18.6234 13.3436 18.6318C13.3771 18.659 13.4106 18.6863 13.4462 18.7156C13.4629 18.7302 13.4797 18.7449 13.4964 18.7596C13.5258 18.7847 13.5551 18.8119 13.5844 18.8391C13.6032 18.858 13.6221 18.8768 13.6409 18.8936C13.6702 18.9208 13.6975 18.9501 13.7268 18.9794C13.7456 19.0004 13.7666 19.0213 13.7875 19.0402C13.8168 19.0716 13.8462 19.103 13.8755 19.1365C13.8943 19.1574 13.9153 19.1805 13.9341 19.2014C13.9655 19.2391 13.999 19.2789 14.0304 19.3187C14.0472 19.3396 14.0639 19.3606 14.0807 19.3815C14.1289 19.4443 14.1791 19.5092 14.2273 19.5763L14.3445 19.415L14.3885 19.5763C14.3885 19.5763 14.7571 19.4883 14.977 20.1354C14.977 20.1354 15.3602 19.2244 15.0356 17.8423L14.8744 17.8717L14.9037 17.6518C14.9037 17.6518 14.8974 17.6413 14.8848 17.6266C14.8848 17.6266 14.8827 17.6225 14.8806 17.6204C14.8744 17.612 14.8681 17.6036 14.8597 17.5931C14.7529 17.4507 14.4828 17.101 14.332 17.0068L14.2147 17.1534V16.9042C14.2147 16.9042 13.5823 16.3157 13.3771 16.1692C13.3184 16.3597 13.2451 16.433 13.2451 16.433L13.2745 16.0372L13.0148 15.9242C13.0064 15.6058 12.9792 15.1242 12.9101 14.6279C12.9289 14.6321 12.9457 14.6384 12.9624 14.6426C13.0839 14.4436 13.0839 14.3996 13.0839 14.3996V14.6195C13.0839 14.6195 13.4211 14.6886 13.8022 14.8415C13.8294 14.852 13.8587 14.8645 13.8859 14.8771C13.9006 14.8834 13.9174 14.8897 13.932 14.898C13.9592 14.9106 13.9844 14.9232 14.0116 14.9357C14.0283 14.9441 14.0472 14.9525 14.0639 14.9609C14.0891 14.9734 14.1121 14.986 14.1372 14.9986C14.1561 15.009 14.1749 15.0195 14.1959 15.03C14.2189 15.0425 14.2398 15.0551 14.2608 15.0677C14.2817 15.0802 14.3027 15.0928 14.3215 15.1075C14.3404 15.12 14.3613 15.1326 14.3781 15.1451C14.4011 15.1619 14.422 15.1766 14.443 15.1933C14.4576 15.2059 14.4744 15.2163 14.489 15.2289C14.5142 15.2499 14.5351 15.2708 14.5581 15.2917C14.5686 15.3022 14.5812 15.3127 14.5917 15.3231C14.6231 15.3546 14.6545 15.3881 14.6817 15.4237C14.6608 15.1598 14.6273 15.0593 14.6273 15.0593C14.6273 15.0593 14.9246 15.5556 14.9476 15.698C14.9476 15.698 14.9853 15.4949 14.9539 15.1787C14.9623 15.2059 14.9644 15.2226 14.9644 15.2226C14.9644 15.2226 14.9602 15.2038 14.9518 15.1724C14.9079 14.718 14.7173 14.0311 14.0639 13.3694L13.8441 13.4133L13.8985 13.2814C13.8985 13.2814 13.8943 13.2772 13.8859 13.2709C13.8859 13.2709 13.8838 13.2709 13.8797 13.2667C13.8713 13.2605 13.8587 13.2521 13.8441 13.2437C13.8399 13.2416 13.8378 13.2395 13.8336 13.2353C13.8168 13.2249 13.798 13.2102 13.775 13.1955C13.7708 13.1934 13.7687 13.1914 13.7645 13.1893C13.7414 13.1746 13.7142 13.1579 13.6849 13.139C13.6807 13.1369 13.6765 13.1327 13.6723 13.1306C13.4441 12.9882 13.0672 12.7809 12.6776 12.6657C12.6106 12.2469 12.5185 11.7443 12.4075 11.2564C12.4075 11.2564 12.4075 11.2543 12.4075 11.2522C12.4075 11.2459 12.4054 11.2418 12.4033 11.2355C12.3887 11.1747 12.374 11.114 12.3593 11.0533C12.3552 11.0386 12.351 11.024 12.3468 11.0072C12.3405 10.9821 12.3342 10.9549 12.3279 10.9297L12.3573 10.9067L12.4641 10.8271C12.4641 10.8271 12.351 10.49 12.2023 10.0712C12.1709 9.9811 12.1374 9.889 12.1018 9.7947C12.0871 9.7529 12.0704 9.7089 12.0557 9.667C12.0494 9.6481 12.041 9.6293 12.0348 9.6125C12.0159 9.5602 11.9971 9.5078 11.9761 9.4576C11.9698 9.4408 11.9636 9.4241 11.9573 9.4073C11.9384 9.355 11.9175 9.3047 11.8986 9.2545C11.8924 9.2377 11.8861 9.223 11.8798 9.2063C11.861 9.1581 11.8421 9.11 11.8233 9.0639C11.817 9.0471 11.8107 9.0325 11.8044 9.0178C11.7877 8.9739 11.7688 8.9341 11.7521 8.8922C11.75 8.8859 11.7458 8.8775 11.7437 8.8712C11.7437 8.8712 11.7437 8.8691 11.7437 8.8671C11.7416 8.8608 11.7374 8.8545 11.7353 8.8461C11.7186 8.8084 11.7039 8.7728 11.6871 8.7414C11.685 8.7372 11.683 8.7309 11.6809 8.7267L11.8065 8.6702L11.6411 8.3582C11.6871 8.3812 11.729 8.398 11.7625 8.4084L11.9384 8.1006L11.9154 8.4964L12.2023 8.7833L12.4452 8.5194L12.3363 8.8461C12.3363 8.8461 12.8954 9.4848 13.1781 9.935C13.1928 9.9581 13.2054 9.979 13.2179 10C13.2263 10.0125 13.2326 10.0251 13.2389 10.0377C13.2577 10.0691 13.2724 10.1005 13.287 10.1277C13.4525 10.0335 13.509 10.0062 13.509 10.0062L13.4378 10.2031C13.4378 10.2031 13.71 10.668 13.8503 10.9842C13.8692 11.0282 13.8859 11.07 13.9006 11.1056C13.9006 11.1077 13.9006 11.1098 13.9006 11.1119C13.9132 11.1475 13.9236 11.181 13.9278 11.2062C14.244 11.0156 14.3697 10.9779 14.3697 10.9779L14.2231 11.2941C14.2231 11.2941 15.1194 11.9768 15.2303 12.7788C15.2303 12.7788 15.2303 12.7725 15.2303 12.7642C15.2303 12.7621 15.2303 12.7579 15.2303 12.7537C15.2303 12.7453 15.2324 12.7348 15.2345 12.7223C15.2345 12.716 15.2345 12.7076 15.2366 12.6992C15.2366 12.6867 15.2408 12.6699 15.2408 12.6532C15.2408 12.6427 15.2429 12.6301 15.245 12.6176C15.245 12.5987 15.2492 12.5799 15.2513 12.5568C15.2513 12.5422 15.2534 12.5296 15.2555 12.5129C15.2555 12.4856 15.2597 12.4563 15.2618 12.4249C15.2618 12.4124 15.2618 12.3998 15.2639 12.3872C15.2659 12.3432 15.268 12.2951 15.2701 12.2448C15.2701 12.2281 15.2701 12.2092 15.2701 12.1904C15.2701 12.1548 15.2701 12.1192 15.2701 12.0794C15.2701 12.0543 15.2701 12.0291 15.2701 12.004C15.2701 11.9684 15.2701 11.9328 15.2701 11.8951C15.2701 11.8658 15.2701 11.8365 15.268 11.8072C15.268 11.7695 15.2639 11.7318 15.2618 11.692C15.2618 11.6606 15.2576 11.6292 15.2555 11.5957C15.2534 11.5538 15.2492 11.5119 15.245 11.4679C15.2429 11.4365 15.2387 11.4051 15.2366 11.3716C15.2303 11.3046 15.222 11.2355 15.2115 11.1643C15.2073 11.1266 15.201 11.0889 15.1947 11.0533C15.1864 11.0051 15.1801 10.9549 15.1717 10.9046C15.1654 10.8648 15.1571 10.8229 15.1487 10.7831C15.1403 10.7392 15.1319 10.6952 15.1215 10.6491C15.1131 10.6051 15.1026 10.5612 15.0921 10.5172C15.0859 10.4942 15.0838 10.4732 15.0775 10.4502C15.0188 10.2094 14.9456 9.9581 14.8471 9.7026L14.6712 9.6586L14.7152 9.5267C14.7152 9.5267 14.466 8.7184 13.9509 8.1739L13.7456 8.1886L13.7896 7.9833C13.7896 7.9833 13.754 7.9415 13.6996 7.8765C13.509 7.6546 13.0755 7.1499 12.952 7.0138L12.6986 7.1122V6.951C12.6986 6.951 12.6274 6.9028 12.4871 6.8462C12.4536 6.8337 12.418 6.8211 12.3761 6.8065C12.3677 6.8044 12.3573 6.8002 12.3489 6.7981C12.3426 6.7981 12.3384 6.7939 12.3321 6.7939C12.3321 6.7918 12.3363 6.7897 12.3384 6.7855C12.3719 6.7436 12.4117 6.6976 12.4557 6.6536C12.5918 6.5112 12.774 6.3646 12.996 6.2871L12.952 5.9332L13.1719 6.1761C13.1719 6.1761 13.2012 6.1531 13.2514 6.1154C13.4085 5.9981 13.7687 5.7406 13.9886 5.6903L13.9215 5.3825L14.1205 5.5374C14.1205 5.5374 14.6063 5.3385 14.8911 5.2945L14.9581 4.98669L15.0251 5.1626C15.0251 5.1626 15.1089 5.1228 15.2492 5.0746C15.2785 5.0642 15.3099 5.0537 15.3455 5.0432C15.3602 5.039 15.3769 5.0349 15.3916 5.0286C15.4167 5.0202 15.4419 5.0139 15.4691 5.0076C15.4879 5.0034 15.5047 4.99716 15.5256 4.99298C15.5675 4.98251 15.6115 4.97413 15.6554 4.96575C15.6743 4.96156 15.6952 4.95947 15.7141 4.95528C15.7455 4.949 15.7769 4.94481 15.8104 4.94062C15.8334 4.93853 15.8565 4.93434 15.8795 4.93225C15.9151 4.92806 15.9528 4.92596 15.9905 4.92387C16.0094 4.92387 16.0282 4.92178 16.047 4.91968C16.1015 4.91968 16.1559 4.91968 16.2125 4.91968C16.2313 4.91968 16.2523 4.92178 16.2711 4.92387C16.313 4.92596 16.3549 4.93015 16.3968 4.93644C16.4156 4.93853 16.4365 4.94272 16.4554 4.94481C16.5161 4.95528 16.5769 4.96785 16.6376 4.9846C16.6376 4.9846 16.6376 4.98041 16.6334 4.97622C16.6334 4.97622 16.6334 4.97203 16.6292 4.96994V4.99298ZM10.2066 4.05273C10.2066 4.05273 10.2066 4.05273 10.2632 3.9899C10.2632 4.01085 10.2632 4.03179 10.2632 4.05273H10.2066ZM7.166 15.721C7.1702 15.6791 7.1723 15.6373 7.1723 15.5975L7.2079 15.6519C7.2079 15.6519 7.2079 15.6519 7.2079 15.6498C7.2058 15.6645 7.2016 15.6791 7.1995 15.6959C7.189 15.7106 7.1786 15.7273 7.1702 15.742L7.1639 15.721H7.166ZM7.2246 15.9158L7.1932 15.8069L7.2393 15.8969C7.2393 15.8969 7.2309 15.9074 7.2267 15.9137L7.2246 15.9158ZM10.7385 6.6012C10.7595 6.6599 10.7741 6.708 10.7867 6.7436C10.793 6.7646 10.7992 6.7855 10.8055 6.8065L10.749 6.6997C10.749 6.6997 10.7448 6.7039 10.7364 6.7122C10.7322 6.7143 10.7322 6.7164 10.728 6.7206L10.7239 6.7248C10.728 6.685 10.7343 6.6431 10.7406 6.6033L10.7385 6.6012ZM9.0528 12.0605L8.9439 11.8993L9.1072 11.9537L9.214 11.6313L9.413 11.0344L9.2685 10.9632L9.5742 10.802L9.7731 10.3706L9.593 10.2094L9.9176 10.3162L10.548 8.9299L10.3679 8.6241L10.6568 8.8398L10.7008 8.7582C10.7448 8.9089 10.7846 9.0492 10.8118 9.1581C10.8432 9.1435 10.8684 9.1309 10.8935 9.1183C11.0317 9.5686 11.3081 10.5486 11.2955 11.1664C11.3542 11.1475 11.4003 11.135 11.44 11.1224C11.4421 11.1412 11.4442 11.1622 11.4484 11.1852C11.4861 11.4972 11.5406 12.0166 11.5699 12.5485C11.4505 12.5527 11.3291 12.561 11.2243 12.5757L11.0589 12.8291L11.0045 12.6197C11.0045 12.6197 10.1124 12.6301 9.4821 12.8626C9.3062 13.1264 9.2622 13.183 9.2622 13.183L9.2182 12.8961C9.2182 12.8961 8.858 13.0825 8.5439 13.2437C8.8245 12.2553 9.0549 12.0647 9.0549 12.0647L9.0528 12.0605ZM9.5679 29.4415C9.5679 29.4415 9.5784 29.4311 9.5805 29.4352C9.5805 29.4352 9.5805 29.4394 9.5805 29.4415C9.5763 29.4415 9.5721 29.4415 9.5658 29.4415H9.5679ZM10.3867 29.1337C10.3867 29.1337 10.3867 29.1169 10.3825 29.1086L10.3867 29.1002C10.3867 29.1274 10.3867 29.1505 10.3867 29.1651C10.3867 29.1567 10.3867 29.1484 10.3846 29.1337H10.3867ZM11.4589 18.7596C11.4589 18.7742 11.4589 18.7889 11.4589 18.8056C11.4589 18.8224 11.4589 18.8412 11.4589 18.8601C11.4421 19.3354 11.3709 20.15 11.0819 20.6149C11.1825 20.6254 11.2641 20.6338 11.3332 20.6401C11.3332 20.6526 11.3332 20.6694 11.3291 20.684C11.3291 20.6945 11.3291 20.705 11.327 20.7175C11.3249 20.7469 11.3207 20.7804 11.3186 20.816C11.2851 21.174 11.1929 21.8106 10.9647 22.2337C11.0443 22.2504 11.1113 22.2672 11.1678 22.2797C11.1531 22.3551 11.1343 22.4452 11.1134 22.5499C10.994 23.1299 10.7699 24.089 10.5291 24.5288C10.5961 24.5476 10.6548 24.5644 10.7071 24.5811L10.6548 24.7822L10.0873 26.9873L10.1124 26.9914L10.0768 27.1213C10.0517 26.6983 10.0098 26.0868 9.9574 25.6261C9.949 25.5528 9.9407 25.4837 9.9302 25.4188C9.9302 25.4188 9.9302 25.4167 9.9302 25.4146C9.9281 25.3936 9.9239 25.3727 9.9218 25.3539L10.0014 25.3266C10.0014 25.3266 9.9888 23.9152 9.6684 22.8682C9.6517 22.8116 9.6349 22.7572 9.6161 22.7027L9.7375 22.709C9.7375 22.709 9.5554 21.463 9.2433 20.3029C9.2433 20.3029 9.2433 20.2987 9.2433 20.2966C9.2391 20.2841 9.2371 20.2736 9.2329 20.261C9.2182 20.2066 9.2035 20.1542 9.1889 20.0998C9.1868 20.0914 9.1826 20.0809 9.1805 20.0726C9.1805 20.0684 9.1784 20.0642 9.1763 20.0621C9.17 20.0411 9.1638 20.0202 9.1575 19.9993C9.1575 19.993 9.1533 19.9867 9.1512 19.9804L9.2936 19.8757C9.2936 19.8757 9.1659 19.5407 8.9962 19.126C8.9564 19.0276 8.9146 18.925 8.8706 18.8203C8.858 18.791 8.8455 18.7616 8.8329 18.7323C8.8224 18.7051 8.8099 18.6779 8.7994 18.6507C8.7805 18.6088 8.7638 18.5669 8.7449 18.5229C8.7345 18.4978 8.724 18.4748 8.7135 18.4517C8.6947 18.4077 8.6758 18.3659 8.6591 18.324C8.6486 18.3009 8.6381 18.2779 8.6277 18.2528C8.6109 18.213 8.5921 18.1753 8.5753 18.1376C8.5648 18.1146 8.5544 18.0915 8.5439 18.0685C8.5272 18.0329 8.5104 17.9994 8.4957 17.9659C8.4853 17.945 8.4769 17.924 8.4664 17.9052C8.4497 17.8717 8.435 17.8402 8.4183 17.8109C8.4141 17.8046 8.4099 17.7963 8.4078 17.79L8.5397 17.7314L7.9429 16.7325L8.2465 16.8644L8.4518 16.3932L8.5837 16.7911L9.1135 16.923L9.1868 16.4958L9.3041 16.8497L10.393 17.3795L10.5836 17.055L10.6275 17.3335L10.9961 17.3921L11.1427 17.1136L11.1573 17.4214L11.4359 17.6204L11.3374 18.6821H11.4568C11.4568 18.7093 11.4568 18.7365 11.4568 18.7637L11.4589 18.7596ZM11.5992 15.0781L11.1092 14.9818L10.7951 15.1661L10.8851 14.963C10.8851 14.963 10.2527 14.8583 9.725 14.8645L9.4821 15.0677L9.5156 14.8541C9.5156 14.8541 9.2999 14.8687 9.0004 14.9148C8.9774 14.919 8.9543 14.9232 8.9292 14.9253C8.9062 14.9295 8.8831 14.9336 8.858 14.9378C8.8078 14.9462 8.7554 14.9567 8.701 14.9671C8.6905 14.9671 8.68 14.9713 8.6675 14.9734C8.6193 14.9839 8.569 14.9944 8.5209 15.0048C8.5062 15.009 8.4916 15.0132 8.4748 15.0153C8.3533 15.0446 8.2298 15.0802 8.1083 15.12L8.0685 15.1326C8.0162 15.1514 7.9638 15.1703 7.9115 15.1912C7.9031 15.1954 7.8947 15.1975 7.8864 15.2017C7.8508 15.2163 7.8152 15.2331 7.7796 15.2499C7.7921 15.2415 7.8047 15.2352 7.8173 15.2268C7.8298 15.2205 7.8424 15.2122 7.857 15.2059C7.901 15.1807 7.9492 15.1577 7.9973 15.1326C8.3848 14.9462 8.9104 14.7892 9.5805 14.808C9.5847 14.7661 9.5868 14.7389 9.5889 14.72C9.5889 14.6991 9.591 14.6907 9.591 14.6844C9.591 14.6907 9.591 14.7012 9.5889 14.72C9.5993 14.72 9.6098 14.7221 9.6203 14.7242L9.681 14.831L10.4412 14.7975L10.4307 14.5546L10.5521 14.7305C10.5521 14.7305 10.8181 14.6844 11.128 14.6468C11.2725 14.6363 11.4735 14.6195 11.6327 14.6091C11.6222 14.7619 11.6118 14.919 11.5992 15.076V15.0781Z" fill="#B09684"/>
</g>
<defs>
<clipPath id="clip0_707_8">
<rect width="16" height="30" fill="white"/>
</clipPath>
</defs>
</svg>
