<svg width="27" height="30" viewBox="0 0 27 30" fill="none" xmlns="http://www.w3.org/2000/svg">
<g clip-path="url(#clip0_720_1407)">
<path d="M7.6388 30.0009C7.57279 29.0434 7.50765 28.1002 7.43947 27.114C7.39301 27.1848 7.36435 27.2209 7.34351 27.2608C6.76378 28.3773 5.34768 28.6061 4.44921 27.7168C3.374 26.6529 2.3066 25.5815 1.24442 24.5046C0.966064 24.2223 0.695091 23.9262 0.465805 23.604C-0.0605099 22.8644 -0.114357 22.0454 0.171816 21.2043C0.285156 20.8712 0.423248 20.536 0.611279 20.2402C1.89493 18.2197 3.1534 16.1813 4.50262 14.2054C5.46797 12.7915 6.88276 12.0698 8.61152 12.0142C8.84211 12.0068 9.12481 11.9395 9.29026 12.0454C9.45267 12.1497 9.50218 12.4367 9.59076 12.6478C10.4979 14.8064 11.4051 16.9655 12.3031 19.1281C12.3496 19.2397 12.3504 19.3991 12.3092 19.5133C12.0083 20.3497 11.6904 21.18 11.3786 22.0124C11.2396 22.3837 11.3252 22.57 11.6952 22.6964C12.2766 22.8948 12.8581 23.092 13.44 23.2887C13.813 23.4146 13.998 23.3295 14.1335 22.9682C14.5043 21.9807 14.8748 20.9928 15.2447 20.0044C15.3781 19.6479 15.2899 19.4603 14.9312 19.3348C14.7345 19.2658 14.5369 19.2006 14.3172 19.1259C14.4509 18.7989 14.576 18.4859 14.7063 18.1749C15.5422 16.1743 16.3777 14.1737 17.2197 12.1753C17.2488 12.1067 17.3387 12.0216 17.4051 12.0172C19.1474 11.9034 20.6351 12.4823 21.7907 13.7803C22.3348 14.3917 22.7695 15.1061 23.2163 15.7983C24.1417 17.2326 25.0493 18.6782 25.9482 20.1291C26.3521 20.7813 26.6382 21.4792 26.6109 22.273C26.5866 22.9786 26.2787 23.5614 25.8101 24.053C24.8912 25.0166 23.9485 25.9572 23.0153 26.9069C22.7365 27.1909 22.4581 27.4753 22.1776 27.7576C21.2691 28.6713 19.9351 28.5158 19.2607 27.418C19.2429 27.3893 19.2238 27.3616 19.1678 27.2773C19.1035 28.2222 19.0436 29.1038 18.9828 30.0005L7.6388 30.0009ZM20.0259 18.0746C20.0098 18.0785 19.9942 18.0824 19.9781 18.0868C19.7601 20.5533 19.5421 23.0199 19.3215 25.5142C20.5135 24.3027 21.6734 23.1237 22.8446 21.933C21.8984 20.6376 20.9621 19.3561 20.0259 18.0746ZM3.77655 21.9312C4.95728 23.1163 6.12456 24.2875 7.2953 25.4626C7.07774 23.0056 6.86018 20.5464 6.64262 18.0868L6.59442 18.0759C5.66121 19.3526 4.72757 20.6293 3.77655 21.9312Z" fill="#B09684"/>
<path d="M17.9758 4.6639C17.9701 7.26204 15.8879 9.34255 13.2984 9.3382C10.7216 9.33386 8.63586 7.24163 8.64063 4.66564C8.64541 2.07662 10.7407 -0.0082264 13.3293 2.44051e-05C15.8935 0.00827521 17.9814 2.10398 17.9758 4.6639Z" fill="#B09684"/>
<path d="M10.5942 12.0176H16.0149C15.1151 14.1732 14.2245 16.3058 13.3087 18.4997C12.3929 16.3136 11.5009 14.1819 10.5942 12.0176Z" fill="#B09684"/>
</g>
<defs>
<clipPath id="clip0_720_1407">
<rect width="27" height="30" fill="white"/>
</clipPath>
</defs>
</svg>
