<svg width="173" height="173" viewBox="0 0 173 173" fill="none" xmlns="http://www.w3.org/2000/svg">
<g clip-path="url(#clip0_666_5)">
<path d="M76.9946 0.514656C54.9191 3.08262 34.4204 14.0303 20.3191 30.8798C-1.62128 57.055 -6.17154 93.1417 8.51544 123.822C17.2105 141.888 31.0865 155.764 49.1074 164.414C79.8329 179.146 115.92 174.596 142.095 152.656C161.512 136.437 172.956 111.838 172.956 86.5191C172.956 61.1998 161.512 36.6014 142.095 20.3826C124.074 5.24512 99.8811 -2.09836 76.9946 0.514656ZM101.323 65.3446V100.035H86.9061H72.4894V65.3446V30.6545H86.9061H101.323V65.3446ZM101.323 129.544V142.384H86.9061H72.4894V129.544V116.704H86.9061H101.323V129.544Z" fill="#F96E66"/>
</g>
<defs>
<clipPath id="clip0_666_5">
<rect width="173" height="173" fill="white"/>
</clipPath>
</defs>
</svg>
