<svg width="21" height="30" viewBox="0 0 21 30" fill="none" xmlns="http://www.w3.org/2000/svg">
<g clip-path="url(#clip0_720_1411)">
<path d="M9.768 16.2108L8.79788 18.1765L6.62871 18.4916C6.40712 18.5238 6.22306 18.6791 6.15382 18.892C6.08459 19.1049 6.14235 19.3387 6.30271 19.495L7.87235 21.0251L7.50182 23.1855C7.46394 23.4062 7.55465 23.6292 7.73582 23.7608C7.917 23.8924 8.15723 23.9097 8.35529 23.8056L10.2955 22.7856L12.2356 23.8056C12.3328 23.8567 12.4423 23.8796 12.5518 23.8717C12.6612 23.8637 12.7663 23.8254 12.8551 23.7608C12.9439 23.6963 13.0129 23.6083 13.0542 23.5066C13.0956 23.4049 13.1077 23.2937 13.0891 23.1855L12.7186 21.0251L14.2882 19.495C14.3669 19.4184 14.4225 19.3213 14.4488 19.2147C14.4751 19.1082 14.4711 18.9964 14.4371 18.892C14.4032 18.7876 14.3408 18.6947 14.2568 18.624C14.1729 18.5532 14.0709 18.5074 13.9622 18.4916L11.7931 18.1765L10.8229 16.2108C10.7744 16.1124 10.6993 16.0295 10.606 15.9715C10.5128 15.9135 10.4052 15.8828 10.2955 15.8828C10.1857 15.8828 10.0781 15.9135 9.9849 15.9715C9.89168 16.0295 9.81655 16.1124 9.768 16.2108ZM10.8749 18.9745C10.9172 19.06 10.9795 19.134 11.0567 19.19C11.1338 19.2461 11.2234 19.2826 11.3178 19.2963L12.6136 19.4845L11.676 20.3985C11.6077 20.465 11.5566 20.5472 11.5271 20.6379C11.4977 20.7286 11.4907 20.8252 11.5068 20.9192L11.7282 22.2096L10.5692 21.6004C10.4848 21.556 10.3909 21.5328 10.2955 21.5328C10.2001 21.5328 10.1062 21.556 10.0218 21.6004L8.86282 22.2096L9.08418 20.9192C9.1003 20.8252 9.09333 20.7286 9.06386 20.6379C9.03439 20.5472 8.9833 20.465 8.915 20.3985L7.97741 19.4845L9.27318 19.2963C9.36755 19.2826 9.45718 19.2461 9.53433 19.19C9.61148 19.134 9.67385 19.06 9.71606 18.9745L10.2955 17.8004L10.8749 18.9745Z" fill="#B09684"/>
<path d="M2.64844 20.0006C2.64844 24.2172 6.07891 27.6476 10.2955 27.6476C14.5121 27.6476 17.9426 24.2172 17.9426 20.0006C17.9426 15.7839 14.5121 12.3535 10.2955 12.3535C6.07891 12.3535 2.64844 15.7839 2.64844 20.0006ZM16.7661 20.0006C16.7661 23.5685 13.8634 26.4712 10.2955 26.4712C6.72761 26.4712 3.82491 23.5685 3.82491 20.0006C3.82491 16.4327 6.72761 13.53 10.2955 13.53C13.8634 13.53 16.7661 16.4327 16.7661 20.0006Z" fill="#B09684"/>
<path d="M20.4663 4.05312L17.5251 0.229592C17.4148 0.0858278 17.2377 -0.000701596 17.057 4.28583e-06H3.53169C3.44126 3.6185e-05 3.35203 0.0207387 3.27083 0.06053C3.18963 0.100321 3.11859 0.158148 3.06316 0.229592L0.121982 4.05312C0.0523213 4.14368 0.0105416 4.25257 0.00174594 4.36649C-0.00704968 4.4804 0.0175198 4.59441 0.0724529 4.69459L4.14404 12.1202C1.80222 13.9521 0.294159 16.8032 0.294159 20C0.294159 25.514 4.78016 30 10.2942 30C15.8082 30 20.2942 25.514 20.2942 20C20.2942 16.8032 18.7861 13.9521 16.4443 12.1202L20.5159 4.69459C20.5708 4.59441 20.5953 4.48039 20.5865 4.36648C20.5777 4.25256 20.5359 4.14368 20.4663 4.05312ZM9.32169 10.0474L6.42863 4.70589H14.1576L11.2622 10.047C10.6169 9.98422 9.96699 9.98436 9.32169 10.0474ZM14.7953 3.52942H5.79139L4.51698 1.17647H16.0708L14.7953 3.52942ZM1.28881 4.46589L3.44351 1.66471L8.0908 10.2451C7.04093 10.4822 6.03652 10.8883 5.1168 11.4474L1.28881 4.46589ZM19.1177 20C19.1177 24.8653 15.1595 28.8235 10.2942 28.8235C5.42886 28.8235 1.47063 24.8653 1.47063 20C1.47063 15.1347 5.42886 11.1765 10.2942 11.1765C15.1595 11.1765 19.1177 15.1347 19.1177 20ZM15.4715 11.4474C14.5506 10.8875 13.5448 10.4812 12.4935 10.2442L17.1446 1.66442L19.2995 4.46589L15.4715 11.4474Z" fill="#B09684"/>
</g>
<defs>
<clipPath id="clip0_720_1411">
<rect width="21" height="30" fill="white"/>
</clipPath>
</defs>
</svg>
