<svg width="26" height="26" viewBox="0 0 26 26" fill="none" xmlns="http://www.w3.org/2000/svg">
<path fill-rule="evenodd" clip-rule="evenodd" d="M9.55664 11.707C9.55664 9.80447 11.0984 8.2627 13.001 8.2627C14.9026 8.2627 16.4442 9.80466 16.4442 11.707C16.4442 13.6085 14.9024 15.1502 13.001 15.1502C11.0986 15.1502 9.55664 13.6087 9.55664 11.707ZM13.001 9.7627C11.9268 9.7627 11.0566 10.6329 11.0566 11.707C11.0566 12.7798 11.9266 13.6502 13.001 13.6502C14.074 13.6502 14.9442 12.78 14.9442 11.707C14.9442 10.6327 14.0738 9.7627 13.001 9.7627Z" fill="#B09684"/>
<path fill-rule="evenodd" clip-rule="evenodd" d="M13.0005 3.72949C8.97736 3.72949 5.54254 7.36515 5.66941 11.4574C5.75988 14.3753 7.61686 17.0877 9.5764 19.1346C10.5433 20.1445 11.5064 20.9627 12.2284 21.5284C12.5398 21.7724 12.8053 21.9686 13.0054 22.1121C13.2047 21.9721 13.4685 21.7809 13.7778 21.5429C14.4989 20.9879 15.461 20.1826 16.4269 19.1817C18.3822 17.1554 20.2415 14.4427 20.3327 11.4577C20.4578 7.36498 17.0236 3.72949 13.0005 3.72949ZM12.9953 23.9127L12.5908 23.6492L12.5884 23.6477L12.5827 23.6439L12.563 23.6309C12.5461 23.6197 12.522 23.6036 12.4911 23.5827C12.4294 23.5408 12.3404 23.4796 12.228 23.4C12.0034 23.241 11.6849 23.0081 11.3033 22.7091C10.5412 22.112 9.52136 21.2462 8.49287 20.1719C6.46168 18.0501 4.27828 14.9922 4.17013 11.5039C4.01809 6.59971 8.09678 2.22949 13.0005 2.22949C17.9045 2.22949 21.9818 6.59975 21.832 11.5035C21.7235 15.0562 19.5419 18.1138 17.5062 20.2233C16.4766 21.2903 15.4557 22.1443 14.6927 22.7316C14.3106 23.0257 13.9917 23.254 13.7667 23.4099C13.6541 23.4878 13.565 23.5477 13.503 23.5887C13.472 23.6092 13.4479 23.625 13.4309 23.636L13.4111 23.6488L13.4053 23.6525L13.4035 23.6536L12.9953 23.9127Z" fill="#B09684"/>
</svg>
