<svg width="32" height="30" viewBox="0 0 32 30" fill="none" xmlns="http://www.w3.org/2000/svg">
<g clip-path="url(#clip0_709_34)">
<path d="M0.361187 29.0587H3.03861C3.11044 28.6299 3.31422 28.2343 3.62155 27.9269C3.81648 27.7302 4.04854 27.574 4.30419 27.4677C4.55984 27.3613 4.83402 27.3067 5.11093 27.3069H5.47576L4.9398 25.1688C4.93915 25.1669 4.93784 25.1652 4.93745 25.1632L4.18902 22.1748C4.1225 21.9108 4.12002 21.6348 4.18184 21.3696C4.24367 21.1046 4.36784 20.8581 4.54419 20.6507C4.5511 20.6425 4.55945 20.6348 4.56637 20.627C4.59415 20.5946 4.62323 20.5633 4.65363 20.5334L4.65493 20.5321C4.69302 20.495 4.7328 20.4596 4.77415 20.4263C4.78315 20.419 4.79306 20.4128 4.80232 20.4059C4.96863 20.2767 5.1575 20.1793 5.35915 20.1186L10.8855 18.466C10.5824 17.5929 9.91067 15.3546 10.2503 13.5189C10.3264 13.1133 10.504 12.7334 10.7665 12.4149C11.029 12.0964 11.3679 11.8496 11.7516 11.6974L12.0035 11.5956C11.9447 11.5758 11.8858 11.556 11.8283 11.5315C11.6799 11.4687 11.5372 11.3911 11.4036 11.3009C11.2702 11.211 11.145 11.1081 11.0315 10.9942C11.0269 10.9895 11.0239 10.9843 11.0196 10.9796C10.5576 10.5124 10.2987 9.88174 10.299 9.22461V7.51343C10.2978 7.01739 10.4447 6.5323 10.7209 6.12013L10.7239 6.11517L10.7255 6.11361C10.7556 6.06835 10.7875 6.02413 10.8207 5.98108L10.8289 5.97052C10.8332 5.96452 10.8379 5.95891 10.8429 5.95369C10.9039 5.877 10.9694 5.80395 11.0388 5.73482L11.0468 5.727L11.0683 5.70678C11.1115 5.66465 11.1565 5.62447 11.203 5.58613L11.2517 5.54621C11.2723 5.52939 11.2934 5.51334 11.3151 5.49795C11.7441 5.181 12.2635 5.01 12.7969 5.01013H12.8607V2.13247C12.8608 1.8763 12.9297 1.62495 13.0601 1.40452C13.1905 1.18408 13.3776 1.00265 13.6018 0.878996L13.6095 0.873779C13.6178 0.869083 13.6266 0.866083 13.635 0.861779C13.6736 0.841562 13.7132 0.82317 13.7535 0.806605C13.7714 0.799431 13.7899 0.79304 13.8081 0.786779C13.8941 0.755344 13.9832 0.732649 14.0738 0.719084C14.0927 0.716084 14.1115 0.712431 14.1306 0.710474C14.1746 0.705779 14.2187 0.702909 14.2629 0.702257C14.2724 0.702257 14.2821 0.700562 14.292 0.700562C14.3392 0.700562 14.3861 0.70317 14.4323 0.707866L14.4476 0.709823C14.4872 0.713996 14.5268 0.719866 14.5659 0.727301C14.5821 0.730301 14.598 0.734997 14.6138 0.738519C14.6411 0.74491 14.6687 0.75117 14.6958 0.759127C14.7156 0.764996 14.7351 0.772301 14.7546 0.778954C14.7773 0.78678 14.7999 0.794083 14.8223 0.802953C14.8428 0.8113 14.8626 0.820562 14.8828 0.829823C14.904 0.839344 14.9247 0.848606 14.9452 0.859562C14.9648 0.869475 14.9835 0.880301 15.0027 0.891519C15.0232 0.903519 15.0434 0.914997 15.0632 0.92791C15.0814 0.939518 15.0988 0.95204 15.1167 0.964562C15.1544 0.991301 15.1908 1.01974 15.2258 1.04987C15.235 1.05808 15.2449 1.06513 15.2542 1.07361C15.2582 1.07726 15.2608 1.0813 15.2645 1.08521C15.2774 1.09708 15.2912 1.10804 15.3038 1.12095C15.5445 1.3603 15.6915 1.67804 15.7181 2.01652C15.9802 2.451 15.9287 3.00756 15.5787 3.40474C15.4568 3.54261 15.4132 3.70382 15.4022 3.75208L15.3752 5.59408C15.4513 5.57308 15.5298 5.562 15.6088 5.56108C15.8568 5.56134 16.0945 5.65995 16.2698 5.83526C16.4452 6.01056 16.5438 6.24834 16.5441 6.4963V7.26456C16.5441 7.78043 16.1243 8.19978 15.6088 8.19978C15.514 8.19978 15.4241 8.18126 15.3375 8.15491L15.2929 11.1981L15.283 11.8808L15.2824 11.8868L15.2087 16.9184L15.2968 18.4531L16.1623 19.5218L19.0172 23.0465L20.7597 23.8714L20.766 23.875L23.4735 25.1536C23.6614 25.2417 23.8298 25.3663 23.9691 25.52C24.1085 25.6736 24.216 25.8533 24.2855 26.0489C24.3584 26.2507 24.3892 26.4652 24.3759 26.6794C24.3626 26.8936 24.3055 27.1028 24.2081 27.294L23.3162 29.0593H25.5274C25.6213 29.0622 25.7102 29.1014 25.7757 29.1689C25.8411 29.2363 25.8776 29.3264 25.8776 29.4203C25.8776 29.5143 25.8411 29.6045 25.7757 29.672C25.7102 29.7393 25.6213 29.7787 25.5274 29.7814H0.361526C0.265683 29.7815 0.173752 29.7434 0.105952 29.6757C0.0381524 29.6079 3.9184e-05 29.5161 5.36062e-08 29.4202C-5.21203e-05 29.3243 0.0379826 29.2325 0.105717 29.1647C0.173452 29.0969 0.265356 29.0588 0.361187 29.0587ZM11.0577 7.15317C11.0338 7.27056 11.0216 7.39043 11.022 7.51174V9.22395C11.0226 9.63 11.1617 10.0236 11.4163 10.34C11.671 10.6563 12.0259 10.8762 12.4225 10.9634C12.4304 10.9651 12.4377 10.9677 12.4457 10.9694C12.4724 10.975 12.5005 10.9776 12.5276 10.982C12.6181 10.9959 12.7099 11.0052 12.8032 11.0052H12.8603V8.37365L12.8567 8.37261C12.7579 8.35317 12.6602 8.32826 12.5642 8.298C12.4024 8.24778 12.2464 8.18295 12.0973 8.1043L12.055 8.08187C11.9822 8.04182 11.9113 7.99917 11.8421 7.953L11.818 7.93578C11.7549 7.89208 11.6935 7.84617 11.6344 7.79765C11.6234 7.78865 11.6125 7.78043 11.6019 7.77117C11.5388 7.71795 11.4784 7.66213 11.4202 7.6033C11.4096 7.59274 11.3993 7.58152 11.3891 7.57056C11.3355 7.51474 11.284 7.45695 11.2351 7.39643L11.2179 7.37595C11.1664 7.31087 11.1181 7.24239 11.0722 7.17234C11.0672 7.16648 11.062 7.16021 11.0577 7.15317ZM14.7932 1.63147C14.7721 1.61034 14.7482 1.59352 14.7251 1.57565C14.7077 1.56208 14.6905 1.54761 14.6719 1.53561C14.6545 1.52439 14.6353 1.51578 14.6168 1.50626C14.5952 1.49504 14.5745 1.48317 14.5523 1.47417C14.5335 1.46687 14.5137 1.4623 14.4945 1.45669C14.4713 1.44978 14.4485 1.44143 14.4248 1.43687C14.3961 1.43152 14.3666 1.43021 14.3372 1.42826C14.322 1.42721 14.3071 1.42395 14.292 1.42395C14.2371 1.42395 14.1836 1.43152 14.1313 1.44378C14.1151 1.44769 14.1 1.45369 14.0841 1.45865C13.9394 1.50274 13.8126 1.59195 13.7225 1.71326C13.6322 1.83456 13.5832 1.98156 13.5828 2.13287V5.37065L13.5841 8.05643L13.5857 10.9248L14.5672 11.3353L14.6795 3.72404L14.6799 3.71243V3.71008C14.6801 3.69508 14.6813 3.68008 14.6831 3.66521C14.7313 3.39091 14.8536 3.135 15.0368 2.92526C15.1832 2.75908 15.2003 2.526 15.0788 2.35747L15.0758 2.35382C15.0268 2.29043 15.0001 2.21217 15.0001 2.13208C15.0001 1.94243 14.9264 1.76465 14.7932 1.63147ZM5.11263 28.0297C4.74245 28.0303 4.39511 28.1751 4.13371 28.4371C3.96206 28.6092 3.83896 28.8239 3.77721 29.059H7.21628C7.22528 29.0571 7.23389 29.0541 7.24315 29.0528C7.3651 29.0369 7.4735 28.9748 7.5485 28.8772C7.6235 28.7798 7.65623 28.6591 7.64032 28.5376L7.23715 25.4369H5.75241L6.29006 27.5806C6.3035 27.6339 6.30467 27.6896 6.29332 27.7433C6.2821 27.7972 6.25863 27.8477 6.22471 27.8911C6.19093 27.9344 6.14763 27.9695 6.09819 27.9935C6.04876 28.0177 5.99437 28.03 5.93945 28.0299L5.11263 28.0297ZM23.5727 26.9464C23.6705 26.7395 23.6817 26.5072 23.6048 26.2917C23.5277 26.0763 23.3714 25.9038 23.1645 25.806L20.7687 24.6745L20.1891 25.8215L22.0703 26.6943C22.1138 26.7143 22.1526 26.7429 22.185 26.7783C22.2172 26.8135 22.2421 26.8548 22.2583 26.8998C22.2746 26.9448 22.2816 26.9926 22.2793 27.0403C22.2769 27.088 22.2651 27.1349 22.2446 27.178L21.9431 27.8082C21.8875 27.925 21.8584 28.0527 21.8581 28.1823C21.8578 28.3116 21.8863 28.4396 21.9415 28.5566C21.9966 28.6737 22.0771 28.777 22.1771 28.8592C22.2772 28.9414 22.3942 29.0002 22.5198 29.0316L23.5634 26.9665L23.5727 26.9464ZM21.2908 27.4966L21.4342 27.1966L19.5446 26.3198L19.5387 26.3165L12.6763 23.1335C12.4645 23.1943 12.2302 23.2456 11.9688 23.2885C11.9492 23.2917 11.9298 23.293 11.91 23.293H7.66119L7.91097 25.0191L7.91228 25.0253L8.3568 28.4447C8.38419 28.6569 8.35341 28.8673 8.2715 29.059H21.3962C21.2449 28.83 21.1557 28.5656 21.1373 28.2917C21.1188 28.0179 21.1718 27.7439 21.2908 27.4966Z" fill="#B09684"/>
<path fill-rule="evenodd" clip-rule="evenodd" d="M22.109 2.62772L21.9482 2.31651C21.875 2.17381 21.773 2.04651 21.648 1.94216C21.5232 1.83781 21.378 1.75851 21.221 1.70881C21.0646 1.65807 20.8995 1.63785 20.7348 1.64933C20.5704 1.66068 20.4098 1.70359 20.2627 1.77533C20.1136 1.84433 19.9807 1.9419 19.8722 2.06229C19.7638 2.18268 19.6821 2.32316 19.6322 2.47512C19.5776 2.62551 19.5557 2.78503 19.5676 2.9439C19.5795 3.10277 19.625 3.25759 19.7013 3.39885L21.3591 6.59738C21.4324 6.74007 21.5344 6.86738 21.6592 6.97173C21.7841 7.07607 21.9294 7.15538 22.0863 7.20507C22.2676 7.2639 22.4604 7.28177 22.6499 7.25725C22.8393 7.23259 23.0205 7.16633 23.1791 7.06342L30.7148 2.2209C30.8528 2.13338 30.9712 2.02016 31.0633 1.8879C31.1554 1.75577 31.2193 1.6072 31.2512 1.45094C31.2839 1.2952 31.2842 1.13477 31.2521 0.978898C31.22 0.823029 31.1561 0.674855 31.064 0.542985C30.9746 0.408768 30.8575 0.293594 30.7202 0.204767C30.5828 0.115811 30.428 0.0550295 30.2652 0.026073C30.1037 -0.00740965 29.9369 -0.00866181 29.7749 0.0224208C29.6129 0.0533338 29.4591 0.116073 29.3232 0.206464L26.8804 1.77416L22.9705 4.28868L22.109 2.62772ZM22.1353 12.3126L21.9733 12.0016C21.9016 11.8581 21.8002 11.7302 21.6754 11.6259C21.5506 11.5217 21.4049 11.443 21.2473 11.395C21.0915 11.3422 20.9259 11.3208 20.7612 11.332C20.5963 11.3434 20.4356 11.3869 20.289 11.4604C20.141 11.5308 20.009 11.629 19.9008 11.7492C19.7926 11.8693 19.7102 12.009 19.6585 12.1602C19.6059 12.3108 19.5849 12.4701 19.5968 12.6287C19.6087 12.7873 19.6532 12.942 19.7276 13.0839L21.3855 16.2823C21.4571 16.4262 21.5585 16.5544 21.6836 16.659C21.8087 16.7635 21.9548 16.8421 22.1128 16.8901C22.2934 16.9516 22.4868 16.9707 22.6768 16.9461C22.8667 16.9214 23.0478 16.8537 23.2054 16.7485L30.7412 11.9059C30.8802 11.8196 30.9994 11.7068 31.0914 11.5744C31.1835 11.4419 31.2463 11.2928 31.2762 11.136C31.3112 10.9804 31.3126 10.8196 31.2806 10.6634C31.2487 10.5073 31.184 10.3591 31.0903 10.228C31.001 10.0937 30.884 9.97864 30.7466 9.88968C30.6092 9.80073 30.4543 9.73994 30.2915 9.71112C30.1301 9.67759 29.9632 9.67629 29.8012 9.70733C29.6392 9.73838 29.4856 9.80099 29.3495 9.89138L22.9957 13.9737L22.1353 12.3126Z" fill="#B09684"/>
</g>
<defs>
<clipPath id="clip0_709_34">
<rect width="31.3043" height="30" fill="white"/>
</clipPath>
</defs>
</svg>
