<svg width="29" height="30" viewBox="0 0 29 30" fill="none" xmlns="http://www.w3.org/2000/svg">
<g clip-path="url(#clip0_707_5)">
<path d="M0.361976 13.051H1.67635V29.6551C1.67635 29.7884 1.72923 29.9162 1.82348 30.0105C1.91773 30.1047 2.0456 30.1577 2.17885 30.1577H25.9925C26.1257 30.1577 26.2536 30.1047 26.3479 30.0105C26.4421 29.9162 26.4951 29.7884 26.4951 29.6551V13.051H27.8089C27.9422 13.051 28.07 12.998 28.1642 12.9037C28.2585 12.8095 28.3115 12.6816 28.3115 12.5484V7.10162C28.3115 6.96825 28.2585 6.8405 28.1642 6.74625C28.07 6.65187 27.9422 6.599 27.8089 6.599H20.3461C21.854 6.03 22.997 5.21425 23.3457 4.12512C23.6091 3.30287 23.4965 2.01721 21.463 0.565172C20.698 0.0188468 19.8767 -0.132441 19.0239 0.115847C16.7912 0.765209 14.9215 4.13162 14.0857 5.87375C13.2498 4.13162 11.3801 0.765209 9.1476 0.115847C8.2931 -0.131441 7.47385 0.0188473 6.70835 0.564672C4.67435 2.01721 4.56223 3.30287 4.8256 4.12512C5.17448 5.21425 6.31735 6.03 7.82523 6.599H0.361976C0.228688 6.599 0.100838 6.65187 0.00658774 6.74625C-0.0876748 6.8405 -0.140625 6.96825 -0.140625 7.10162V12.5484C-0.140625 12.6816 -0.0876748 12.8095 0.00658774 12.9037C0.100838 12.998 0.228688 13.051 0.361976 13.051ZM2.68098 13.051H11.0936V29.1525H2.68098V13.051ZM12.0989 29.1525V13.051H16.0725V29.1525H12.0989ZM16.0725 7.60425V12.0457H12.0989V7.60425H16.0725ZM25.4903 29.1525H17.0777V13.051H25.4903V29.1525ZM27.3067 12.0457H17.0777V7.60425H27.3067V12.0457ZM19.3052 1.08085C19.4746 1.0316 19.641 1.00697 19.8048 1.00697C20.1722 1.00697 20.5266 1.13161 20.879 1.38292C21.7289 1.99007 22.6812 2.90587 22.3887 3.8185C21.9203 5.27962 18.6861 6.44462 14.8597 6.58487C15.6991 4.771 17.4923 1.60758 19.3052 1.08085ZM5.7826 3.8185C5.4901 2.90587 6.44248 1.99007 7.29248 1.38292C7.64423 1.13161 7.9991 1.00697 8.36648 1.00697C8.53035 1.00697 8.69673 1.0321 8.8661 1.08085C10.679 1.60758 12.4718 4.771 13.3117 6.58437C9.48535 6.44462 6.25098 5.27962 5.7826 3.8185ZM0.864588 7.60425H11.0936V12.0457H0.864588V7.60425Z" fill="#B09684"/>
</g>
<defs>
<clipPath id="clip0_707_5">
<rect width="28.75" height="30" fill="white"/>
</clipPath>
</defs>
</svg>
