<svg width="174" height="50" viewBox="0 0 174 50" fill="none" xmlns="http://www.w3.org/2000/svg">
<path fill-rule="evenodd" clip-rule="evenodd" d="M25 47.3926C37.3671 47.3926 47.3926 37.3671 47.3926 25C47.3926 12.6329 37.3671 2.60744 25 2.60744C12.6329 2.60744 2.60744 12.6329 2.60744 25C2.60744 37.3671 12.6329 47.3926 25 47.3926ZM48 25C48 37.7025 37.7025 48 25 48C12.2975 48 2 37.7025 2 25C2 12.2975 12.2975 2 25 2C37.7025 2 48 12.2975 48 25ZM24.9988 41.2361C33.9653 41.2361 41.2341 33.9673 41.2341 25.0008C41.2341 16.2434 34.3005 9.10555 25.6235 8.77728C25.6234 9.12087 25.617 9.45578 25.6106 9.78619C25.5909 10.81 25.572 11.7907 25.746 12.8532C25.9275 14.0013 26.3299 15.0645 27.0756 15.968C27.7821 16.8216 28.6849 17.4156 29.5974 18.0046C29.8451 18.1658 30.0957 18.3234 30.3463 18.481C31.0736 18.9383 31.8009 19.3957 32.4578 19.9414C34.6116 21.7284 35.5683 24.0496 35.1905 26.8799C34.9599 28.602 34.1897 30.0496 32.9091 31.2177C32.8663 31.2588 32.8258 31.3012 32.7814 31.3475C32.7343 31.3967 32.6828 31.4505 32.6197 31.5122C32.9376 31.6302 33.2399 31.7444 33.5353 31.8559C33.8144 31.9612 34.0873 32.0642 34.3614 32.1661C32.8993 34.9315 29.3472 37.7368 24.701 37.5871C20.6533 37.4573 17.2288 35.0014 15.7029 32.0513C16.004 31.9399 16.305 31.8301 16.6018 31.7218C16.837 31.636 17.0697 31.5511 17.2975 31.4672C17.1497 31.2915 17.0004 31.1229 16.8534 30.9567C16.5368 30.599 16.2308 30.2533 15.9728 29.8749C15.021 28.4922 14.6383 26.9348 14.7462 25.2526C14.8051 24.374 15.0013 23.5304 15.3595 22.7268C15.9875 21.3041 16.9933 20.206 18.2542 19.3474C18.8467 18.9421 19.4642 18.5694 20.0805 18.1975C20.3675 18.0243 20.6542 17.8512 20.9379 17.6752C21.821 17.1161 22.6551 16.5021 23.2782 15.6436C24.1613 14.4256 24.4949 13.0179 24.5538 11.5404C24.5815 10.8743 24.5799 10.2033 24.5782 9.53433C24.5776 9.2794 24.577 9.02477 24.578 8.77083C15.806 8.99401 8.76353 16.175 8.76353 25.0008C8.76353 33.9673 16.0323 41.2361 24.9988 41.2361ZM24.9988 42.2301C34.5143 42.2301 42.2281 34.5163 42.2281 25.0008C42.2281 15.4853 34.5143 7.77148 24.9988 7.77148C15.4833 7.77148 7.76953 15.4853 7.76953 25.0008C7.76953 34.5163 15.4833 42.2301 24.9988 42.2301ZM31.4029 30.8133C31.4863 30.8682 31.6629 30.8982 31.7267 30.8483C33.6892 29.2859 34.5184 27.2493 34.1504 24.7434C33.8953 22.9963 32.9925 21.6086 31.6041 20.5803C30.928 20.081 30.2154 19.6299 29.5033 19.1791C29.1404 18.9494 28.7776 18.7197 28.4199 18.4838C27.1492 17.6502 26.0502 16.6519 25.3977 15.2292C25.3875 15.2076 25.3743 15.1804 25.3589 15.1486C25.2855 14.997 25.1614 14.7404 25.064 14.4805C25.0326 14.552 25.006 14.6207 24.9807 14.6862C24.9388 14.7946 24.9001 14.8945 24.8482 14.9847L24.5931 15.4938C24.2545 16.0529 24.2104 16.1228 23.8081 16.6319C23.0427 17.6003 22.0173 18.2492 20.9821 18.8782C20.7795 19.0009 20.5754 19.1212 20.3713 19.2414C19.4879 19.7618 18.6051 20.2819 17.8519 20.9997C16.1788 22.592 15.5116 24.5487 15.8501 26.83C16.0954 28.4572 16.9393 29.7601 18.21 30.7784C18.3523 30.8882 18.4553 30.8732 18.5878 30.7884C19.6476 30.1345 20.5896 29.3408 21.3991 28.3824C22.9544 26.5404 23.9307 24.399 24.4949 22.0629C24.6717 21.3225 24.8038 20.5726 24.927 19.8729C24.9815 19.563 25.0344 19.263 25.0886 18.978C25.1319 19.2341 25.1731 19.5056 25.2157 19.7871C25.3037 20.3669 25.398 20.9887 25.5301 21.6036C26.0404 23.9897 26.9382 26.201 28.4445 28.1328C29.2736 29.201 30.2549 30.1045 31.4029 30.8133Z" fill="white"/>
<path fill-rule="evenodd" clip-rule="evenodd" d="M70.4077 28.9675L59.703 17.7227H59.4953L59.5784 18.4087C59.6476 18.8661 59.6822 19.41 59.6822 20.0404L59.6638 30.4412H59.6614C59.6614 30.7502 59.5368 31.016 59.2876 31.2385C59.0384 31.461 58.7407 31.5722 58.3946 31.5722H58.1869H58V31.7577H59.6614H59.7237H60.5545H60.6168H62.2782V31.5722H62.0913H61.8836C61.5375 31.5722 61.2398 31.461 60.9906 31.2385C60.7414 31.016 60.6168 30.7502 60.6168 30.4412V20.5247L71.3302 31.7613H71.5171L71.4548 31.4276C71.4272 31.1927 71.3995 30.896 71.3718 30.5375C71.3441 30.1667 71.3302 29.7835 71.3302 29.3879L71.4056 19.2803H71.4154C71.4292 18.9589 71.5608 18.6931 71.81 18.483C72.0592 18.2605 72.3569 18.1492 72.703 18.1492H72.8899H73.0768V17.9638H71.4154H71.3531H70.5224H70.4808H68.7986V18.1492H69.0063H69.1932C69.5532 18.1492 69.8509 18.2605 70.0862 18.483C70.3096 18.6714 70.4385 18.9044 70.4727 19.1822L70.4077 28.9675ZM167.77 20.5845V25.847H170.951C171.202 25.8356 171.415 25.7504 171.591 25.5915C171.766 25.4212 171.854 25.2225 171.854 24.9954V24.757H172.042V25.847V25.881V26.3238V26.3579V27.4478H171.854V27.1924C171.854 26.9653 171.766 26.7723 171.591 26.6133C171.415 26.443 171.202 26.3579 170.951 26.3579H167.77V31.45H170.461C171.126 31.45 171.666 31.3592 172.08 31.1775C172.507 30.9845 172.852 30.7177 173.115 30.3771C173.379 30.0365 173.611 29.6505 173.812 29.219H174L172.908 31.978H172.852H169.784H167.77H167.713H166.603H166.546H165.097V31.8077H165.21H165.342C165.668 31.8077 165.944 31.7055 166.17 31.5011C166.408 31.2854 166.534 31.0299 166.546 30.7347V21.2998C166.546 21.0046 166.427 20.7548 166.189 20.5504C165.95 20.3347 165.668 20.2269 165.342 20.2269H165.229H165.116L165.097 20.0566H166.546H166.603H167.713H167.77H170.556C170.832 20.0566 171.12 20.0395 171.421 20.0055C171.735 19.9714 172.024 19.9317 172.287 19.8862C172.551 19.8408 172.739 19.7954 172.852 19.75V20.0566V20.2439V20.5334V20.5845V21.8959H172.664V21.5893C172.664 21.3168 172.557 21.0841 172.344 20.8911C172.171 20.7257 171.965 20.6235 171.727 20.5845H167.77ZM157.061 20.0547H159.301C160.104 20.0547 160.794 20.1853 161.371 20.4464C161.948 20.7075 162.394 21.0879 162.707 21.5874C163.021 22.0757 163.178 22.6604 163.178 23.3416C163.178 23.8639 163.065 24.335 162.839 24.7551C162.613 25.1639 162.312 25.5102 161.936 25.794C161.559 26.0778 161.133 26.2936 160.656 26.4412C160.179 26.5774 159.683 26.6285 159.169 26.5944C158.667 26.5604 158.178 26.4298 157.701 26.2027V26.0324L158.021 26.0835C158.234 26.1062 158.504 26.1119 158.83 26.1005C159.169 26.0778 159.52 26.0154 159.884 25.9132C160.261 25.7997 160.606 25.6067 160.919 25.3342C161.246 25.0617 161.49 24.6813 161.653 24.1931C161.691 24.0682 161.722 23.915 161.748 23.7333C161.773 23.5403 161.779 23.3529 161.766 23.1713C161.754 22.3879 161.528 21.7577 161.089 21.2809C160.65 20.804 160.028 20.5656 159.225 20.5656H157.061V30.7329C157.073 31.0281 157.193 31.2835 157.419 31.4992C157.657 31.7036 157.939 31.8058 158.265 31.8058H158.378H158.51V31.9761H157.061H157.004H155.894H155.837H154.388V31.8058H154.501H154.633C154.959 31.8058 155.235 31.7036 155.461 31.4992C155.699 31.2835 155.825 31.0281 155.837 30.7329V21.2979C155.837 21.0027 155.718 20.7529 155.48 20.5486C155.241 20.3329 154.959 20.225 154.633 20.225H154.52H154.407L154.388 20.0547H155.837H155.894H156.816H157.061ZM151.82 30.733L146.776 19.8164H146.607C146.607 19.9072 146.569 20.0492 146.494 20.2422C146.431 20.4352 146.35 20.6339 146.249 20.8382C146.161 21.0426 146.08 21.2186 146.005 21.3662L145.911 21.5706L141.593 30.8487C141.402 31.1751 141.167 31.4147 140.885 31.5675C140.584 31.7265 140.289 31.8059 140 31.8059H139.925H139.831V31.9763H143.614V31.8059H143.445C143.294 31.8059 143.144 31.7662 142.993 31.6867C142.855 31.5959 142.755 31.471 142.692 31.3121C142.638 31.1749 142.64 31.0125 142.698 30.8247L143.99 27.8378H149.067L150.312 30.8279C150.409 31.1236 150.372 31.3587 150.202 31.5335C150.014 31.7151 149.8 31.8059 149.562 31.8059H149.393V31.9763H153.628V31.8059H153.552H153.477C153.188 31.8059 152.887 31.7265 152.573 31.5675C152.26 31.3972 152.009 31.119 151.82 30.733ZM148.854 27.3269L146.577 21.8601L144.211 27.3269H148.854ZM139.379 27.0033L139.153 29.6771C138.827 30.1653 138.413 30.6024 137.911 30.9885C137.422 31.3631 136.838 31.664 136.161 31.8911C135.496 32.1068 134.73 32.2147 133.864 32.2147C132.559 32.2033 131.399 31.9422 130.382 31.4313C129.366 30.9204 128.569 30.2051 127.992 29.2854C127.427 28.3544 127.145 27.2588 127.145 25.9985C127.145 24.761 127.427 23.6824 127.992 22.7627C128.557 21.8317 129.347 21.1107 130.364 20.5998C131.392 20.0775 132.597 19.8164 133.977 19.8164C134.906 19.8164 135.74 19.9299 136.481 20.157C137.234 20.3727 137.886 20.6452 138.438 20.9745L138.815 23.3758H138.645C138.369 22.3767 137.804 21.6216 136.951 21.1107C136.098 20.5885 135.107 20.3273 133.977 20.3273C132.873 20.3273 131.913 20.5658 131.098 21.0426C130.295 21.5081 129.667 22.1666 129.215 23.0182C128.776 23.8583 128.557 24.8461 128.557 25.9815C128.557 27.1169 128.776 28.1103 129.215 28.9618C129.667 29.8134 130.288 30.4776 131.079 30.9544C131.882 31.4313 132.81 31.6811 133.864 31.7038C134.755 31.7038 135.577 31.5562 136.33 31.261C137.096 30.9544 137.735 30.4605 138.25 29.7793C138.764 29.0867 139.091 28.1614 139.229 27.0033H139.379ZM122.897 19.8351C122.654 19.8122 122.425 19.8008 122.21 19.8008C121.441 19.8008 120.788 19.9436 120.249 20.2293C119.723 20.5035 119.325 20.8634 119.056 21.309C118.786 21.7547 118.651 22.2174 118.651 22.6973C118.651 23.0287 118.732 23.3886 118.894 23.7771C119.056 24.1541 119.339 24.5026 119.743 24.8226L123.625 27.8734C123.881 28.0676 124.076 28.3018 124.211 28.5761C124.346 28.8389 124.413 29.136 124.413 29.4673C124.413 30.1529 124.144 30.7013 123.605 31.1127C123.079 31.5126 122.446 31.7297 121.704 31.764C121.111 31.7868 120.579 31.6897 120.107 31.4726C119.649 31.2441 119.298 30.9127 119.056 30.4785C118.813 30.0443 118.725 29.5359 118.793 28.9531H118.611C118.517 29.2045 118.442 29.4845 118.388 29.793C118.335 30.09 118.308 30.3757 118.308 30.6499C118.308 30.9241 118.328 31.1527 118.368 31.3355C118.638 31.564 118.975 31.7525 119.379 31.9011C119.797 32.0382 120.222 32.1353 120.653 32.1924C121.098 32.2496 121.482 32.2781 121.805 32.2781C122.964 32.2781 123.881 31.9811 124.555 31.3869C125.242 30.7927 125.586 30.0215 125.586 29.0731C125.586 28.7303 125.519 28.3761 125.384 28.0105C125.249 27.6448 124.98 27.3021 124.575 26.9821L120.592 23.8628C120.282 23.6114 120.067 23.3429 119.945 23.0572C119.837 22.7602 119.784 22.5031 119.784 22.286C119.784 21.7604 120.013 21.3033 120.471 20.9148C120.929 20.5149 121.529 20.315 122.27 20.315C122.904 20.315 123.443 20.4749 123.888 20.7949C124.333 21.1034 124.555 21.5318 124.555 22.0803H124.737V20.3321V20.1778V19.9722H123.847C123.776 19.9602 123.702 19.9487 123.625 19.9379C123.396 19.8922 123.153 19.8579 122.897 19.8351ZM110.896 19.8164L115.94 30.733C116.128 31.119 116.379 31.3972 116.693 31.5675C117.007 31.7265 117.308 31.8059 117.597 31.8059H117.672H117.747V31.9763H113.512V31.8059H113.682C113.92 31.8059 114.133 31.7151 114.322 31.5335C114.492 31.3588 114.529 31.1236 114.432 30.828L113.186 27.8378H108.11L106.817 30.8246C106.759 31.0125 106.757 31.1749 106.812 31.3121C106.874 31.471 106.975 31.5959 107.113 31.6867C107.263 31.7662 107.414 31.8059 107.564 31.8059H107.734V31.9763H103.951V31.8059H104.045H104.12C104.409 31.8059 104.704 31.7265 105.005 31.5675C105.286 31.4147 105.522 31.1751 105.713 30.8487L110.03 21.5706L110.124 21.3662C110.2 21.2186 110.281 21.0426 110.369 20.8382C110.469 20.6339 110.551 20.4352 110.614 20.2422C110.689 20.0492 110.727 19.9072 110.727 19.8164H110.896ZM110.697 21.8601L112.974 27.3269H108.331L110.697 21.8601ZM100.569 19.8164L95.4289 30.0916L90.1793 19.8164H89.9911L88.5886 30.733H88.5794C88.5293 31.0736 88.3724 31.3404 88.1089 31.5335C87.8454 31.7151 87.5442 31.8059 87.2054 31.8059H87.0549H86.9043V31.9763H88.4289H88.9935H89.4076H89.4453H90.5557V31.823H90.2734C90.0727 31.823 89.897 31.7492 89.7464 31.6016C89.6084 31.4426 89.5394 31.2723 89.5394 31.0907V31.0396V31.0309L90.3606 22.7815L95.1671 32.2147H95.3553C95.393 31.9763 95.462 31.7265 95.5624 31.4653C95.6628 31.1928 95.7569 30.9601 95.8447 30.7671L95.9953 30.4776L99.9411 22.5262L100.795 31.038V31.0396V31.0907C100.795 31.2723 100.726 31.4426 100.588 31.6016C100.45 31.7492 100.274 31.823 100.061 31.823H99.7785V31.9763H100.889H100.927H101.792H102.357H103.863V31.8059H103.712H103.562C103.235 31.8059 102.941 31.7151 102.677 31.5335C102.428 31.3511 102.269 31.1029 102.199 30.7889L100.738 19.8164H100.569ZM79.9795 19.8164L85.0235 30.733C85.2117 31.119 85.4629 31.3972 85.7766 31.5675C86.0903 31.7265 86.3915 31.8059 86.6801 31.8059H86.7554H86.8306V31.9763H82.5957V31.8059H82.7651C83.0035 31.8059 83.2168 31.7151 83.4051 31.5335C83.5754 31.3588 83.6121 31.1236 83.5152 30.828L82.2699 27.8378H77.1934L75.9008 30.8246C75.8429 31.0125 75.841 31.1749 75.8951 31.3121C75.9578 31.471 76.0582 31.5959 76.1963 31.6867C76.3468 31.7662 76.4974 31.8059 76.648 31.8059H76.8174V31.9763H73.0342V31.8059H73.1283H73.2036C73.4922 31.8059 73.7871 31.7265 74.0882 31.5675C74.3696 31.4147 74.6056 31.1751 74.7962 30.8487L79.1137 21.5706L79.2078 21.3662C79.2831 21.2186 79.3646 21.0426 79.4524 20.8382C79.5528 20.6339 79.6344 20.4352 79.6971 20.2422C79.7724 20.0492 79.8101 19.9072 79.8101 19.8164H79.9795ZM79.7803 21.8601L82.0571 27.3269H77.4145L79.7803 21.8601Z" fill="white"/>
</svg>
