<svg width="26" height="26" viewBox="0 0 26 26" fill="none" xmlns="http://www.w3.org/2000/svg">
<path fill-rule="evenodd" clip-rule="evenodd" d="M13.0003 3.72852C7.87979 3.72852 3.72949 7.87881 3.72949 12.9993C3.72949 18.1199 7.87979 22.2702 13.0003 22.2702C18.1209 22.2702 22.2712 18.1199 22.2712 12.9993C22.2712 7.87881 18.1209 3.72852 13.0003 3.72852ZM2.22949 12.9993C2.22949 7.05039 7.05136 2.22852 13.0003 2.22852C18.9493 2.22852 23.7712 7.05039 23.7712 12.9993C23.7712 18.9483 18.9493 23.7702 13.0003 23.7702C7.05136 23.7702 2.22949 18.9483 2.22949 12.9993Z" fill="#B09684"/>
<path fill-rule="evenodd" clip-rule="evenodd" d="M13.3838 7.75V13.325L17.7463 15.9275L16.9778 17.2157L11.8838 14.1768V7.75H13.3838Z" fill="#B09684"/>
</svg>
