<?xml version="1.0" standalone="no"?>
<!DOCTYPE svg PUBLIC "-//W3C//DTD SVG 1.1//EN" "http://www.w3.org/Graphics/SVG/1.1/DTD/svg11.dtd" >
<svg xmlns="http://www.w3.org/2000/svg">
<metadata>Generated by IcoMoon</metadata>
<defs>
<font id="Namescape" horiz-adv-x="1024">
<font-face units-per-em="1024" ascent="960" descent="-64" />
<missing-glyph horiz-adv-x="1024" />
<glyph unicode="&#x20;" horiz-adv-x="512" d="" />
<glyph unicode="&#xe900;" glyph-name="website-bg" d="M512-64c282.769 0 512 229.231 512 512s-229.231 512-512 512c-282.77 0-512-229.23-512-512s229.23-512 512-512zM439.467 761.65l-1.131-3.383c-13.265-39.732-23.914-80.109-31.945-120.876 70.221 7.091 140.983 7.091 211.204 0-8.030 40.767-18.679 81.144-31.949 120.877l-1.126 3.382c-23.305 5.366-47.578 8.202-72.529 8.202-24.947 0-49.225-2.836-72.525-8.201zM394.931 565.047c-9.355-77.764-9.356-156.386-0.002-234.146 77.757-9.353 156.371-9.353 234.127 0 9.357 77.76 9.353 156.382 0 234.145-77.756 9.353-156.369 9.353-234.125 0zM355.66 729.408c-52.452-29.199-95.896-72.64-125.099-125.090 33.727 9.379 67.81 17.039 102.119 22.981 5.942 34.306 13.602 68.386 22.98 102.109zM198.312 520.508c-5.367-23.305-8.206-47.586-8.206-72.542 0-24.947 2.837-49.225 8.202-72.529l3.382-1.126c39.738-13.269 80.121-23.919 120.895-31.949-7.092 70.225-7.092 141.001 0.002 211.226-40.774-8.031-81.158-18.681-120.896-31.95l-3.379-1.131zM701.402 553.588c7.091-70.225 7.091-141.001 0-211.226 40.772 8.030 81.152 18.679 120.892 31.949l3.379 1.126c5.367 23.305 8.205 47.582 8.205 72.529 0 24.956-2.837 49.237-8.205 72.542l-3.379 1.131c-39.74 13.268-80.119 23.918-120.892 31.949zM668.326 729.406c9.378-33.723 17.037-67.802 22.98-102.108 34.308-5.942 68.39-13.602 102.114-22.98-29.201 52.448-72.644 95.888-125.094 125.088zM230.552 291.631c29.203-52.459 72.651-95.902 125.108-125.107-9.379 33.728-17.040 67.814-22.982 102.127-34.311 5.939-68.396 13.602-102.126 22.98zM406.388 258.556c8.032-40.772 18.681-81.152 31.948-120.892l1.131-3.379c23.3-5.367 47.578-8.205 72.525-8.205s49.225 2.837 72.529 8.205l1.126 3.379c13.269 39.74 23.919 80.119 31.953 120.892-70.221-7.091-140.992-7.091-211.212 0zM691.311 268.651c-5.943-34.313-13.606-68.395-22.985-102.123 52.454 29.201 95.902 72.649 125.103 125.103-33.728-9.378-67.81-17.041-102.118-22.98zM119.458 447.966c0 216.791 175.743 392.534 392.533 392.534s392.533-175.743 392.533-392.534c0-216.789-175.744-392.533-392.533-392.533s-392.533 175.744-392.533 392.533z" />
<glyph unicode="&#xe901;" glyph-name="instagram-bg" d="M512-64c-282.77 0-512 229.231-512 512s229.23 512 512 512c282.769 0 512-229.23 512-512s-229.231-512-512-512zM476.595 806.224v0c-133.361 0.963-255.092 1.841-304.034-123.665-19.433-49.83-19.202-112.812-18.885-199.145 0.042-11.375 0.085-23.155 0.085-35.362 0-9.916-0.034-19.763-0.068-29.517v-0.009c-0.281-80.789-0.539-155.021 18.868-204.945 48.826-125.568 171.485-124.672 304.136-123.703h0.034c11.669 0.085 23.415 0.171 35.196 0.171 12.309 0 24.653-0.115 36.966-0.226 128.294-1.165 253.269-2.3 302.443 123.759 19.443 50.266 19.209 112.358 18.884 198.66v0.073c-0.043 11.473-0.085 23.377-0.085 35.738 0 13.393 0.068 26.33 0.137 38.835 0.649 118.106 1.084 197.801-60.297 259.097-61.619 61.572-142.707 61.024-257.156 60.253-13.205-0.089-26.854-0.181-40.973-0.181h0.162c-11.866 0-23.684 0.085-35.413 0.17zM537.51 741.922h0.004c253.525 2.386 286.153 2.693 266.074-438.413-6.938-151.748-112.572-150.592-249.139-149.094h-0.026c-13.833 0.154-27.981 0.307-42.372 0.307-285.435 0-293.642 8.162-293.642 293.491 0 288.64 22.641 293.164 261.497 293.407v-0.081c20.365 0.032 39.543 0.213 57.604 0.383zM703.241 682.115c-23.731 0-42.978-19.229-42.978-42.943s19.247-42.943 42.978-42.943c23.731 0 42.978 19.229 42.978 42.943s-19.247 42.943-42.978 42.943zM512.009 631.9c-101.599 0-183.954-82.33-183.954-183.849 0-101.521 82.355-183.812 183.954-183.812 101.602 0 183.915 82.291 183.915 183.812 0 101.519-82.313 183.849-183.915 183.849zM512.009 567.385c157.879 0 158.080-238.668 0-238.668-157.837 0-158.080 238.668 0 238.668z" />
<glyph unicode="&#xe902;" glyph-name="uniE902" d="M512 960c282.77 0 512-229.23 512-512s-229.23-512-512-512c-282.77 0-512 229.23-512 512s229.23 512 512 512z" />
<glyph unicode="&#xe903;" glyph-name="uniE903" d="M874.095 168.614l-102.298-102.298-32.691 32.695 46.054 46.054h-39.39c-52.881 0-95.753 42.871-95.753 95.753v336.944c0 33.632-27.482 60.844-61.222 60.406-32.32-0.419-58.812-27.138-59.584-60.17v-0.193h-0.004c-0.009-0.429-0.013-0.858-0.013-1.289v-367.532h-46.238v367.532c0 0.608 0.009 1.215 0.017 1.821-0.286 33.118-27.226 59.879-60.41 59.879-33.363 0-60.411-27.048-60.411-60.411v-368.82h-46.236v368.832h-0.006c0 33.364-27.048 60.412-60.411 60.412v46.236c33.84 0 64-15.762 83.537-40.344 19.538 24.576 49.693 40.333 83.528 40.333 33.978 0 64.241-15.889 83.77-40.64 19.149 24.256 48.461 40.154 81.865 40.588 59.541 0.773 108.053-47.27 108.053-106.639v-336.944c0-27.345 22.17-49.515 49.519-49.515h40.247l-46.912 46.916 32.691 32.691 102.298-102.298z" />
<glyph unicode="&#xe904;" glyph-name="edit" d="M551.794 694.375l207.425-207.423-465.64-465.64-207.228 0.198-0.195 207.226 465.638 465.639zM150.181 202.253l0.11-116.806 116.803-0.109 401.61 401.615-116.91 116.913-401.613-401.613zM575.714 339l-172.666 172.666 45.255 45.254 172.666-172.666-45.255-45.254zM937.843 21.376h-428.234v64h364.234v725.332h-723.677v-371.046h-64v435.046h851.677v-853.332z" />
<glyph unicode="&#xe905;" glyph-name="calendar" d="M130.923 579.981h762.533v-59.076h-762.533v59.076zM657.77 425.846h59.443v-59.077h-59.443v59.077zM482.655 425.846h59.443v-59.077h-59.443v59.077zM307.154 425.846h59.442v-59.077h-59.442v59.077zM657.77 272.463h59.443v-59.077h-59.443v59.077zM482.655 272.463h59.443v-59.077h-59.443v59.077zM307.154 272.463h59.442v-59.077h-59.442v59.077zM701.152 872.212v-188.954h-59.077v188.954h59.077zM382.346 872.212v-188.954h-59.077v188.954h59.077zM127.308 809.885h769.48v-786.089h-769.48v786.089zM186.385 750.808v-667.935h651.326v667.935h-651.326z" />
<glyph unicode="&#xe906;" glyph-name="scorpio" d="M138 898.608c-33.14 39.181-82.665 64.058-138 64.058v-85.333c52.65 0 95.333-42.683 95.333-95.333v-609.333h85.333v609.332c0 52.649 42.683 95.333 95.333 95.333s95.333-42.683 95.333-95.333h0.012l-0.012-2.060v-607.272h85.332v607.272c0 53.334 42.394 96.712 94.054 97.382 53.244 0.691 96.614-42.25 96.614-95.325v-556.662c0-89.843 72.828-162.667 162.662-162.667h54.332l-68.497-68.497 60.343-60.339 172.169 172.169-172.169 172.173-60.343-60.339 69.833-69.833h-55.667c-42.709 0-77.329 34.62-77.329 77.333v556.662c0 100.573-82.189 181.96-183.053 180.651-54.639-0.709-102.788-25.82-135.231-64.497-33.141 39.443-82.836 64.514-138.384 64.514-55.334 0-104.858-24.877-137.999-64.057z" />
<glyph unicode="&#xe907;" glyph-name="location-fill" horiz-adv-x="878" d="M24.393 529.981c0 224.298 187.435 405.59 414.156 405.59 227.361 0 414.794-181.292 414.794-405.59 0-113.027-41.106-217.959-108.763-306.896-74.637-98.107-166.634-183.589-270.185-250.683-23.7-15.506-45.089-16.677-71.099 0-104.142 67.094-196.138 152.576-270.139 250.683-67.707 88.937-108.764 193.869-108.764 306.896zM302.056 517.32c0-75.14 61.315-134.238 136.495-134.238 75.23 0 137.135 59.098 137.135 134.238 0 74.555-61.904 136.53-137.135 136.53-75.18 0-136.495-61.975-136.495-136.53z" />
<glyph unicode="&#xe908;" glyph-name="duplicate" d="M296.813 322.25h269.447v-63.997h-269.447v63.997zM463.532 425v-269.448h-64v269.448l64-0.001zM96 760.375h471.683l230.769-240.337v-537.286h-702.451v777.623zM160 696.375v-649.623h574.451v447.535l-194.043 202.088h-380.408zM263.656 928h471.684l230.771-240.337v-537.289h-143.622v64h79.622v447.537l-194.048 202.088h-380.408v-83.825h-64v147.825z" />
<glyph unicode="&#xe909;" glyph-name="delete" d="M140.531 716.75h742.899l-66.605-695.432h-609.689l-66.605 695.432zM210.954 652.75l54.346-567.432h493.363l54.349 567.432h-602.058zM343.498 874.625h337.084l62.842-190.946-60.794-20.007-48.362 146.953h-244.456l-48.364-146.953-60.792 20.007 62.842 190.946zM544.031 507.125v-276.175h-64v276.175h64z" />
<glyph unicode="&#xe90a;" glyph-name="ticket" d="M616.998 785.833v-159.509h-64v159.509h64zM616.998 252.668v-143.881h-64v143.881h64zM616.998 578.5v-254.267h-64v254.267h64zM85.333 795.75h853.333v-294.895h-32c-30.268 0-53.905-23.919-53.905-52.881 0-28.941 23.616-52.834 53.905-52.834h32v-294.857h-853.333v294.857h32c30.289 0 53.906 23.893 53.906 52.834 0 27.315-21.921 49.549-53.906 49.549h-32v298.227zM149.333 731.75v-174.352c48.585-12.806 85.906-54.362 85.906-109.424 0-53.931-36.461-98.756-85.906-112.495v-171.196h725.333v171.196c-49.446 13.739-85.905 58.564-85.905 112.495 0 53.922 36.45 98.787 85.905 112.537v171.239h-725.333z" />
<glyph unicode="&#xe90b;" glyph-name="download" d="M479.979 857.333v-609.184h64v609.184h-64zM327.021 388.595l184.983-185.805 185.037 185.796-45.346 45.163-139.682-140.258-139.636 140.258-45.356-45.154zM85.333 590.333h261.333v-64.002h-197.333v-423.629h725.333v423.629h-197.333v64.002h261.333v-551.631h-853.333v551.631z" />
<glyph unicode="&#xe90c;" glyph-name="call" d="M274.661 876.467l161.693-222.103-72.957-126.707c0.242-0.744 0.502-1.533 0.782-2.359 2.676-7.936 7.008-19.432 13.5-33.13 13.012-27.453 34.516-63.375 68.413-97.273 35.837-35.837 73.837-59.31 102.905-73.81 14.507-7.236 26.689-12.186 35.12-15.292 0.976-0.358 1.898-0.693 2.768-1.004l126.409 72.786 228.366-168.4-11.028-19.705c-38.909-69.513-88.453-119.057-157.966-157.966l-5.284-2.956-6.048-0.276c-205.561-9.411-382.805 102.38-502.455 241.541-59.989 69.772-106.308 147.279-135.101 221.757-28.617 74.025-40.753 147.267-29.458 207.66l0.813 4.348 2.225 3.823c39.318 67.562 90.011 117.864 157.302 157.334l20.001 11.731zM589.793 276.924c-6.769-24.692-6.786-24.685-6.786-24.685l-0.058 0.014-0.106 0.031-0.304 0.085-0.973 0.283c-0.806 0.239-1.929 0.577-3.345 1.027-2.826 0.898-6.827 2.236-11.807 4.072-9.957 3.669-23.883 9.346-40.271 17.517-32.71 16.316-75.609 42.776-116.258 83.425-38.973 38.973-63.587 80.131-78.474 111.544-7.457 15.735-12.519 29.116-15.751 38.7-1.617 4.796-2.78 8.653-3.557 11.39-0.389 1.369-0.682 2.461-0.888 3.253l-0.244 0.956-0.075 0.304-0.026 0.109-0.010 0.041c0 0 41.566 9.94-0.008 0.038l-2.356 9.892 66.899 116.184-114.479 157.251c-48.835-32.198-86.534-71.655-117.013-122.812-7.601-47.053 1.694-108.42 27.631-175.509 26.553-68.687 69.735-141.203 126.168-206.841 111.956-130.215 272.915-230.028 455.225-224.014 51.913 29.996 90.266 66.492 121.521 115.944l-164.608 121.382-116.521-67.092-10.312 2.826 6.786 24.685z" />
<glyph unicode="&#xe90d;" glyph-name="mail" d="M264.022 618.4l249.661-202.875 249.658 202.875 32.29-39.735-281.948-229.113-281.95 229.113 32.289 39.735zM59.733 857.6h904.533v-819.2h-904.533v819.2zM110.933 806.4v-716.8h802.133v716.8h-802.133z" />
<glyph unicode="&#xe90e;" glyph-name="short-down" horiz-adv-x="704" d="M313.875-57.568v988.111h96v-988.111h-96zM409.875-9.619c0 188.48-165.432 342.111-342.113 342.111h-48v-95.999h48c125.716 0 246.113-112.685 246.113-246.112v-48h96v48zM313.875-9.619c0 188.48 165.431 342.111 342.112 342.111h48v-95.999h-48c-125.716 0-246.112-112.685-246.112-246.112v-48h-96v48z" />
<glyph unicode="&#xe90f;" glyph-name="short-up" horiz-adv-x="704" d="M294.125 953.617v-988.113h96v988.113h-96zM390.125 905.605c0-188.479-165.431-342.112-342.112-342.112h-48v96h48c125.716 0 246.112 112.684 246.112 246.112v48h96v-48zM294.125 905.605c0-188.479 165.432-342.112 342.113-342.113h47.999v96h-47.999c-125.716 0.001-246.113 112.685-246.113 246.113v48h-96v-48z" />
<glyph unicode="&#xe910;" glyph-name="percentage" d="M875.964 766.745l-682.667-682.666-45.255 45.252 682.665 682.669 45.257-45.255zM746.667 288c-41.237 0-74.667-33.429-74.667-74.667s33.429-74.667 74.667-74.667c41.237 0 74.667 33.429 74.667 74.667s-33.429 74.667-74.667 74.667zM608 213.333c0 76.582 62.084 138.667 138.667 138.667s138.667-62.084 138.667-138.667c0-76.582-62.084-138.667-138.667-138.667s-138.667 62.084-138.667 138.667zM277.333 757.333c-41.237 0-74.667-33.429-74.667-74.667s33.429-74.667 74.667-74.667c41.237 0 74.667 33.429 74.667 74.667s-33.429 74.667-74.667 74.667zM138.667 682.667c0 76.584 62.083 138.667 138.667 138.667s138.667-62.083 138.667-138.667c0-76.584-62.083-138.667-138.667-138.667s-138.667 62.083-138.667 138.667z" />
<glyph unicode="&#xe911;" glyph-name="language-square" d="M267.084 609.667h489.81v-64h-489.81v64zM544 681.333v-135.68h-64v135.68h64zM650.667 610.5v-32c0-200.038-156.608-363.946-352-363.946h-32v64h32c157.888 0 288 133.052 288 299.946v32h64zM539.413 386.167l19.392-25.459c42.756-56.141 99.307-82.108 166.549-82.108h32v-64h-32c-86.357 0-162.091 34.62-217.468 107.332l-19.388 25.459 50.914 38.775zM970.667 149.333c0-88.367-71.633-160-160-160h-597.333c-88.366 0-160 71.633-160 160v597.333c0 88.366 71.634 160 160 160h597.333c88.367 0 160-71.634 160-160v-597.333zM810.667 53.333c53.018 0 96 42.982 96 96v597.333c0 53.019-42.982 96-96 96h-597.333c-53.019 0-96-42.981-96-96v-597.333c0-53.018 42.981-96 96-96h597.333z" />
<glyph unicode="&#xe912;" glyph-name="play-btn" horiz-adv-x="853" d="M798.464 448.024l-792.381-457.146v914.289l792.381-457.143z" />
<glyph unicode="&#xe913;" glyph-name="location" d="M380.334 498.951c0 72.759 58.959 131.716 131.714 131.716 72.721 0 131.673-58.964 131.673-131.716 0-72.711-58.959-131.669-131.673-131.669-72.748 0-131.714 58.952-131.714 131.669zM512.048 579.468c-44.479 0-80.514-36.038-80.514-80.517 0-44.428 36.028-80.469 80.514-80.469 44.435 0 80.473 36.035 80.473 80.469 0 44.486-36.045 80.517-80.473 80.517zM512.007 817.067c-160.765 0-297.734-145.118-292.671-308.422 3.609-116.419 77.603-224.15 154.967-304.964 38.243-39.946 76.326-72.294 104.864-94.655 13.53-10.602 24.87-18.924 33.004-24.709 8.117 5.649 19.398 13.763 32.85 24.115 28.508 21.948 66.557 53.791 104.762 93.385 77.223 80.022 151.296 187.764 154.935 306.818 4.99 163.321-131.953 308.432-292.71 308.432zM512.007 53.337c-13.974-21.449-13.981-21.446-13.988-21.439l-0.089 0.055-0.215 0.143-0.765 0.505c-0.652 0.433-1.591 1.062-2.799 1.877-2.41 1.635-5.891 4.031-10.295 7.148-8.8 6.233-21.292 15.363-36.267 27.098-29.911 23.436-69.929 57.409-110.272 99.553-79.81 83.367-164.945 202.892-169.158 338.78-5.922 191.019 153.025 361.209 343.847 361.209 190.826 0 349.723-170.192 343.887-361.196-4.229-138.431-89.303-257.946-169.267-340.808-40.383-41.851-80.435-75.36-110.377-98.403-14.991-11.537-27.498-20.494-36.311-26.6-4.41-3.052-7.898-5.396-10.315-6.997-1.208-0.799-2.15-1.413-2.809-1.84l-0.765-0.495-0.218-0.137-0.068-0.044c-0.007-0.007-0.038-0.024-13.756 21.589zM512.007 53.337l13.718-21.613-13.899-8.82-13.807 8.994 13.988 21.439z" />
<glyph unicode="&#xe914;" glyph-name="cross" d="M512 891.733c-245.067 0-443.733-198.666-443.733-443.733s198.666-443.733 443.733-443.733c245.067 0 443.733 198.666 443.733 443.733s-198.666 443.733-443.733 443.733zM0 448c0 282.77 229.23 512 512 512s512-229.23 512-512c0-282.771-229.229-512-512-512s-512 229.229-512 512zM331.333 219.061l409.599 409.601-48.271 48.272-409.599-409.601 48.272-48.271zM692.668 219.061l-409.601 409.601 48.272 48.272 409.601-409.601-48.271-48.271z" />
<glyph unicode="&#xe915;" glyph-name="language" d="M512 886.857c-242.396 0-438.857-196.461-438.857-438.857s196.461-438.857 438.857-438.857c242.395 0 438.857 196.462 438.857 438.857s-196.462 438.857-438.857 438.857zM864.285 605.593c-51.939 15.901-104.591 28.268-157.59 37.101-8.836 53.002-21.2 105.651-37.102 157.593 86.217-38.868 155.824-108.477 194.692-194.694zM413.414 810.534l3.888 11.66c30.387 7.42 61.835 11.66 94.698 11.66s64.311-4.24 94.698-11.66l3.888-11.66c17.664-52.649 31.093-106.004 40.986-160.066-92.928 10.601-186.565 10.601-279.142 0 9.893 54.062 23.322 107.418 40.986 160.066zM137.806 353.302c-7.42 30.387-11.66 62.19-11.66 94.698s4.24 64.311 11.66 94.698l11.66 3.888c52.649 17.664 106.004 31.093 160.066 40.986-10.601-92.928-10.601-186.214 0-279.142-54.062 9.893-107.418 23.322-160.066 40.986l-11.66 3.888zM159.713 290.406c51.942-15.901 104.591-28.266 157.593-37.102 8.833-52.999 21.201-105.651 37.101-157.59-86.217 38.868-155.826 108.475-194.694 194.692zM317.306 642.694c-53.002-8.833-105.651-21.201-157.593-37.101 38.868 86.217 108.477 155.826 194.694 194.694-15.901-51.942-28.268-104.591-37.101-157.593zM610.586 85.467l-3.888-11.308c-30.387-7.775-62.19-12.014-94.698-12.014s-64.311 4.239-94.698 12.014l-3.888 11.308c-17.664 52.648-31.093 106.002-40.986 160.066 92.577-10.602 186.214-10.602 279.142 0-9.893-54.064-23.322-107.418-40.986-160.066zM659.697 300.303c-97.876-13.074-197.519-13.074-295.75 0-12.721 97.876-12.721 197.519 0 295.75 98.231 12.721 197.874 12.721 295.75 0 13.074-98.231 13.074-197.874 0-295.75zM669.594 95.715c15.901 51.939 28.266 104.591 37.102 157.59 52.999 8.836 105.651 21.2 157.59 37.102-38.868-86.217-108.475-155.824-194.692-194.692zM874.533 349.414c-52.648-17.664-106.002-31.093-160.066-40.986 10.602 92.928 10.602 186.214 0 279.142 54.064-9.893 107.418-23.322 160.066-40.986l11.308-3.888c7.775-30.387 12.014-61.835 12.014-94.698s-4.239-64.311-12.014-94.698l-11.308-3.888z" />
<glyph unicode="&#xe916;" glyph-name="instagram" d="M531.657 947.208h3.422c88.435 0 157.099 0 211.627-5.546 55.373-5.633 99.469-17.233 137.481-42.631 31.215-20.856 58.014-47.657 78.869-78.87 25.399-38.010 37.001-82.107 42.633-137.483 5.547-54.526 5.547-123.189 5.547-211.63v-3.413c0-88.439 0-157.103-5.547-211.631-5.632-55.373-17.233-99.473-42.633-137.481-20.855-31.215-47.654-58.014-78.869-78.874-38.012-25.395-82.108-36.996-137.481-42.628-54.528-5.547-123.191-5.547-211.631-5.547h-3.413c-88.439 0-157.105 0-211.631 5.547-55.375 5.632-99.473 17.233-137.483 42.628-31.214 20.86-58.014 47.659-78.87 78.874-25.398 38.007-36.998 82.108-42.631 137.481-5.547 54.528-5.546 123.187-5.546 211.627v3.422c0 88.437 0 157.1 5.546 211.625 5.633 55.375 17.233 99.473 42.631 137.483 20.856 31.214 47.657 58.014 78.87 78.87 38.010 25.398 82.107 36.998 137.483 42.631 54.525 5.547 123.187 5.547 211.626 5.546zM326.076 882.235c-50.653-5.153-83.783-15.124-110.342-32.871-24.692-16.498-45.892-37.698-62.39-62.39-17.746-26.56-27.718-59.689-32.87-110.342-5.204-51.152-5.24-116.784-5.24-207.291 0-90.509 0.036-156.139 5.24-207.292 5.152-50.654 15.124-83.78 32.87-110.34 16.498-24.691 37.699-45.892 62.39-62.391 26.559-17.745 59.689-27.716 110.342-32.87 51.151-5.205 116.783-5.239 207.292-5.239 90.505 0 156.139 0.034 207.292 5.239 50.65 5.154 83.78 15.125 110.34 32.87 24.691 16.499 45.892 37.7 62.391 62.391 17.745 26.56 27.716 59.686 32.87 110.34 5.201 51.153 5.239 116.783 5.239 207.292 0 90.507-0.038 156.139-5.239 207.291-5.154 50.653-15.125 83.782-32.87 110.342-16.499 24.692-37.7 45.891-62.391 62.39-26.56 17.746-59.691 27.718-110.34 32.871-51.153 5.204-116.787 5.239-207.292 5.239-90.509 0-156.14-0.036-207.292-5.239zM789.316 763.75c-21.205 0-38.4-17.192-38.4-38.4s17.195-38.4 38.4-38.4c21.21 0 38.4 17.192 38.4 38.4s-17.19 38.4-38.4 38.4zM870.383 725.35c0-44.772-36.292-81.067-81.067-81.067-44.77 0-81.067 36.295-81.067 81.067s36.297 81.067 81.067 81.067c44.774 0 81.067-36.295 81.067-81.067zM533.316 217.617c139.029 0 251.733 112.704 251.733 251.733 0 139.028-112.704 251.733-251.733 251.733s-251.733-112.705-251.733-251.733c0-139.029 112.705-251.733 251.733-251.733zM725.316 469.35c0-106.039-85.961-192-192-192s-192 85.961-192 192c0 106.038 85.96 192 192 192s192-85.961 192-192z" />
<glyph unicode="&#xe917;" glyph-name="privacy-policy" d="M686.332 589.184l-205.115-205.221-119.504 119.695 38.82 38.758 80.706-80.83 166.294 166.378 38.799-38.78zM148.857 859.429h726.246v-413.572c0-152.569-91.75-255.254-179.248-318.267-43.919-31.627-87.658-53.976-120.338-68.418-16.377-7.237-30.076-12.533-39.768-16.044-4.849-1.759-8.7-3.072-11.388-3.961-1.346-0.446-2.403-0.783-3.149-1.020l-0.881-0.274-0.263-0.084-0.084-0.026-8.005-2.421-9.23 2.805c-0.746 0.238-1.803 0.574-3.149 1.020-2.688 0.889-6.543 2.202-11.388 3.961-9.691 3.511-23.391 8.806-39.771 16.044-32.677 14.442-76.42 36.791-120.335 68.418-87.499 63.013-179.247 165.698-179.247 318.267v413.572zM511.978 92.899c1.503 0.519 3.2 1.123 5.080 1.803 8.667 3.141 21.193 7.976 36.286 14.647 30.263 13.374 70.448 33.946 110.453 62.757 80.347 57.863 156.449 146.107 156.449 273.752v358.715h-616.532v-358.715c0-127.645 76.099-215.888 156.447-273.752 40.007-28.811 80.188-49.382 110.454-62.757 15.093-6.671 27.619-11.505 36.286-14.647 1.88-0.68 3.577-1.284 5.076-1.803z" />
<glyph unicode="&#xe918;" glyph-name="facebook" d="M464.781 3.836c6.635 5.675 10.453 13.969 10.453 22.699v298.15c0 16.495-13.372 29.867-29.867 29.867h-78.467v63.599h78.467c16.495 0 29.867 13.372 29.867 29.867v94c0 47.506 14.025 80.704 35.294 101.991 21.295 21.317 53.303 34.143 95.996 34.143 21.751 0 44.382-1.954 61.837-3.97 1.301-0.15 2.569-0.301 3.806-0.45v-49.18h-23.936c-32.986 0-59.511-10.502-77.231-30.993-17.020-19.682-22.165-44.292-22.165-65.506v-80.034c0-16.495 13.372-29.867 29.867-29.867h83.537l-9.758-63.599h-73.779c-16.495 0-29.867-13.372-29.867-29.867v-298.15c0-8.73 3.819-17.024 10.453-22.699s15.42-8.162 24.043-6.81c218.278 34.253 385.237 223.091 385.237 450.991 0 252.137-204.399 456.533-456.533 456.533-252.137 0-456.534-204.397-456.534-456.533 0-227.9 166.96-416.738 385.238-450.991 8.623-1.353 17.408 1.135 24.043 6.81zM702.033 699.683c5.026 29.441 5.022 29.442 5.022 29.442l-0.708 0.118-1.792 0.291c-1.536 0.246-3.746 0.59-6.532 1-5.559 0.819-13.431 1.903-22.814 2.986-18.628 2.151-43.755 4.364-68.685 4.364-54.763 0-103.339-16.708-138.253-51.658-34.948-34.98-52.771-84.782-52.771-144.209v-64.133h-78.467c-16.495 0-29.867-13.372-29.867-29.867v-123.332c0-16.495 13.372-29.867 29.867-29.867h78.467v-231.778c-172.488 43.106-300.267 199.142-300.267 384.977 0 219.147 177.653 396.8 396.801 396.8 219.145 0 396.8-177.653 396.8-396.8 0-185.835-127.778-341.871-300.267-384.977v231.778h69.551c14.746 0 27.285 10.761 29.521 25.335l18.914 123.337c1.323 8.61-1.182 17.37-6.857 23.979s-13.952 10.415-22.665 10.415h-88.465v50.167c0 12.531 3.119 21.236 7.612 26.434 3.797 4.389 12.036 10.332 32.051 10.332h53.803c16.495 0 29.867 13.372 29.867 29.867v105c0 14.556-10.5 26.993-24.845 29.442l-5.022-29.442z" />
<glyph unicode="&#xe919;" glyph-name="twitter" d="M366.917 861.875h-330.667l360.025-480.034-320.541-295.885 40.516-43.891 316.053 291.742 224.747-299.665h330.667l-360.021 480.030 320.555 295.894-40.516 43.892-316.066-291.753-224.751 299.67zM686.916 93.875l-531.2 708.267h181.333l531.2-708.267h-181.333z" />
<glyph unicode="&#xe91a;" glyph-name="whatsapp" d="M751.462 361.276c-5.628 3.17-12.011 6.758-19.699 11.388-4.292 2.59-9.685 6.135-15.403 9.886-29.346 19.26-51.584 32.896-70.511 32.896-4.433 0-8.627-0.751-12.45-2.227-16.585-6.387-30.204-23.445-43.371-39.945-4.826-6.042-11.733-14.694-15.927-18.564-16.627 3.025-51.695 24.751-89.54 62.592-37.888 37.892-59.619 72.998-62.601 89.587 3.863 4.207 12.583 11.166 18.663 16.026 16.435 13.119 33.429 26.685 39.851 43.217 8.192 21.241-6.822 46.644-30.665 82.969-3.75 5.717-7.296 11.117-9.869 15.375-4.646 7.718-8.235 14.104-11.401 19.732-13.001 23.105-21.591 38.375-53.866 38.375-20.948 0-50.565-19.795-70.626-39.426-29.155-28.535-45.214-61.479-45.214-92.829 0.055-85.147 47.575-182.734 130.375-267.841 0.142-0.141 0.284-0.179 0.431-0.32 85.104-82.803 182.746-130.159 267.892-130.159h0.034c31.305 0 64.26 15.872 92.796 45.013 19.644 20.058 39.467 49.459 39.467 70.396 0 32.269-15.262 40.858-38.366 53.858zM657.54 235.998c-72.525 0.051-160.998 44.006-236.702 117.577-73.58 75.712-117.533 164.19-117.579 236.71 0 43.866 56.924 85.572 71.81 87.858 3.041-0.013 4.636-0.193 5.395-0.322 1.968-2.266 5.879-9.218 9.362-15.408 3.152-5.602 7.077-12.576 12.074-20.881 3.021-5.004 6.788-10.741 10.775-16.814 7.546-11.497 22.713-34.606 25.268-44.47-4.275-6.053-17.541-16.643-25.031-22.622-19.171-15.306-35.727-28.524-35.727-47.199 0.047-45.116 58.159-106.731 75.968-124.54s79.424-75.921 124.634-75.968c18.56 0.060 31.718 16.55 46.963 35.639 6.007 7.526 16.666 20.873 22.741 25.126 9.852-2.539 32.99-17.724 44.497-25.276 6.071-3.985 11.806-7.753 16.841-10.79 8.277-4.983 15.249-8.905 20.855-12.058 6.187-3.482 13.141-7.398 15.407-9.365 0.128-0.755 0.307-2.351 0.32-5.389-2.304-14.874-44.023-71.757-87.872-71.808zM981.466 446.293c-1.617 124.241-51.486 241.643-140.42 330.58-90.577 90.577-210.138 140.46-336.661 140.46-122.133 0-236.39-46.996-321.724-132.329-75.724-75.725-122.183-176.72-130.825-284.384-8.196-102.153 17.808-205.521 73.336-292.437l-75.826-204.962c-1.286-3.477-1.713-7.215-1.243-10.889 0.469-3.678 1.821-7.185 3.939-10.227s4.941-5.53 8.227-7.245c3.286-1.715 6.938-2.607 10.644-2.607 3.025 0 6.079 0.875 8.973 2.103l197.482 84.041c75.389-46.925 161.591-71.108 250.108-71.108h0.009c122.116 0 236.369 46.434 321.694 131.759 86.921 86.925 133.901 202.782 132.288 327.245zM816.661 151.002c-76.646-76.642-179.349-118.852-289.186-118.848-83.622 0-164.98 24.478-235.279 70.784-3.163 2.082-6.793 3.354-10.565 3.695-3.772 0.346-7.571-0.252-11.057-1.732l-159.634-67.703 61.384 165.918c1.265 3.426 1.699 7.1 1.263 10.722-0.436 3.627-1.728 7.091-3.769 10.116-112.826 167.151-93.751 389.433 45.355 528.537 76.649 76.649 179.359 118.863 289.211 118.863 114.24 0 222.255-45.1 304.145-126.993 80.414-80.41 125.5-186.477 126.959-298.665 1.455-111.957-40.747-216.614-118.827-294.694z" />
<glyph unicode="&#xe91b;" glyph-name="terms-condition" d="M157.143 870.107h476.139l233.622-243.305v-600.884h-709.761v844.189zM212 815.25v-734.475h600.046v482.743h-238.19v251.732h-361.857zM628.714 795.662v-177.287h170.229l-170.229 177.287zM540.763 453.928h-199.192v-54.857h199.192v54.857zM628.816 292.553h-287.102v-54.857h287.102v54.857z" />
<glyph unicode="&#xe91c;" glyph-name="eye-open" d="M136.269 426.253c15.638-22.519 39.484-52.642 72.088-82.739 65.043-60.041 164.303-119.514 303.63-119.514 139.324 0 238.583 59.473 303.625 119.514 32.606 30.097 56.452 60.22 72.090 82.739 5.914 8.512 10.628 15.902 14.174 21.747-3.546 5.845-8.26 13.235-14.174 21.747-15.637 22.519-39.484 52.642-72.090 82.739-65.041 60.040-164.301 119.514-303.625 119.514-139.328 0-238.587-59.474-303.63-119.514-32.604-30.097-56.45-60.22-72.088-82.739-5.911-8.512-10.626-15.902-14.175-21.747 3.549-5.845 8.263-13.235 14.175-21.747zM967.258 462.34c0.009-0.017 0.017-0.030-28.604-14.34 28.621-14.31 28.612-14.323 28.604-14.34l-0.017-0.034-0.043-0.090-0.124-0.243-0.393-0.764c-0.329-0.631-0.785-1.498-1.37-2.586-1.173-2.176-2.871-5.239-5.103-9.067-4.463-7.65-11.076-18.368-19.938-31.13-17.698-25.481-44.518-59.358-81.246-93.261-73.626-67.959-187.699-136.486-347.038-136.486-159.343 0-273.417 68.527-347.040 136.486-36.729 33.903-63.55 67.78-81.245 93.261-8.862 12.762-15.478 23.479-19.941 31.13-2.232 3.827-3.929 6.891-5.102 9.067-0.586 1.088-1.042 1.954-1.369 2.586l-0.393 0.764-0.124 0.243-0.044 0.090-0.017 0.034c-0.008 0.017-0.015 0.030 28.607 14.34-28.622 14.31-28.615 14.323-28.607 14.34l0.017 0.034 0.044 0.090 0.124 0.243 0.393 0.764c0.326 0.631 0.783 1.498 1.369 2.586 1.173 2.176 2.87 5.239 5.102 9.067 4.463 7.65 11.078 18.368 19.941 31.13 17.695 25.481 44.516 59.357 81.245 93.261 73.623 67.96 187.697 136.486 347.040 136.486 159.339 0 273.412-68.526 347.038-136.486 36.727-33.904 63.548-67.78 81.246-93.261 8.862-12.762 15.475-23.479 19.938-31.13 2.231-3.827 3.93-6.891 5.103-9.067 0.585-1.088 1.041-1.954 1.37-2.586l0.393-0.764 0.124-0.243 0.043-0.090 0.017-0.034zM938.654 448l28.621 14.31 7.155-14.31-7.155-14.31-28.621 14.31zM56.697 462.31l28.622-14.31-28.622-14.31-7.156 14.31 7.156 14.31zM415.985 448c0 53.018 42.98 96 96.002 96 53.018 0 96-42.982 96-96s-42.982-96-96-96c-53.022 0-96.002 42.982-96.002 96zM511.987 608c-88.367 0-160.002-71.634-160.002-160s71.634-160 160.002-160c88.363 0 160 71.633 160 160s-71.637 160-160 160z" />
<glyph unicode="&#xe91d;" glyph-name="eye-close" d="M960.427 473.156v0.853c0 0-1.28 1.707-2.133 2.56-0.853 2.133-2.56 5.547-5.12 9.387-4.267 7.253-10.667 18.347-19.627 31.147-17.92 25.172-44.8 59.305-81.493 93.012-23.893 22.187-52.48 44.8-85.333 64.853l102.4 102.4c12.373 12.373 12.373 32.853 0 45.227s-32.853 12.373-45.227 0l-116.907-116.907c-56.747 24.747-124.16 40.96-201.813 40.96-159.147 0-273.493-68.693-346.88-136.533-36.693-33.707-63.573-67.84-81.493-93.012-8.96-12.8-15.36-23.893-20.053-31.147-2.133-3.84-3.84-7.253-5.12-9.387-0.427-0.853-0.853-1.707-1.28-2.56v-0.853l-7.68-14.507 7.253-14.507v-0.853c0 0 1.28-1.707 1.707-2.56 1.28-2.133 2.987-5.547 5.12-9.387 4.693-7.253 11.093-18.347 20.053-31.147 17.92-25.173 44.8-59.307 81.493-93.013 23.893-22.187 52.48-44.8 85.333-64.853l-145.067-145.067c-12.373-12.373-12.373-32.853 0-45.227s32.853-12.373 45.227 0l159.573 159.573c56.747-24.747 123.733-40.96 201.813-40.96 159.147 0 273.493 68.693 346.88 136.533 36.693 33.707 63.573 67.84 81.493 93.013 8.96 12.8 15.36 23.893 19.627 31.147 2.56 3.84 4.267 7.253 5.12 9.387 0.853 0.853 1.28 1.707 1.707 2.56v0.853l7.68 14.507-7.253 14.507zM290.56 289.263c-34.987 19.627-64.427 42.24-89.173 64.853-32.427 30.293-56.32 60.16-72.107 82.773-5.547 8.533-10.667 15.787-14.080 21.76 3.413 5.973 8.533 13.227 14.080 21.76 15.787 22.613 39.68 52.48 72.107 82.772 65.28 60.16 164.267 119.467 303.787 119.467 57.6 0 108.373-10.24 152.32-26.453l-64-64c-25.6 16.64-55.893 26.453-88.32 26.453-88.32 0-160-71.68-160-159.999 0-32.427 9.813-63.147 26.453-88.32l-81.067-81.067zM591.787 500.036c5.973-12.373 9.387-26.453 9.387-41.387 0-52.907-43.093-96-96-96-14.933 0-29.013 3.413-41.387 9.387l128 128zM418.56 417.263c-5.973 12.373-9.387 26.453-9.387 41.387 0 52.907 43.093 95.999 96 95.999 14.933 0 29.013-3.413 41.387-9.387l-128-127.999zM881.067 436.89c-15.787-22.613-39.68-52.48-72.107-82.773-65.28-60.16-164.267-119.467-303.787-119.467-57.6 0-108.373 10.24-152.32 26.453l64 64c25.173-16.64 55.893-26.453 88.32-26.453 88.32 0 160 71.68 160 160 0 32.427-9.813 63.147-26.453 88.319l81.067 81.067c34.56-19.627 64.427-42.24 89.173-64.853 32.427-30.292 56.32-60.159 72.107-82.772 5.547-8.533 10.24-15.787 14.080-21.76-3.84-5.973-8.533-13.227-14.080-21.76z" />
<glyph unicode="&#xe91e;" glyph-name="user-profile" d="M512 844.559c-88.284 0-159.322-71.378-159.322-159.322 0-85.651 66.942-155.154 151.447-158.849 5.048 0.355 10.385 0.373 15.399 0.003 84.429 3.735 151.407 73.195 151.799 158.909-0.036 87.871-71.445 159.259-159.322 159.259zM292.441 685.236c0 121.123 97.92 219.558 219.559 219.558 121.166 0 219.558-98.391 219.558-219.558v-0.125c-0.494-118.478-93.88-215.029-211.721-218.989-1.337-0.045-2.677 0-4.009 0.133-2.187 0.22-5.382 0.244-8.355-0.024-1.244-0.114-2.494-0.151-3.741-0.108-117.817 3.96-211.292 100.518-211.292 219.115zM519.367 427.472c81.971 0 165.466-20.576 229.921-63.614 57.907-38.526 90.862-92.38 90.862-150.13 0-57.739-32.94-111.679-90.805-150.414l-0.006-0.006c-64.657-43.261-148.272-63.964-230.295-63.964-82.007 0-165.605 20.694-230.26 63.943-57.895 38.526-90.843 92.374-90.843 150.121 0 57.736 32.939 111.676 90.804 150.414l0.111 0.072c64.84 42.993 148.516 63.578 230.511 63.578zM322.196 313.726c-45.347-30.377-64.019-67.298-64.019-100.319 0-33.018 18.665-69.828 64.004-99.994l0.066-0.042c52.676-35.244 123.94-53.793 196.798-53.793 72.861 0 144.125 18.549 196.801 53.793 45.384 30.383 64.069 67.319 64.069 100.355 0 33.015-18.667 69.828-64.006 99.991l-0.045 0.030c-52.447 35.030-123.603 53.489-196.497 53.489-72.861 0-144.258-18.444-197.171-53.51z" />
<glyph unicode="&#xe91f;" glyph-name="camera" d="M365.315 819.2c6.044 8.058 15.528 12.8 25.6 12.8h266.18c10.074 0 19.558-4.742 25.6-12.8l90.221-120.291h216.909c17.67 0 32-14.326 32-32v-598.909c0-17.67-14.33-32-32-32h-931.636c-17.673 0-32 14.33-32 32v598.909c0 17.674 14.327 32 32 32h216.909l90.218 120.291zM406.915 768l-90.218-120.291c-6.043-8.058-15.528-12.8-25.6-12.8h-200.909v-534.909h867.636v534.909h-200.909c-10.074 0-19.558 4.742-25.6 12.8l-90.221 120.291h-234.18zM523.988 535.062c-74.207 0-134.364-60.157-134.364-134.364s60.157-134.364 134.364-134.364c74.207 0 134.367 60.157 134.367 134.364s-60.159 134.364-134.367 134.364zM325.625 400.699c0 109.553 88.81 198.364 198.364 198.364s198.367-88.81 198.367-198.364c0-109.553-88.813-198.363-198.367-198.363s-198.364 88.81-198.364 198.363z" />
<glyph unicode="&#xe920;" glyph-name="back" horiz-adv-x="563" d="M522.604 919.404c19.994-19.995 19.994-52.413 0-72.408l-398.996-398.996 398.996-398.996c19.994-19.994 19.994-52.413 0-72.407s-52.412-19.994-72.408 0l-435.2 435.2c-19.995 19.994-19.995 52.412 0 72.408l435.2 435.2c19.995 19.995 52.413 19.995 72.408 0z" />
<glyph unicode="&#xe921;" glyph-name="event-bookings" d="M89.911 791.143h844.189v-285.751h-27.429c-32.742 0-58.478-25.915-58.478-57.45 0-31.521 25.717-57.41 58.478-57.41h27.429v-285.714h-844.189v285.714h27.429c32.76 0 58.478 25.889 58.478 57.41 0 30.124-24.264 54.115-58.478 54.115h-27.429v289.087zM144.768 736.286v-182.495c48.436-11.238 85.906-51.84 85.906-105.849 0-53.003-36.669-96.892-85.906-108.968v-179.299h734.475v179.299c-49.236 12.076-85.906 55.965-85.906 108.968 0 52.988 36.659 96.918 85.906 109.005v179.339h-734.475zM320 704v36.571h54.857v-36.571h-54.857zM320 557.714v73.143h54.857v-73.143h-54.857zM320 411.429v73.143h54.857v-73.143h-54.857zM320 265.143v73.143h54.857v-73.143h-54.857zM320 155.429v36.571h54.857v-36.571h-54.857z" />
<glyph unicode="&#xe922;" glyph-name="event-management" d="M133.036 577.858h758.312v-54.857h-758.312v54.857zM511.956 506.785l59.93-113.587 126.548-21.895-89.509-92.094 18.282-127.119-115.251 56.667-115.248-56.667 18.282 127.119-89.509 92.094 126.548 21.895 59.926 113.587zM511.956 389.23l-23.995-45.488-50.677-8.766 35.844-36.879-7.322-50.904 46.149 22.693 46.149-22.693-7.318 50.904 35.84 36.879-50.673 8.766-23.998 45.488zM699.037 870.072v-184.734h-54.857v184.734h54.857zM380.215 870.072v-184.734h-54.858v184.734h54.858zM129.411 807.786h765.258v-781.868h-765.258v781.868zM184.268 752.929v-672.153h655.544v672.153h-655.544z" />
<glyph unicode="&#xe923;" glyph-name="search" d="M490.672 847.214c-208.71 0-377.904-169.194-377.904-377.904 0-208.713 169.194-377.907 377.904-377.907 208.713 0 377.907 169.194 377.907 377.907 0 208.71-169.194 377.904-377.907 377.904zM57.911 469.31c0 239.007 193.754 432.761 432.761 432.761 239.009 0 432.764-193.755 432.764-432.761 0-239.009-193.755-432.764-432.764-432.764-239.007 0-432.761 193.755-432.761 432.764zM833.946 126.036c10.712 10.712 28.076 10.712 38.788 0l85.336-85.332c10.712-10.712 10.712-28.080 0-38.788-10.712-10.712-28.080-10.712-38.791 0l-85.332 85.332c-10.712 10.712-10.712 28.080 0 38.788z" />
<glyph unicode="&#xe924;" glyph-name="ball" d="M182.713 566.61c0 172.060 149.428 308.057 329.298 308.057 179.867 0 329.296-135.997 329.296-308.057v-201.512l91.97-229.987h-842.537l91.972 229.987v201.512zM512.011 817.778c-152.445 0-272.409-114.378-272.409-251.168v-212.465l-64.842-162.145h674.5l-64.842 162.145v212.465c0 136.79-119.963 251.168-272.407 251.168zM293.926 150.922v12.633h56.889v-12.633c0-80.229 70.286-148.552 161.185-148.552 90.897 0 161.185 68.324 161.185 148.552v12.633h56.889v-12.633c0-115.276-99.514-205.441-218.074-205.441s-218.074 90.165-218.074 205.441zM512 819.674c41.893 0 75.852 31.413 75.852 70.163s-33.959 70.163-75.852 70.163c-41.893 0-75.852-31.413-75.852-70.163s33.959-70.163 75.852-70.163z" />
<glyph unicode="&#xe925;" glyph-name="dashboard" d="M83.857 842.647h353.522v-353.523h-353.522v353.523zM138.714 787.79v-243.809h243.808v243.809h-243.808zM553.143 842.647h353.525v-353.523h-353.525v353.523zM608 787.79v-243.809h243.811v243.809h-243.811zM83.857 373.314h353.522v-353.525h-353.522v353.525zM138.714 318.457v-243.811h243.808v243.811h-243.808zM553.143 373.314h353.525v-353.525h-353.525v353.525zM608 318.457v-243.811h243.811v243.811h-243.811z" />
<glyph unicode="&#xe926;" glyph-name="clock" horiz-adv-x="967" d="M487.193 759.353c-171.924 0-311.296-139.372-311.296-311.296s139.372-311.296 311.296-311.296c171.922 0 311.294 139.372 311.294 311.296s-139.372 311.296-311.294 311.296zM110.361 448.057c0 208.118 168.714 376.832 376.832 376.832 208.12 0 376.83-168.714 376.83-376.832s-168.71-376.832-376.83-376.832c-208.118 0-376.832 168.715-376.832 376.832zM487.199 671.889c18.097 0 32.768-14.671 32.768-32.768v-177.574l105.089-105.093c12.8-12.794 12.8-33.542 0-46.336-12.794-12.8-33.542-12.8-46.342 0l-114.686 114.685c-6.145 6.145-9.597 14.48-9.597 23.171v191.147c0 18.097 14.671 32.768 32.768 32.768z" />
<glyph unicode="&#xe927;" glyph-name="logout" d="M672 906.667v-277.333h-64v213.333h-405.333v-789.333h405.333v213.333h64v-277.333h-533.333v917.333h533.333zM928 437.333h-618.667v-64h618.667v64zM750.438 451.157c-35.358 45.205-57.105 105.465-57.105 167.509v32h64v-32c0-47.627 16.887-94.033 43.516-128.077 26.714-34.159 60.873-53.257 95.151-53.257h32v-64h-32c-59.119 0-110.293 32.73-145.562 77.824zM896 437.333c-111.748 0-202.667-97.941-202.667-202.667v-32h64v32c0 70.75 63.62 138.667 138.667 138.667h32v64h-32z" />
<glyph unicode="&#xe928;" glyph-name="account" d="M512 960c-148.878 0-270-121.122-270-270s121.122-269.998 270-269.998c148.877 0 269.999 121.12 269.999 269.998s-121.122 270-269.999 270zM512 480c-115.794 0-210 94.206-210 210s94.206 210 210 210c115.793 0 210.001-94.206 210.001-210s-94.208-210-210.001-210zM847.932 243.61c-73.92 75.055-171.913 116.39-275.934 116.39h-119.996c-104.018 0-202.014-41.335-275.934-116.39-73.558-74.688-114.068-173.274-114.068-277.611 0-16.567 13.432-29.999 30-29.999h840.002c16.567 0 29.999 13.431 29.999 29.999 0 104.337-40.512 202.923-114.069 277.611zM123.32-4.002c15.030 170.176 156.702 304 328.682 304h119.996c171.981 0 313.651-133.824 328.683-304h-777.361z" />
<glyph unicode="&#xe929;" glyph-name="down-angle" horiz-adv-x="1593" d="M33.325 888.786c44.433 44.433 116.473 44.433 160.906 0l602.213-602.213 602.214 602.213c44.43 44.433 116.474 44.433 160.905 0s44.43-116.473 0-160.906l-682.666-682.667c-44.434-44.434-116.473-44.434-160.907 0l-682.666 682.667c-44.433 44.432-44.433 116.472 0 160.906z" />
<glyph unicode="&#xe92a;" glyph-name="plus" d="M0 448c0 31.419 25.47 56.889 56.889 56.889h910.222c31.42 0 56.889-25.47 56.889-56.889s-25.469-56.889-56.889-56.889h-910.222c-31.419 0-56.889 25.47-56.889 56.889zM512 960c31.419 0 56.889-25.47 56.889-56.889v-910.222c0-31.42-25.47-56.889-56.889-56.889s-56.889 25.469-56.889 56.889v910.222c0 31.419 25.47 56.889 56.889 56.889z" />
<glyph unicode="&#xe92b;" glyph-name="password" d="M742.517 593.295v63.42c0 127.221-102.916 230.138-230.137 230.138-126.841 0.759-230.518-101.777-230.898-228.999v-64.56h-135.197v-582.941h731.429v582.941h-135.197zM338.447 657.475c0.38 95.321 77.853 172.413 173.173 172.413h0.761c95.7 0 173.173-77.472 173.173-173.173v-63.42h-347.106v64.18zM820.751 67.317h-617.5v469.014h617.5v-469.014zM534.393 379.465h-56.964v-155.326h56.964v155.326z" />
<glyph unicode="&#xe92c;" glyph-name="card" d="M89.857 775.357h844.192v-654.752h-844.192v654.752zM144.714 720.5v-545.038h734.478v545.038h-734.478zM89.857 569.999h844.192v-54.857h-844.192v54.857zM606.285 332.822h203.136v-54.857h-203.136v54.857zM425.999 332.822h86.766v-54.857h-86.766v54.857z" />
<glyph unicode="&#xe92d;" glyph-name="star" d="M511.936 874.667l140.446-257.526 288.324-53.993-201.523-213.153 37.747-290.897-264.994 125.794-264.994-125.794 37.746 290.897-201.521 213.153 288.322 53.993 140.447 257.526zM511.936 740.998l-98.805-181.172-202.837-37.983 141.772-149.956-26.554-204.646 186.425 88.495 186.423-88.495-26.551 204.646 141.769 149.956-202.837 37.983-98.803 181.172z" />
<glyph unicode="&#xe92e;" glyph-name="twint" d="M912.453 221.978c0.271 0.296 0.655 0.786 1.042 1.445 0.369 0.618 0.603 1.156 0.731 1.518v438.809c-0.055 0.156-0.132 0.346-0.23 0.567-0.161 0.364-0.362 0.759-0.6 1.161-0.234 0.403-0.479 0.77-0.717 1.088-0.161 0.218-0.304 0.392-0.421 0.523l-379.381 219.518c-0.581 0.129-1.503 0.251-2.622 0.251s-2.037-0.123-2.619-0.251l-379.577-219.629c-0.269-0.296-0.655-0.788-1.043-1.444-0.367-0.62-0.602-1.158-0.731-1.52v-438.81c0.057-0.154 0.133-0.344 0.231-0.567 0.163-0.362 0.364-0.757 0.6-1.159s0.481-0.772 0.717-1.090c0.162-0.216 0.305-0.391 0.419-0.523l379.385-219.516c0.581-0.128 1.499-0.252 2.619-0.252s2.041 0.124 2.622 0.252l379.575 219.63zM510.49 918.936c10.781 5.99 28.752 5.99 39.537 0l381.005-220.456c10.781-5.99 19.767-21.566 19.767-33.548v-440.91c0-12.581-8.986-27.557-19.767-33.547l-381.005-220.456c-10.785-5.99-28.756-5.99-39.537 0l-381.006 220.456c-10.783 5.99-19.769 21.566-19.769 33.547v440.91c0 12.581 8.986 27.557 19.769 33.548l381.006 220.456zM729.073 443.268l-99.445-146.172-50.922 77.879 58.708 88.064c10.785 15.576 34.147 58.708 7.19 117.416-21.566 47.924-68.893 70.689-110.826 70.689-41.936 0-86.864-21.566-110.826-70.689-27.56-56.912-3.595-100.645 6.587-115.621 0 0 32.951-47.923 59.908-88.064l44.332-64.099 66.494-101.84c0.6-0.6 10.785-16.775 29.356-16.775 17.371 0 28.756 16.176 29.952 17.375l155.758 230.638h-86.265v1.2zM533.179 439.673c0 0-25.761 39.537-43.132 67.094-17.971 29.356 1.796 73.688 43.132 73.688 40.737 0 61.104-44.332 43.132-73.688-16.775-27.557-43.132-67.094-43.132-67.094zM437.998 301.89l-97.649 137.183c0 0-25.759 39.541-43.132 67.098-17.972 29.352 1.797 73.684 43.132 73.684 5.392 0 9.585-0.6 14.378-1.799l34.145 62.903c-15.572 6.59-32.947 10.184-48.523 10.184-41.335 0-86.864-21.566-110.827-70.689-27.557-56.912-3.594-100.645 6.59-115.621l170.734-253.403c1.796-1.799 12.581-17.971 30.552-17.971s28.756 15.576 29.952 17.371l51.522 78.479-44.332 64.699-36.542-52.118z" />
<glyph unicode="&#xe92f;" glyph-name="setting" d="M512 595.825c-81.643 0-147.825-66.182-147.825-147.825s66.182-147.827 147.825-147.827c81.643 0 147.827 66.185 147.827 147.827s-66.185 147.825-147.827 147.825zM308.708 448c0 112.274 91.017 203.292 203.292 203.292 112.277 0 203.294-91.017 203.294-203.292 0-112.277-91.017-203.294-203.294-203.294-112.274 0-203.292 91.017-203.292 203.294zM399.477 921.792l112.561-88.564 112.559 88.564 241.51-139.436-20.42-141.754 132.894-53.164v-278.872l-132.941-53.184 20.416-141.726-241.51-139.435-112.508 88.521-112.509-88.521-241.51 139.435 20.41 141.705-133.002 53.205v278.872l132.954 53.188-20.414 141.73 241.51 139.436zM218.221 753.096l21.283-147.759-138.609-55.45v-203.77l138.657-55.471-21.279-147.729 176.47-101.888 117.296 92.292 117.295-92.292 176.469 101.888-21.282 147.755 138.594 55.445v203.77l-138.547 55.426 21.286 147.783-176.469 101.885-117.346-92.33-117.348 92.33-176.47-101.885z" />
<glyph unicode="&#xe930;" glyph-name="tiktok" d="M888.32 714.24h-0.853c-37.973 0-75.52 11.093-107.947 32-56.747 37.12-90.453 99.413-90.453 166.827v25.6h-212.907v-671.573c-1.707-29.44-14.080-56.32-35.413-76.373-21.76-20.053-49.493-30.293-79.36-29.44-29.44 1.28-56.747 13.653-76.8 35.413s-30.293 49.493-29.013 78.933c2.133 59.307 50.773 105.813 110.080 105.813 11.093 0 21.76-1.707 32.427-5.12l33.28-10.667v222.293l-21.76 2.987c-14.507 2.133-29.013 2.987-43.947 2.987-177.92 0-322.987-144.64-322.987-322.56 0-177.493 145.493-322.56 323.413-322.56s322.987 144.64 322.987 322.56v281.6c60.587-33.707 128.427-51.627 198.4-51.627h26.453v212.907h-25.6zM862.72 553.387c-66.56 4.693-129.707 27.733-184.32 66.987l-40.533 29.013v-378.027c0-149.76-122.027-271.36-271.787-271.36s-271.787 122.027-272.213 271.36c0 149.76 122.027 271.36 271.787 271.36 4.693 0 9.813 0 14.507-0.427v-110.507c-91.733 8.533-172.373-62.72-175.787-154.453-1.707-42.667 13.653-83.627 42.667-115.2 29.44-32 69.12-50.347 112.64-52.053 42.667-1.707 84.053 13.653 115.627 43.093 31.573 29.013 49.92 69.12 51.627 113.067v621.227h112.213c7.68-74.667 48.64-142.507 112.64-184.32 33.707-21.76 71.68-34.987 110.933-38.827v-110.933z" />
<glyph unicode="&#xe931;" glyph-name="check" d="M1010.013 733.047l-655.596-655.597-354.417 354.42 106.482 106.482 247.935-247.936 549.112 549.112 106.484-106.482z" />
<glyph unicode="&#xe932;" glyph-name="content" d="M458.653 559.927l166.122-166.118-367.915-367.916-165.966 0.154-0.156 165.968 367.914 367.912zM145.617 169.311l0.083-88.459 88.459-0.080 313.037 313.037-88.543 88.539-313.036-313.037zM477.444 274.41l-138.83 138.832 38.789 38.788 138.832-138.829-38.791-38.791zM146.286 877.714h476.142l233.618-243.305v-600.885h-490.331v54.857h435.474v523.955l-202.141 210.52h-397.904v-475.429h-54.857v530.286zM617.856 854.054v-228.071h217.904v-54.857h-272.761v282.929h54.857z" />
<glyph unicode="&#xe933;" glyph-name="left-side-arrow" horiz-adv-x="585" d="M563.72 938.577c28.564-28.564 28.564-74.875 0-103.44l-387.138-387.137 387.138-387.138c28.564-28.562 28.564-74.876 0-103.439s-74.876-28.562-103.44 0l-438.857 438.856c-28.564 28.564-28.564 74.876 0 103.44l438.857 438.857c28.564 28.564 74.876 28.564 103.44 0z" />
<glyph unicode="&#xe934;" glyph-name="discount-code" d="M641.788 547.869l-229.705-229.705-38.791 38.791 229.709 229.705 38.788-38.791zM572.727 387.035h55.19v-54.857h-55.19v54.857zM387.061 572.749h55.19v-54.857h-55.19v54.857zM512 888.071l21.855-28.824c59.319-78.227 156.222-118.367 253.48-104.994l35.836 4.927-4.926-35.836c-13.374-97.258 26.767-194.162 104.993-253.481l28.826-21.855-28.826-21.855c-78.226-59.315-118.367-156.222-104.993-253.48l4.926-35.836-35.836 4.93c-97.258 13.371-194.161-26.77-253.48-104.997l-21.855-28.826-21.855 28.826c-59.315 78.226-156.222 118.367-253.479 104.997l-35.836-4.93 4.927 35.836c13.372 97.258-26.768 194.165-104.995 253.48l-28.824 21.855 28.824 21.855c78.227 59.319 118.367 156.224 104.995 253.481l-4.927 35.836 35.836-4.927c97.257-13.372 194.164 26.767 253.479 104.994l21.855 28.824zM262.975 697.034c3.095-93.939-34.537-184.789-103.15-249.027 68.613-64.234 106.245-155.085 103.15-249.026 93.939 3.094 184.791-34.538 249.025-103.15 64.238 68.612 155.088 106.244 249.026 103.15-3.094 93.941 34.538 184.792 103.15 249.026-68.612 64.238-106.244 155.088-103.15 249.027-93.937-3.095-184.788 34.537-249.026 103.15-64.234-68.613-155.087-106.245-249.025-103.15z" />
<glyph unicode="&#xe935;" glyph-name="event-organizer" d="M903.793 281.925h-389.753v55.468h389.753v-55.468zM778.642 362.661v128h55.464v-128h-55.464zM586.642 362.661v128h55.464v-128h-55.464zM484.264 441.198h449.072v-458.273h-449.072v458.273zM539.732 385.73v-347.337h338.136v347.337h-338.136zM709.197 234.661l-22.199-42.075-46.874-8.108 33.156-34.114-6.773-47.089 42.69 20.992 42.69-20.992-6.769 47.089 33.156 34.114-46.877 8.108-22.199 42.075zM390.554 846.926c-86.047 0-155.797-69.717-155.797-155.743s69.75-155.745 155.797-155.745c85.987 0 155.743 69.713 155.743 155.745s-69.756 155.743-155.743 155.743zM179.29 691.183c0 116.681 94.604 211.21 211.263 211.21 116.612 0 211.211-94.534 211.211-211.21s-94.599-211.209-211.211-211.209c-116.659 0-211.263 94.526-211.263 211.209zM133.527 190.852c42.58 105.143 139.526 155.377 258.351 155.074l27.732-0.073 0.143 55.468-27.732 0.069c-144.215 0.369-272.043-66.578-318.885-214.704l-6.554-20.725 18.561-11.315c90.835-55.376 196.571-75.97 306.875-75.703l27.732 0.069-0.135 55.464-27.732-0.066c-95.29-0.234-183.055 16.143-258.354 56.441z" />
<glyph unicode="&#xe936;" glyph-name="payments" d="M47.542 598.5h766.706v-539.046h-766.706v539.046zM98.742 547.299v-436.645h664.306v436.645h-664.306zM224.094 843.178l756.229-126.316-88.806-531.679-123.282 20.593 8.433 50.498 72.781-12.156 71.94 430.679-655.229 109.446-35.969-215.338-50.5 8.433 44.404 265.84zM509.787 298.876h199.969v-134.923h-199.969v134.923zM658.556 247.676h-97.569v-32.523h97.569v32.523zM788.648 417.211h-715.505v51.2h715.505v-51.2z" />
<glyph unicode="&#xe937;" glyph-name="right-side-arrow" horiz-adv-x="585" d="M21.423-42.576c-28.564 28.562-28.564 74.876 0 103.439l387.138 387.138-387.138 387.137c-28.564 28.564-28.564 74.876 0 103.44s74.875 28.564 103.44 0l438.857-438.857c28.564-28.564 28.564-74.876 0-103.44l-438.857-438.856c-28.564-28.562-74.876-28.562-103.44 0z" />
<glyph unicode="&#xe938;" glyph-name="users" d="M121.783 261.486c22.309-10.971 46.446-19.017 72.046-24.503l-11.337-53.76c-38.4 8.046-75.337 21.577-109.349 42.423l-18.286 11.337 6.583 20.48c32.914 103.497 122.88 150.309 222.354 149.943v-54.857c-74.24 0.366-133.851-29.623-162.011-91.063zM973.531 236.983l-18.286-11.337c-34.011-20.846-70.949-34.377-109.349-42.423l-11.337 53.76c25.6 5.486 49.737 13.531 72.046 24.503-28.16 61.44-87.771 91.429-161.646 91.063v54.857c99.109 0.366 189.074-46.446 221.989-149.943l6.583-20.48zM819.2 165.303c-44.983 141.897-167.863 206.263-305.737 205.897-138.24 0.366-260.754-64-305.737-205.897l-6.583-20.48 18.286-11.337c87.040-53.029 188.343-72.777 294.034-72.411 105.691-0.366 206.629 19.383 293.669 72.411l18.651 11.337-6.583 20.48zM513.463 115.931c-90.697-0.366-174.446 15.36-246.126 53.394 40.594 99.474 132.754 147.383 246.126 147.017h1.463c112.274 0 203.703-47.909 244.297-147.017-71.68-38.034-155.063-53.76-245.76-53.394zM862.72 685.349c-40.594 51.931-108.617 70.217-167.863 50.103-32.549 68.023-102.034 114.834-182.857 114.834s-149.213-46.446-182.493-113.737c-73.509 23.040-153.6-13.166-183.954-85.943-31.817-76.8 4.389-164.571 81.189-196.754 57.417-23.771 121.417-9.509 163.11 31.451 34.011-25.6 76.434-40.594 122.149-40.594s90.331 15.726 124.709 42.789c52.663-53.76 138.606-60.709 199.68-13.166 65.463 50.834 77.166 145.189 26.331 211.017zM247.953 504.686c-49.006 20.114-72.046 76.069-51.566 125.074 19.017 45.714 69.486 68.754 115.931 54.491-2.194-11.703-3.291-24.137-3.291-36.937 0-46.446 15.726-88.869 42.058-123.246-26.697-25.6-66.926-34.377-103.132-19.383zM512 499.566c-81.554 0-148.115 66.194-148.115 147.749s66.561 148.114 148.115 148.114c81.554 0 148.114-66.194 148.114-148.114s-66.194-147.749-148.114-147.749zM802.377 517.486c-38.766-30.354-93.989-25.6-127.269 9.143 24.869 33.646 39.863 75.703 39.863 120.686 0 12.434-1.097 24.137-3.291 35.84 38.034 13.166 81.554 1.829 107.52-31.451 32.549-41.691 24.869-101.669-16.823-134.217z" />
<glyph unicode="&#xe939;" glyph-name="filter" d="M128 832h768v-187.501l-265.846-271.223v-198.577l-236.308-92.357v290.934l-265.846 271.223v187.501zM187.077 772.923v-104.3l265.846-271.221v-228.545l118.154 46.178v182.367l265.846 271.221v104.3h-649.846z" />
<glyph unicode="&#xe93a;" glyph-name="reject" d="M641.309 447.995l374.207 374.205-129.302 129.3-374.205-374.205-374.205 374.205-129.299-129.3 374.205-374.205-374.209-374.208 129.3-129.302 374.209 374.211 374.212-374.211 129.295 129.302-374.207 374.208z" />
<glyph unicode="&#xe93b;" glyph-name="dots" d="M896 448c0-47.128-38.205-85.333-85.333-85.333s-85.333 38.205-85.333 85.333c0 47.128 38.205 85.333 85.333 85.333s85.333-38.205 85.333-85.333zM597.333 448c0-47.128-38.205-85.333-85.333-85.333s-85.333 38.205-85.333 85.333c0 47.128 38.205 85.333 85.333 85.333s85.333-38.205 85.333-85.333zM298.667 448c0-47.128-38.205-85.333-85.333-85.333s-85.333 38.205-85.333 85.333c0 47.128 38.205 85.333 85.333 85.333s85.333-38.205 85.333-85.333z" />
<glyph unicode="&#xe93c;" glyph-name="link" d="M391.021 704.146l68.183 68.184c103.94 103.938 273.54 103.583 377.122 0 103.94-103.938 103.586-273.539 0-377.126l-68.181-68.181-45.257 45.252 68.186 68.186c78.643 78.643 78.891 207.723 0 286.614-78.643 78.643-207.723 78.891-286.613 0l-68.186-68.184-45.254 45.255zM187.666 123.669c-103.912 103.91-103.912 273.212 0 377.122l67.882 67.882 45.255-45.256-67.882-67.883c-78.918-78.916-78.918-207.693 0-286.613 78.643-78.643 207.724-78.891 286.614 0l67.883 67.883 45.252-45.257-67.878-67.878c-103.94-103.94-273.542-103.586-377.126 0zM346.063 327.313l286.616 286.613 45.252-45.255-286.613-286.615-45.255 45.257z" />
<glyph unicode="&#xe93d;" glyph-name="EUR" d="M222.195 447.356c0 66.278 12.051 127.823 36.152 184.633s57.671 106.305 100.71 148.483c43.038 43.038 93.393 76.608 151.065 100.71s119.646 36.152 185.924 36.152c43.9 0 84.356-2.582 121.37-7.747s69.291-13.342 96.836-24.532c28.403-11.19 49.924-25.823 64.559-43.899l-41.318-123.951h-12.911c7.744 35.291 4.732 63.267-9.041 83.925-13.769 21.519-33.566 37.874-59.392 49.064-24.96 11.19-52.075 18.506-81.34 21.949-29.269 4.304-55.522 6.456-78.763 6.456-52.506 0-101.999-11.19-148.48-33.57-45.623-21.519-85.649-52.076-120.077-91.671-33.572-38.735-60.256-84.355-80.053-136.862-18.937-51.646-28.405-107.597-28.405-167.851s9.469-116.634 28.405-169.139c19.798-51.648 46.481-97.267 80.053-136.862 34.428-39.595 74.453-70.583 120.077-92.962 46.481-21.521 95.974-32.282 148.48-32.282 79.189 0 141.167 13.773 185.929 41.318 45.619 27.546 74.022 72.734 85.214 135.569h12.911l-1.289-135.569c-18.078-18.935-42.611-34.432-73.596-46.481-30.127-11.191-63.697-19.366-100.71-24.533-36.151-6.025-72.307-9.037-108.459-9.037-66.278 0-128.252 12.049-185.924 36.151s-108.027 57.242-151.065 99.418c-43.039 43.042-76.608 92.966-100.71 149.777s-36.152 117.922-36.152 183.343zM99.536 529.988h774.691l-14.204-38.733h-774.69l14.202 38.733zM99.536 400.875h729.499l-12.911-38.737h-730.79l14.202 38.737z" />
<glyph unicode="&#xe93e;" glyph-name="USD" horiz-adv-x="419" d="M209.402 874.859c18.409 0 35.284-0.767 50.625-2.301 16.108-1.534 30.681-3.835 43.721-6.904 13.807-2.301 25.696-4.985 35.667-8.054 10.739-2.301 19.56-4.986 26.463-8.054v-127.712h-10.355c0 36.818-12.273 65.582-36.818 86.292-24.545 21.477-57.144 32.216-97.798 32.216-25.312 0-48.324-6.136-69.034-18.409s-37.201-28.381-49.474-48.323c-12.273-19.943-18.409-41.42-18.409-64.431 0-16.875 3.452-34.901 10.355-54.077 7.67-19.176 19.943-36.818 36.818-52.926l225.51-209.401c22.244-20.713 37.201-42.957 44.872-66.732 8.437-23.78 12.656-47.942 12.656-72.485 0-64.433-19.176-116.592-57.528-156.477-38.352-39.121-88.977-59.062-151.874-59.83-36.818 0-74.019 5.367-111.604 16.105-37.585 9.975-67.116 25.698-88.593 47.174-3.068 12.274-4.602 27.615-4.602 46.024s1.534 37.585 4.602 57.53c3.068 20.708 7.287 39.498 12.656 56.376h10.355c-3.068-39.885 1.534-74.403 13.807-103.55 13.040-28.383 32.599-49.859 58.679-64.433s57.145-21.476 93.196-20.708c28.381 1.531 54.077 8.82 77.088 21.858 23.778 13.042 42.57 30.683 56.377 52.927 13.807 23.012 20.71 49.091 20.71 78.238 0 20.708-3.452 40.271-10.355 58.68s-18.409 34.9-34.517 49.473l-220.908 204.8c-23.779 22.244-40.27 45.639-49.474 70.184-8.437 25.313-12.656 49.858-12.656 73.636 0 34.517 8.437 66.349 25.312 95.496 17.642 29.915 40.653 53.693 69.034 71.335 29.148 17.642 60.98 26.463 95.497 26.463zM365.878 863.353v-24.162h-87.443v24.162h87.443zM223.209 960l34.517-1.151-78.238-1022.849-34.517 3.454 78.238 1020.546z" />
<glyph unicode="&#xe93f;" glyph-name="CHF" horiz-adv-x="698" d="M139.636-64v209.455h-139.636v70.209h139.636v744.336h537.293v-69.818h-467.475v-403.461h440.227v-61.994h-440.227v-209.064h253.784v-70.209h-253.784v-209.455h-69.818z" />
<glyph unicode="&#xe940;" glyph-name="moon-left-3" horiz-adv-x="752" d="M748 902.485c-163.999-85.333-276-256.829-276-454.485s112.001-369.152 276-454.488c-70.622-36.744-150.886-57.512-236-57.512-282.77 0-512 229.23-512 512s229.23 512 512 512c85.114 0 165.378-20.769 236-57.515z" />
<glyph unicode="&#xe941;" glyph-name="moon-left-1" horiz-adv-x="576" d="M572 956.522c-254.498-29.706-452-246.050-452-508.522s197.502-478.816 452-508.52c-19.681-2.296-39.702-3.48-60-3.48-282.77 0-512 229.23-512 512s229.23 512 512 512c20.298 0 40.319-1.181 60-3.478z" />
<glyph unicode="&#xe942;" glyph-name="moon-left-2" horiz-adv-x="608" d="M608 951.015c-236.882-44.935-416-253.057-416-503.015s179.118-458.080 416-503.016c-31.096-5.896-63.187-8.984-96-8.984-282.77 0-512 229.23-512 512s229.23 512 512 512c32.813 0 64.904-3.087 96-8.985z" />
<glyph unicode="&#xe943;" glyph-name="moon-right-3" horiz-adv-x="752" d="M4-6.488c164 85.336 276 256.832 276 454.488s-112 369.149-276 454.484c70.625 36.742 150.883 57.516 236 57.516 282.774 0 512-229.226 512-512s-229.226-512-512-512c-85.117 0-165.375 20.776-236 57.512z" />
<glyph unicode="&#xe944;" glyph-name="moon-right-1" horiz-adv-x="576" d="M0-60.52c254.498 29.704 452 246.048 452 508.52s-197.502 478.815-452 508.522c19.681 2.297 39.702 3.478 60 3.478 282.77 0 512-229.23 512-512s-229.23-512-512-512c-20.298 0-40.319 1.184-60 3.48z" />
<glyph unicode="&#xe945;" glyph-name="moon-right-2" horiz-adv-x="608" d="M0-55.016c236.882 44.936 416 253.058 416 503.016s-179.118 458.080-416 503.015c31.096 5.899 63.188 8.985 96 8.985 282.77 0 512-229.23 512-512s-229.23-512-512-512c-32.812 0-64.904 3.088-96 8.984z" />
<glyph unicode="&#xe946;" glyph-name="moon-full" d="M1024 448c0-282.77-229.23-512-512-512s-512 229.23-512 512c0 282.77 229.23 512 512 512s512-229.23 512-512z" />
<glyph unicode="&#xe947;" glyph-name="quote1" horiz-adv-x="1280" d="M550.758 955l34.616-57.11c-196.148-103.837-294.222-201.906-294.222-294.204 0-39.227 36.921-77.878 110.765-115.952 65.765-34.612 111.915-69.225 138.457-103.836 25.38-34.611 38.072-79.611 38.072-134.989 0-73.836-25.958-136.719-77.881-188.636-53.073-53.074-115.955-79.611-188.645-79.611-80.767 0-145.957 32.307-195.57 96.916-50.767 64.609-76.151 148.833-76.151 252.672 0 170.752 64.613 317.278 193.839 439.574 43.845 40.381 87.113 73.263 129.804 98.645 41.537 24.229 103.841 53.072 186.916 86.531zM1234.386 955l34.616-57.11c-196.147-104.991-294.221-203.058-294.221-294.204 0-21.921 8.074-40.956 24.228-57.111 16.154-17.306 45-36.919 86.538-58.841 63.457-32.304 109.036-66.337 136.724-102.106 26.537-36.92 39.808-82.493 39.808-136.719 0-74.993-25.964-138.45-77.885-190.367s-114.227-77.88-186.916-77.88c-81.92 0-147.686 32.307-197.299 96.916-50.77 64.609-76.15 148.833-76.15 252.672 0 81.915 16.727 160.367 50.186 235.362 32.312 74.993 80.768 143.064 145.382 204.212 74.998 69.225 179.994 130.95 314.988 185.176z" />
<glyph unicode="&#xe948;" glyph-name="quote-2" horiz-adv-x="1229" d="M718.244-14.397l-34.616 57.108c196.147 103.844 294.221 201.917 294.221 294.221 0 39.229-36.92 77.885-110.766 115.959-65.766 34.614-111.918 69.229-138.455 103.843-25.385 34.612-38.077 79.611-38.077 134.994 0 73.842 25.964 136.726 77.885 188.647 53.074 53.074 115.953 79.612 188.641 79.612 80.768 0 145.961-32.308 195.574-96.919 50.765-64.613 76.15-148.84 76.15-252.684 0-170.761-64.614-317.295-193.838-439.597-43.848-40.387-87.112-73.267-129.802-98.652-41.539-24.233-103.844-53.074-186.916-86.533zM34.614-14.397l-34.614 57.108c196.147 104.996 294.22 203.069 294.22 294.221 0 21.924-8.076 40.96-24.229 57.114-16.155 17.311-45 36.92-86.536 58.845-63.459 32.305-109.036 66.342-136.726 102.111-26.538 36.921-39.807 82.498-39.807 136.726 0 74.996 25.961 138.455 77.882 190.377s114.226 77.882 186.916 77.882c81.921 0 147.686-32.308 197.301-96.919 50.766-64.613 76.151-148.84 76.151-252.684 0-81.921-16.732-160.377-50.19-235.375-32.308-74.998-80.766-143.073-145.38-204.221-74.998-69.233-179.994-130.959-314.988-185.185z" />
<glyph unicode="&#xe949;" glyph-name="checkmark-circle" d="M512-4.923c-250.142 0-452.923 202.78-452.923 452.923s202.781 452.923 452.923 452.923c250.144 0 452.923-202.781 452.923-452.923 0-250.144-202.78-452.923-452.923-452.923zM512-64c282.77 0 512 229.23 512 512s-229.23 512-512 512c-282.77 0-512-229.23-512-512s229.23-512 512-512zM771.111 672.060c14.99-12.592 16.931-34.95 4.34-49.94l-356.21-424.062-169.116 176.16c-13.557 14.123-13.099 36.561 1.023 50.117 14.122 13.56 36.561 13.099 50.118-1.020l114.454-119.225 305.451 363.628c12.591 14.99 34.95 16.934 49.94 4.343z" />
</font>
</defs>
</svg>
